<svg width="25" height="22" viewBox="0 0 25 22" fill="none" xmlns="http://www.w3.org/2000/svg">
<path fill-rule="evenodd" clip-rule="evenodd" d="M9.53674e-06 10.7207C9.53674e-06 11.1268 0.161337 11.5163 0.448502 11.8034C0.735666 12.0906 1.12515 12.2519 1.53126 12.2519H19.2723L12.6971 18.8241C12.5548 18.9664 12.4418 19.1354 12.3648 19.3215C12.2877 19.5075 12.2481 19.7068 12.2481 19.9082C12.2481 20.1095 12.2877 20.3089 12.3648 20.4949C12.4418 20.6809 12.5548 20.8499 12.6971 20.9923C12.8395 21.1347 13.0085 21.2476 13.1945 21.3247C13.3805 21.4017 13.5799 21.4414 13.7813 21.4414C13.9826 21.4414 14.182 21.4017 14.368 21.3247C14.554 21.2476 14.723 21.1347 14.8654 20.9923L24.0529 11.8048C24.1955 11.6626 24.3086 11.4936 24.3858 11.3076C24.463 11.1215 24.5027 10.9221 24.5027 10.7207C24.5027 10.5193 24.463 10.3198 24.3858 10.1338C24.3086 9.94777 24.1955 9.7788 24.0529 9.63656L14.8654 0.44906C14.5779 0.161532 14.1879 0 13.7813 0C13.3746 0 12.9847 0.161532 12.6971 0.44906C12.4096 0.736587 12.2481 1.12656 12.2481 1.53318C12.2481 1.93981 12.4096 2.32978 12.6971 2.61731L19.2723 9.18944H1.53126C1.12515 9.18944 0.735666 9.35076 0.448502 9.63793C0.161337 9.92509 9.53674e-06 10.3146 9.53674e-06 10.7207Z" fill="white"/>
</svg>
