<svg width="25" height="22" viewBox="0 0 25 22" fill="none" xmlns="http://www.w3.org/2000/svg">
<path fill-rule="evenodd" clip-rule="evenodd" d="M24.5027 10.7207C24.5027 11.1268 24.3414 11.5163 24.0542 11.8034C23.7671 12.0906 23.3776 12.2519 22.9715 12.2519H5.23042L11.8056 18.8241C11.948 18.9664 12.0609 19.1354 12.138 19.3215C12.215 19.5075 12.2547 19.7068 12.2547 19.9082C12.2547 20.1095 12.215 20.3089 12.138 20.4949C12.0609 20.6809 11.948 20.8499 11.8056 20.9923C11.6632 21.1347 11.4942 21.2476 11.3082 21.3247C11.1222 21.4017 10.9228 21.4414 10.7215 21.4414C10.5201 21.4414 10.3208 21.4017 10.1348 21.3247C9.94875 21.2476 9.77973 21.1347 9.63736 20.9923L0.449862 11.8048C0.307262 11.6626 0.194124 11.4936 0.11693 11.3076C0.0397348 11.1215 0 10.9221 0 10.7207C0 10.5193 0.0397348 10.3198 0.11693 10.1338C0.194124 9.94777 0.307262 9.7788 0.449862 9.63656L9.63736 0.44906C9.92489 0.161532 10.3149 0 10.7215 0C11.1281 0 11.5181 0.161532 11.8056 0.44906C12.0931 0.736587 12.2547 1.12656 12.2547 1.53318C12.2547 1.93981 12.0931 2.32978 11.8056 2.61731L5.23042 9.18944H22.9715C23.3776 9.18944 23.7671 9.35076 24.0542 9.63793C24.3414 9.92509 24.5027 10.3146 24.5027 10.7207Z" fill="black" fill-opacity="0.3"/>
</svg>
