<svg width="414" height="370" viewBox="0 0 414 370" fill="none" xmlns="http://www.w3.org/2000/svg">
<path opacity="0.2" d="M402.6 144.506C401.965 120.283 400.328 93.8328 389.021 72.406C377.714 50.9792 354.098 27.9424 330.932 20.84C313.544 15.4856 298.336 17.85 279.67 22.7536C261.95 27.4088 251.15 39.1204 239.898 54.3372C230.129 67.8063 222.495 82.7013 217.266 98.4972C209.418 121.58 189.188 139.897 165.544 145.721C135.57 153.081 102.873 141.121 73.6264 150.919C40.9848 161.867 21.8028 199.366 25.9336 233.535C26.0348 234.39 26.1452 235.246 26.274 236.111C33.4684 286.646 76.7268 324.274 127.759 325.636L167.752 326.712C221.25 330.871 279.256 326.354 325.375 298.919C351.328 283.482 371.467 259.111 383.878 231.575C396.289 204.04 403.354 174.701 402.6 144.506Z" fill="url(#paint0_linear_41_18)"/>
<path d="M325.762 340.08C326.683 340.485 327.513 341.072 328.202 341.805C328.892 342.539 329.426 343.404 329.773 344.349C330.458 346.25 330.7 348.283 330.481 350.292C330.159 354.165 328.089 358.14 325.817 361.332C322.477 358.572 321.576 353.668 321.272 351.138C320.794 347.136 322.367 339.62 325.762 340.098" fill="#01BF7B"/>
<path d="M329.8 367.515C329.537 366.42 329.569 365.276 329.892 364.198C330.216 363.12 330.819 362.147 331.64 361.378C332.478 360.626 333.457 360.048 334.52 359.679C335.583 359.309 336.709 359.155 337.832 359.225C338.348 359.206 338.862 359.299 339.338 359.497C339.815 359.696 340.242 359.995 340.592 360.375C340.854 360.783 341.004 361.254 341.027 361.738C341.049 362.223 340.944 362.705 340.721 363.135C340.251 363.99 339.566 364.707 338.734 365.215C335.974 367.055 332.956 368.361 329.736 367.505" fill="#01BF7B"/>
<path d="M325.992 379.484C326.001 379.218 326.032 378.953 326.084 378.692C326.166 378.131 326.277 377.404 326.415 376.53C326.702 374.132 327.376 371.795 328.411 369.612C329.49 367.427 331.132 365.57 333.168 364.23C333.789 363.848 334.453 363.539 335.146 363.31C335.335 363.244 335.529 363.188 335.725 363.144C335.854 363.144 335.928 363.098 335.928 363.144C335.002 363.493 334.115 363.934 333.278 364.46C331.316 365.822 329.733 367.662 328.678 369.805C327.657 371.966 326.963 374.267 326.617 376.632C326.452 377.552 326.314 378.269 326.203 378.775C326.155 379.018 326.084 379.255 325.992 379.484Z" fill="black"/>
<path d="M325.072 345.858C325.085 345.974 325.085 346.091 325.072 346.207C325.072 346.465 325.127 346.796 325.164 347.201C325.237 348.066 325.329 349.317 325.43 350.881C325.624 353.972 325.835 358.241 325.964 362.979C326.093 367.717 326.102 371.986 326.074 375.086C326.074 376.632 326.074 377.892 326.01 378.766C326.01 379.171 326.01 379.502 326.01 379.76C326.022 379.876 326.022 379.993 326.01 380.109C326.01 380.109 326.01 379.99 326.01 379.76C326.01 379.53 326.01 379.171 326.01 378.766C326.01 377.846 326.01 376.613 326.01 375.086C326.01 371.986 325.946 367.726 325.817 362.988C325.688 358.25 325.513 353.981 325.366 350.89C325.292 349.372 325.237 348.13 325.191 347.21C325.191 346.796 325.191 346.465 325.191 346.207C325.141 346.095 325.101 345.978 325.072 345.858Z" fill="black"/>
<path d="M324.244 370.035C323.778 367.706 322.764 365.522 321.285 363.663C319.807 361.803 317.907 360.323 315.743 359.345C314.639 358.857 313.213 358.563 312.339 359.4C311.465 360.237 311.713 361.682 312.192 362.795C313.217 365.095 314.899 367.04 317.027 368.386C319.156 369.731 321.634 370.417 324.152 370.357" fill="#01BF7B"/>
<path d="M316.387 362.997C316.628 363.068 316.862 363.16 317.086 363.273C317.357 363.39 317.621 363.522 317.877 363.669C318.224 363.848 318.562 364.045 318.889 364.258C319.248 364.497 319.653 364.755 320.048 365.077C320.444 365.399 320.867 365.748 321.3 366.135C322.201 367.004 323 367.973 323.682 369.023C324.351 370.079 324.895 371.209 325.302 372.391C325.478 372.909 325.623 373.437 325.734 373.973C325.843 374.433 325.923 374.901 325.973 375.371C326.024 375.762 326.054 376.155 326.065 376.549C326.09 376.855 326.09 377.163 326.065 377.469C326.071 377.719 326.053 377.968 326.01 378.214C325.946 378.214 326.01 377.138 325.78 375.454C325.706 375.031 325.642 374.534 325.513 374.083C325.384 373.633 325.237 373.071 325.062 372.538C324.647 371.377 324.104 370.266 323.443 369.226C322.769 368.199 321.989 367.246 321.116 366.383C320.733 366.006 320.331 365.65 319.91 365.316C319.524 364.985 319.128 364.727 318.779 364.479C317.353 363.467 316.359 363.08 316.387 362.997Z" fill="black"/>
<path d="M49.734 356.64C50.5804 353.347 48.4184 350.044 46.054 347.652C43.6896 345.26 40.7364 343.125 39.4852 339.97C37.4428 334.855 40.1844 328.24 36.7252 323.971C34.6 321.496 30.92 320.659 29.126 318C28.2873 316.518 27.732 314.892 27.4884 313.207C25.5566 304.708 21.3748 296.885 15.3812 290.557C14.9782 298.129 16.6211 305.67 20.1376 312.388C21.5452 315.075 23.2748 317.687 23.744 320.668C24.4984 325.535 21.7844 330.54 22.9804 335.315C24.342 340.779 30.4784 344.432 30.7728 350.035C31.012 354.782 26.872 358.959 27.1848 363.706C27.4331 365.722 28.155 367.652 29.2916 369.336C32.9716 375.445 38.3628 379.649 46.5508 379.511L56.5696 379.861L49.734 356.64Z" fill="#01BF7B"/>
<g opacity="0.3">
<path d="M49.734 356.64C50.5804 353.347 48.4184 350.044 46.054 347.652C43.6896 345.26 40.7364 343.125 39.4852 339.97C37.4428 334.855 40.1844 328.24 36.7252 323.971C34.6 321.496 30.92 320.659 29.126 318C28.2873 316.518 27.732 314.892 27.4884 313.207C25.5566 304.708 21.3748 296.885 15.3812 290.557C14.9782 298.129 16.6211 305.67 20.1376 312.388C21.5452 315.075 23.2748 317.687 23.744 320.668C24.4984 325.535 21.7844 330.54 22.9804 335.315C24.342 340.779 30.4784 344.432 30.7728 350.035C31.012 354.782 26.872 358.959 27.1848 363.706C27.4331 365.722 28.155 367.652 29.2916 369.336C32.9716 375.445 38.3628 379.649 46.5508 379.511L56.5696 379.861L49.734 356.64Z" fill="black"/>
</g>
<path d="M58.5936 380.128C59.51 380.267 60.4435 380.249 61.3536 380.072C62.4636 379.903 63.5544 379.626 64.6104 379.244C66.0669 378.742 67.429 377.998 68.64 377.046C69.3701 376.462 69.9399 375.702 70.296 374.838C70.5961 373.869 70.7542 372.862 70.7652 371.848C70.7828 370.764 70.8627 369.683 71.0044 368.609C71.1949 367.465 71.6108 366.371 72.228 365.389C73.4056 363.31 75.3652 361.341 76 358.526C76.6348 355.711 76.1932 352.758 75.724 349.749C75.2548 346.741 74.804 343.466 75.9632 340.328C77.1224 337.191 79.2384 334.367 80.3332 330.834C81.428 327.301 80.9128 323.428 81.152 319.647C81.2204 317.725 81.6609 315.835 82.4492 314.081C83.268 312.314 84.3904 310.64 85.2644 308.772C87.0492 305 87.362 300.722 87.8496 296.527C88.0827 294.411 88.3219 292.265 88.5672 290.087C88.7148 287.908 89.0879 285.75 89.6804 283.647C90.3563 281.535 91.155 279.465 92.0724 277.446C92.5495 276.401 92.9403 275.318 93.2408 274.208C93.4065 273.067 93.514 271.919 93.5628 270.767C93.6714 268.452 93.5821 266.131 93.296 263.83C93.02 261.521 92.606 259.23 92.376 256.912C92.376 256.774 92.376 256.636 92.376 256.507L92.3208 256.047L91.916 256.25C89.7896 257.332 87.9415 258.89 86.5156 260.804C85.1282 262.673 84.0131 264.73 83.2036 266.912C81.5292 271.218 80.9312 275.726 80.0848 280.032C79.2384 284.337 78.1804 288.569 75.9724 292.148C74.8684 293.933 73.5436 295.561 72.3752 297.309C71.1359 299.004 70.2875 300.952 69.8912 303.013C69.3024 307.254 71.6392 310.98 71.1516 314.725C70.9161 316.572 70.2888 318.347 69.3116 319.932C68.3916 321.533 67.3336 323.014 66.3216 324.532C65.2884 325.982 64.3863 327.522 63.626 329.132C62.9209 330.72 62.5064 332.421 62.4024 334.155C62.154 337.532 62.6324 340.733 62.4024 343.76C62.1052 346.662 61.2359 349.476 59.8448 352.04C58.6396 354.506 57.2872 356.741 56.1648 358.903C55.6036 359.98 55.0792 361.038 54.6468 362.096C54.2275 363.115 53.919 364.176 53.7268 365.26C53.4236 367.154 53.3988 369.082 53.6532 370.983C53.9138 373.63 54.9044 376.152 56.5144 378.269C56.7574 378.599 57.0283 378.906 57.324 379.189C57.524 379.397 57.7461 379.582 57.9864 379.741C58.3544 380.017 58.5568 380.146 58.5568 380.146C57.8628 379.569 57.2335 378.918 56.68 378.205C55.1157 376.089 54.1611 373.585 53.92 370.964C53.6903 369.088 53.7337 367.189 54.0488 365.325C54.243 364.264 54.5514 363.228 54.9688 362.234C55.392 361.203 55.8888 360.154 56.496 359.087C57.6368 356.944 58.9984 354.726 60.2312 352.242C61.6275 349.644 62.4996 346.796 62.798 343.861C63.0556 340.77 62.5956 337.559 62.844 334.256C62.9529 332.579 63.3578 330.935 64.04 329.399C64.7831 327.81 65.6733 326.295 66.6988 324.872C67.7108 323.391 68.7872 321.901 69.7256 320.272C70.7423 318.627 71.3948 316.782 71.6392 314.863C72.1176 310.861 69.7992 307.116 70.4064 303.179C70.7925 301.202 71.6126 299.335 72.8076 297.714C73.9484 296.003 75.2916 294.374 76.414 292.544C78.6956 288.864 79.7996 284.549 80.6276 280.225C81.4556 275.901 82.0812 271.43 83.728 267.216C84.5151 265.091 85.6025 263.09 86.9572 261.273C88.3178 259.434 90.088 257.938 92.1276 256.903L91.6584 256.645C91.6584 256.774 91.6584 256.912 91.6584 257.05C91.916 259.396 92.33 261.696 92.5784 263.978C92.8641 266.244 92.9534 268.531 92.8452 270.813C92.8013 271.931 92.7 273.046 92.5416 274.153C92.2484 275.22 91.8731 276.263 91.4192 277.272C90.4874 279.313 89.6794 281.408 88.9996 283.546C88.3993 285.673 88.0201 287.855 87.868 290.06C87.6288 292.212 87.3988 294.356 87.1596 296.5C86.6812 300.713 86.3684 304.918 84.6572 308.57C83.8108 310.41 82.6884 312.057 81.8972 313.888C81.0847 315.707 80.6287 317.665 80.554 319.656C80.3332 323.52 80.8392 327.301 79.7904 330.696C78.7416 334.091 76.5704 336.943 75.4664 340.181C74.3624 343.42 74.7764 346.833 75.2548 349.823C75.7332 352.813 76.2208 355.775 75.5768 358.443C74.9328 361.111 73.0928 363.043 71.8968 365.214C71.2698 366.252 70.851 367.402 70.664 368.6C70.5326 369.69 70.462 370.787 70.4524 371.884C70.4517 372.869 70.306 373.849 70.02 374.792C69.6808 375.605 69.1469 376.322 68.4652 376.88C67.2903 377.831 65.966 378.58 64.546 379.097C63.5046 379.486 62.4299 379.778 61.3352 379.971C60.6606 380.09 59.9777 380.154 59.2928 380.164C58.8328 380.118 58.5936 380.128 58.5936 380.128Z" fill="black"/>
<path d="M90.2508 262.092C90.2109 262.19 90.1801 262.291 90.1588 262.395C90.0944 262.634 90.0208 262.929 89.938 263.315C89.7356 264.106 89.5056 265.293 89.1284 266.784C88.7512 268.274 87.822 269.948 87.0492 272.018C86.2764 274.088 85.4208 276.453 84.6664 279.121C83.912 281.789 83.222 284.76 82.5136 287.944C81.9085 291.338 80.8276 294.631 79.3028 297.723C78.484 299.352 77.564 300.998 76.828 302.802C76.1071 304.65 75.6218 306.582 75.3836 308.552C74.8872 312.623 74.1716 316.665 73.24 320.659L67.582 343.806C65.7972 350.908 64.1872 357.302 62.8256 362.694C61.464 368.085 60.4428 372.372 59.6792 375.436C59.3296 376.898 59.0628 378.067 58.8604 378.904C58.7776 379.272 58.7132 379.576 58.658 379.824C58.6477 379.928 58.6477 380.033 58.658 380.137C58.7045 380.043 58.7414 379.944 58.7684 379.842C58.842 379.603 58.9248 379.309 59.026 378.922C59.256 378.085 59.5688 376.935 59.946 375.482C60.7464 372.427 61.8872 368.122 63.2856 362.786C64.684 357.45 66.34 351.019 68.1708 343.935C70.0016 336.851 71.8508 328.994 73.8932 320.778C74.8112 316.768 75.5144 312.711 76 308.625C76.223 306.703 76.6898 304.817 77.3892 303.013C78.0976 301.256 79.0084 299.618 79.8272 297.972C81.5936 294.706 82.3204 291.2 83.0288 288.036C83.7372 284.871 84.3628 281.89 85.0896 279.222C85.8164 276.554 86.5984 274.18 87.3712 272.129C88.144 270.077 88.9904 268.366 89.3584 266.83C89.7264 265.293 89.892 264.125 90.0576 263.324C90.122 262.947 90.168 262.653 90.214 262.404C90.2386 262.302 90.2509 262.197 90.2508 262.092Z" fill="black"/>
<path d="M60.36 380.155C66.9104 376.273 68.7872 364.46 66.0548 357.358C63.3224 350.255 58.5476 343.751 57.7748 336.198C57.2044 330.365 59.118 324.394 57.7748 318.718C55.9348 311.036 48.446 305.083 48.5748 297.18C48.63 292.755 51.1508 288.578 50.9484 284.153C50.7 278.725 46.5324 274.42 43.9472 269.636C40.0004 262.276 39.7428 253.655 38.4272 245.449C37.1116 237.242 33.9468 228.438 26.6696 224.408C25.5932 231.373 23.7624 236.148 24.3328 245.568C24.5444 248.954 28.482 255.449 29.0156 262.883C29.3376 267.326 29.5584 271.77 29.8344 276.214C30.1104 280.657 30.3772 284.944 31.932 288.992C33.1188 292.093 35.0232 294.917 35.9064 298.119C37.5716 304.136 35.382 310.668 36.7252 316.767C37.866 321.938 41.4448 326.39 42.1716 331.634C43.202 338.994 38.4272 346.649 40.8744 353.714C42.0796 357.201 44.95 359.998 45.7688 363.604C46.3944 366.364 45.7044 369.354 46.284 372.16C47.204 376.678 55.8244 380.192 60.4336 379.907" fill="#01BF7B"/>
<path d="M28.4084 231.29C28.3961 231.422 28.3961 231.554 28.4084 231.686C28.4084 231.98 28.5004 232.357 28.5556 232.826C28.712 233.838 28.8776 235.31 29.218 237.224C29.5584 239.138 30.5704 241.309 31.3616 243.922C32.1528 246.534 33.0268 249.524 33.7628 252.882C34.4988 256.24 35.1336 259.957 35.796 263.922C36.4584 267.888 37.1668 272.276 39.1448 276.444C40.0648 278.532 41.0952 280.63 41.9048 282.884C42.6594 285.175 43.123 287.552 43.2848 289.958C43.6502 295.071 44.2921 300.16 45.2076 305.203C47.204 315.525 49.1176 325.369 50.8564 334.321L55.76 358.048C57.1676 364.764 58.3084 370.21 59.0996 374.028C59.5044 375.868 59.8172 377.331 60.0196 378.361C60.13 378.83 60.2128 379.198 60.2864 379.484C60.36 379.769 60.3784 379.87 60.3968 379.861C60.3916 379.731 60.3762 379.602 60.3508 379.474C60.2956 379.18 60.2312 378.803 60.1484 378.334C59.9552 377.294 59.6792 375.831 59.3296 373.973C58.5752 370.146 57.4896 364.69 56.1924 357.956C54.8952 351.221 53.2392 343.144 51.4544 334.21C49.6696 325.277 47.8112 315.424 45.8332 305.12C44.9182 300.092 44.2733 295.019 43.9012 289.922C43.7286 287.467 43.2495 285.044 42.4752 282.709C41.6748 280.436 40.6352 278.33 39.7152 276.269C37.7464 272.166 37.0472 267.878 36.348 263.895C35.6488 259.911 35.014 256.176 34.232 252.809C33.5501 249.778 32.7149 246.785 31.7296 243.839C30.9016 241.217 29.8896 239.073 29.4848 237.196C29.08 235.32 28.9052 233.829 28.712 232.836C28.6292 232.366 28.5556 231.989 28.5004 231.704C28.4873 231.563 28.4564 231.424 28.4084 231.29Z" fill="black"/>
<path d="M231.48 379.852H103.444C87.9692 379.787 74.9236 366.594 74.9236 351.12L76.2852 28.6508C76.3008 24.9629 77.0442 21.3144 78.4728 17.9145C79.9013 14.5145 81.9869 11.4299 84.61 8.83765C87.2331 6.24535 90.342 4.19629 93.7586 2.80796C97.1752 1.41962 100.832 0.71932 104.52 0.7472L233.145 1.3452C236.824 1.36087 240.463 2.10107 243.855 3.52352C247.248 4.94596 250.326 7.02279 252.916 9.63536C255.505 12.2479 257.555 15.3451 258.947 18.7499C260.339 22.1546 261.047 25.8004 261.03 29.4788L259.669 351.957C259.653 355.641 258.911 359.285 257.485 362.681C256.06 366.078 253.978 369.16 251.36 371.751C248.741 374.342 245.638 376.391 242.227 377.781C238.815 379.171 235.163 379.875 231.48 379.852Z" fill="black"/>
<path d="M233.2 13.5996L208.259 13.48C206.618 13.5114 205.056 14.1925 203.916 15.3739C202.776 16.5553 202.151 18.1405 202.178 19.782V24.3084C202.205 25.9499 201.58 27.5351 200.44 28.7165C199.3 29.8979 197.738 30.579 196.097 30.6104L147.484 30.3896C146.671 30.3681 145.87 30.1867 145.127 29.8555C144.384 29.5244 143.713 29.05 143.154 28.4597C142.594 27.8693 142.156 27.1744 141.865 26.4148C141.574 25.6551 141.436 24.8456 141.458 24.0324V19.506C141.5 17.8629 140.888 16.2702 139.756 15.0782C138.625 13.8861 137.066 13.1922 135.423 13.1488H126.655L104.824 13.0476C102.247 13.0367 99.6926 13.5335 97.3076 14.5096C94.9226 15.4857 92.7532 16.9221 90.9233 18.7366C89.0934 20.5512 87.6388 22.7084 86.6426 25.085C85.6464 27.4617 85.128 30.0114 85.1172 32.5884L83.7832 347.348C83.7711 349.925 84.2667 352.478 85.2419 354.863C86.217 357.248 87.6524 359.418 89.4662 361.248C91.28 363.078 93.4366 364.533 95.8128 365.529C98.189 366.525 100.738 367.044 103.315 367.054L231.682 367.643C234.26 367.657 236.816 367.161 239.203 366.186C241.589 365.211 243.76 363.775 245.591 361.96C247.422 360.145 248.878 357.987 249.874 355.609C250.871 353.231 251.388 350.681 251.398 348.102L252.732 33.306C252.754 28.1031 250.709 23.1044 247.046 19.409C243.384 15.7135 238.403 13.6239 233.2 13.5996Z" fill="#282828"/>
<path d="M178.718 308.119C178.571 311.919 178.433 315.479 178.313 318.451H196.713L194.459 307.126L178.718 308.119Z" fill="#282828"/>
<path d="M103.775 312.857L103.931 318.451H176.473C176.593 315.314 176.731 311.827 176.869 308.239L103.775 312.857Z" fill="#282828"/>
<path d="M195.425 307.061L197.688 318.451H231.692L231.278 304.798L195.425 307.061Z" fill="#282828"/>
<path d="M180.558 147.91L186.989 110.641L170.153 109.39V147.91H180.558Z" fill="#282828"/>
<path d="M102.257 292.166L83.9856 299.324L83.9304 312.268L102.8 311.082L102.257 292.166Z" fill="#282828"/>
<path d="M102.174 289.259L101.171 254.548H101.162V242.312L84.2156 244.106L83.9948 296.362L102.165 289.241L102.174 289.259Z" fill="#282828"/>
<path d="M101.162 214.978L84.3536 212.761L84.234 241.327L101.162 239.533V214.978Z" fill="#282828"/>
<path d="M226.457 242.827L225.748 252.772L205.895 254.916L207.431 262.782L229.962 261.08L229.631 249.8L231.425 242.321L226.457 242.827Z" fill="#282828"/>
<path d="M190.669 264.042L206.502 262.855L203.052 245.182L189.234 246.58L190.669 264.042Z" fill="#282828"/>
<path d="M190.825 265.882L192.03 280.611L194.183 300.824L195.057 305.24L231.222 302.958L230.017 262.929L190.825 265.882Z" fill="#282828"/>
<path d="M128.578 196.321L129.967 198.713L102.082 214.96V253.6L131.522 251.521L188.24 245.752L186.17 220.48L131.973 213.396L132.332 210.636L185.94 217.637L182.426 174.83L129.36 179.945L129.185 178.105L182.269 172.999L180.429 150.661H129.36L84.5836 158.84L84.3628 209.983L101.337 212.2L128.578 196.321ZM104.934 249.92C104.934 249.92 105.146 218.097 104.934 216.91L127.695 204.803L130.648 248.292L104.934 249.92Z" fill="#282828"/>
<path d="M224.589 243.011L203.972 245.09L205.536 253.103L224.019 251.107L224.589 243.011Z" fill="#282828"/>
<path d="M178.976 301.302C178.911 302.976 178.847 304.642 178.792 306.27L194.137 305.304L193.346 301.339L178.976 301.302Z" fill="#282828"/>
<path d="M145.92 147.91L148.625 135.656H169.233V109.326L104.805 104.551V129.271L84.6848 133.825L84.5928 156.025L129.148 147.91H145.92Z" fill="#282828"/>
<path d="M188.912 74.6508L188.36 72.3968L212.96 62.6632L196.962 30.5368C196.657 30.5861 196.35 30.6107 196.042 30.6104L168.92 30.4816L169.656 75.442L188.912 74.6508Z" fill="#282828"/>
<path d="M226.19 57.4284V13.5628L208.259 13.48C206.618 13.5114 205.056 14.1925 203.916 15.3739C202.776 16.5553 202.151 18.1405 202.178 19.782V24.3084C202.177 25.3191 201.939 26.3154 201.482 27.2168C201.025 28.1183 200.362 28.8994 199.547 29.4972L215.555 61.642L226.19 57.4284Z" fill="#282828"/>
<path d="M133.712 59.3052L131.632 13.1304H126.655L107.197 13.0384L98.9172 54.3372L133.712 59.3052ZM129.277 17.804L129.94 55.4136L104.078 51.6324L109.736 17.804H129.277Z" fill="#282828"/>
<path d="M134.65 59.48V59.8756C134.65 63.4728 134.76 69.9956 134.816 76.8956L168.699 75.5156L168 30.4816L147.493 30.3896C146.68 30.3681 145.879 30.1867 145.136 29.8555C144.393 29.5244 143.723 29.05 143.163 28.4597C142.603 27.8693 142.165 27.1744 141.875 26.4148C141.584 25.6551 141.445 24.8456 141.467 24.0324V19.506C141.509 17.8629 140.897 16.2702 139.765 15.0782C138.634 13.8861 137.075 13.1922 135.432 13.1488H132.571L134.641 59.48H134.65Z" fill="#282828"/>
<path d="M96.1756 53.96L104.382 13.0752C99.2567 13.1618 94.3694 15.2532 90.7681 18.901C87.1667 22.5488 85.1381 27.4624 85.1172 32.5884L85.0252 52.9756L85.1172 52.3776L96.1756 53.96Z" fill="#282828"/>
<path d="M102.045 104.348L84.8136 103.07L84.694 130.992L102.045 127.072V104.348Z" fill="#282828"/>
<path d="M95.9916 54.8248L85.0252 53.2516L84.832 98.4604L87.1964 98.6352L95.9916 54.8248Z" fill="#282828"/>
<path d="M130.795 288.735L131.09 252.432L102.091 254.483L103.122 290.041L130.795 288.735Z" fill="#282828"/>
<path d="M136.131 280.354L177.2 300.023C177.697 287.143 178.12 275.183 178.12 274.383H179.04L179.482 273.518C180.061 273.812 180.061 273.812 179.758 282.571C179.583 287.456 179.344 293.96 179.095 300.474H193.208L191.12 280.749L188.36 246.709L134.714 252.119L136.131 280.354Z" fill="#282828"/>
<path d="M236.77 220.112L236.301 215.328L187.09 220.443L189.16 245.66L231.655 241.373L236.77 220.112Z" fill="#282828"/>
<path d="M169.233 138.416H150.842L148.744 147.91H169.233V138.416Z" fill="#282828"/>
<path d="M229.171 141.618L183.125 138.434L181.285 149.309L183.226 172.916L231.784 168.252L229.171 141.618ZM184.818 149.29L187.292 142.427L227.285 144.957L229.64 164.59L186.216 169.742L184.818 149.29Z" fill="#282828"/>
<path d="M233.946 190.957L231.922 170.082L183.336 174.756L185.167 196.974L233.946 190.957Z" fill="#282828"/>
<path d="M102.855 312.922L84.004 314.108L83.9304 312.885L83.9028 318.451H103.011L102.855 312.922Z" fill="#282828"/>
<path d="M252.392 47.06L252.668 47.7592L252.732 33.306C252.754 28.1031 250.709 23.1044 247.046 19.409C243.384 15.7136 238.403 13.624 233.2 13.5996H227.082V57.088L252.392 47.06Z" fill="#282828"/>
<path d="M177.145 301.026L135.239 280.952L133.758 252.174L132.01 252.358L131.706 289.609L103.14 290.961V291.798L103.692 310.999L176.915 306.399C177.007 304.605 177.08 302.811 177.145 301.026ZM104.934 293.335L144.917 290.529L170.926 302.599L104.934 306.169V293.335Z" fill="#282828"/>
<path d="M240.478 95.36L242.198 85.24C227.165 79.8764 226.126 64.1996 226.172 59.48L216.355 63.3624L231.13 93.014L240.478 95.36Z" fill="#282828"/>
<path d="M186.86 217.692L207.293 215.567L203.273 197.517L185.388 199.725L186.86 217.692Z" fill="#282828"/>
<path d="M229.235 110.954L191.074 110.945L187.909 110.706L183.594 135.702L228.895 138.83L227.846 127.965L232.308 111.92L229.235 110.954Z" fill="#282828"/>
<path d="M228.306 106.4L228.784 94.44L213.788 64.3284L190.531 73.5284L198.526 106.4H228.306ZM212.878 68.0268L226.622 94.1732L224.635 102.315L201.12 101.395L195.241 76.6656L212.878 68.0268Z" fill="#282828"/>
<path d="M234.24 250.279L234.948 273.702L251.481 272.773L251.536 273.693L234.976 274.622L235.813 302.664L251.453 301.679L251.564 303.51L235.868 304.504L236.292 318.451H251.527L251.858 240.26L236.273 241.833L234.24 250.279Z" fill="#282828"/>
<path d="M133.739 60.2436L98.724 55.2112L89.9656 98.8376L133.896 102.094C134.07 95.36 133.96 74.7796 133.739 60.2436Z" fill="#282828"/>
<path d="M191.331 106.354H196.63L189.132 75.5616L169.647 76.362L170.116 104.781L191.331 106.354Z" fill="#282828"/>
<path d="M134.788 102.159L169.187 104.707L168.727 76.3988L134.88 77.7788C134.88 87.356 134.935 97.568 134.788 102.159Z" fill="#282828"/>
<path d="M234.212 193.708L204.184 197.406L208.222 215.475L236.034 212.577L234.212 193.708Z" fill="#282828"/>
<path d="M242.354 84.32L244.277 72.9028L252.557 73.5468L252.668 48.9736L227.101 59.0936C226.576 76.3344 237.442 82.4156 242.354 84.32Z" fill="#282828"/>
<path d="M232.51 128.379L233.55 139.152L252.281 140.449L252.373 118.259L236.696 113.3L232.51 128.379Z" fill="#282828"/>
<path d="M241.416 220.48L236.503 240.932L251.858 239.377L251.95 217.941C247.24 216.699 243.127 215.687 240.91 215.254L241.416 220.48Z" fill="#282828"/>
<path d="M231.057 106.694L252.392 113.438L252.447 101.303L231.489 95.8844L231.057 106.694Z" fill="#282828"/>
<path d="M240.68 212.402C242.4 212.66 245.657 213.322 251.996 215.024L252.198 168.104L236.558 169.613L240.68 212.402Z" fill="#282828"/>
<path d="M236.328 167.81L252.171 166.283L252.263 143.218L233.817 141.94L236.328 167.81Z" fill="#282828"/>
<path d="M244.121 84.8536C247.12 85.7613 249.914 86.4728 252.502 86.988V75.35L245.758 74.8256L244.121 84.8536Z" fill="#282828"/>
<path d="M242.272 95.82L252.456 98.4604L252.502 87.9356C249.862 87.4112 246.982 86.6936 243.964 85.7644L242.272 95.82Z" fill="#282828"/>
<path d="M251.564 303.51L251.453 301.67L235.813 302.654L234.976 274.613L251.536 273.693L251.481 272.773L234.921 273.693L234.24 250.279L236.273 241.833L251.858 240.26V239.34L236.503 240.895L241.416 220.48L240.91 215.254C243.127 215.687 247.24 216.699 251.95 217.941V215.07C245.611 213.405 242.354 212.706 240.634 212.448L236.494 169.687L252.134 168.178V166.338L236.292 167.865L233.78 141.995L252.18 143.274V140.514L233.449 139.216L232.409 128.443L236.595 113.364L252.235 118.323V113.502L230.9 106.768L231.333 95.9488L252.29 101.368V98.5248L242.106 95.8844L243.799 85.8288C246.853 86.7488 249.696 87.4756 252.336 88V87.08C249.748 86.5648 246.954 85.8533 243.955 84.9456L245.639 74.9176L252.382 75.442V73.602L244.102 72.958L242.354 84.32C237.442 82.48 226.576 76.3804 227.101 59.0936L252.668 48.9736V47.8052L252.392 47.106L227.11 57.1064V13.618H226.19V57.4836L215.536 61.6972L199.528 29.5524C198.769 30.1 197.888 30.4566 196.962 30.592L212.96 62.7184L188.36 72.36L188.912 74.614L169.592 75.4052L168.92 30.4816H168L168.736 75.4788L134.852 76.8588C134.797 69.922 134.724 63.436 134.687 59.8388V59.48L132.608 13.1672H131.688L133.767 59.342L98.9632 54.3464L107.243 13.0476H104.87C104.722 13.0476 104.575 13.0476 104.428 13.0476L96.1756 53.96L85.1356 52.3776L85.0436 52.9756V53.2976L96.01 54.8708L87.2148 98.6812L84.8504 98.5064V103.106L102.082 104.385V127.109L84.7308 131.028V133.862L104.851 129.308V104.56L169.251 109.335V135.656H148.643L145.92 147.91H129.148L84.5928 156.016V158.84L129.36 150.67H180.402L182.242 173.008L129.185 178.16L129.36 180L182.426 174.894L185.94 217.702L132.332 210.7L131.973 213.46L186.17 220.544L188.24 245.752L131.504 251.484L102.064 253.563V214.96L129.949 198.694L128.56 196.302L101.337 212.2L84.3628 209.955V212.715L101.162 214.96V239.515L84.234 241.355V244.115L101.18 242.275V254.52L102.183 289.232L84.0132 296.352V299.315L102.284 292.157L102.827 311.072L83.958 312.259V312.876L84.0316 314.099L102.882 312.912L103.039 318.432H103.959L103.802 312.839L176.896 308.239C176.758 311.827 176.62 315.314 176.501 318.451H178.341C178.46 315.488 178.598 311.919 178.746 308.119L194.524 307.126L196.778 318.451H197.698L195.434 307.061L231.314 304.798L231.728 318.451H236.328M178.828 306.27C178.884 304.642 178.948 302.976 179.012 301.302H193.383L194.174 305.267L178.828 306.27ZM195.094 305.24L194.174 300.824L192.03 280.584L190.825 265.864L230.017 262.91L231.222 302.94L195.094 305.24ZM204.009 245.09L224.635 243.011L224.056 251.107L205.573 253.103L204.009 245.09ZM203.089 245.182L206.539 262.855L190.706 264.042L189.27 246.562L203.089 245.182ZM229.999 261.089L207.431 262.8L205.895 254.934L225.748 252.79L226.448 242.845L231.425 242.339L229.64 249.8L229.999 261.089ZM203.319 197.517L207.339 215.567L186.86 217.72L185.388 199.752L203.319 197.517ZM208.268 215.475L204.23 197.406L234.258 193.726L236.098 212.596L208.268 215.475ZM228.941 138.83L183.64 135.702L187.955 110.706L191.12 110.945H229.29L232.308 111.92L227.846 127.965L228.941 138.83ZM226.181 59.4156C226.135 64.1536 227.174 79.8304 242.207 85.1756L240.478 95.36L231.13 92.9496L216.355 63.298L226.181 59.4156ZM213.798 64.31L228.784 94.44L228.306 106.4H198.526L190.531 73.5652L213.798 64.31ZM189.16 75.5616L196.63 106.4H191.331L170.116 104.827L169.647 76.408L189.16 75.5616ZM168.754 76.3988L169.214 104.707L134.816 102.159C134.963 97.5588 134.935 87.356 134.816 77.7788L168.754 76.3988ZM98.7516 55.2388L133.767 60.2712C133.942 74.8072 134.098 95.406 133.923 102.122L89.9932 98.8652L98.7516 55.2388ZM187.016 110.669L180.576 147.938H170.153V109.39L187.016 110.669ZM150.842 138.416H169.242V147.91H148.744L150.842 138.416ZM181.248 149.309L183.088 138.434L229.134 141.618L231.71 168.252L183.152 172.916L181.248 149.309ZM231.922 170.082L233.946 190.957L185.186 196.974L183.346 174.756L231.922 170.082ZM187.09 220.48L236.301 215.365L236.77 220.149L231.655 241.41L189.16 245.66L187.09 220.48ZM191.12 280.74L193.208 300.465H179.04C179.288 293.951 179.528 287.447 179.702 282.562C180.006 273.803 180.006 273.803 179.426 273.509L178.985 274.374H178.065C178.065 275.137 177.669 287.162 177.145 300.014L136.094 280.344L134.641 252.073L188.286 246.663L191.12 280.74ZM131.08 252.468L130.795 288.772L103.122 290.078L102.091 254.52L131.08 252.468ZM103.168 291.854V291.016L131.734 289.664L132.037 252.413L133.785 252.229L135.266 281.007L177.172 301.081C177.108 302.866 177.034 304.66 176.97 306.445L103.747 311.045L103.168 291.854Z" fill="#606060"/>
<path d="M144.917 290.529L104.934 293.335V306.169L170.935 302.59L144.917 290.529Z" fill="#7C7C7C"/>
<path d="M227.285 144.957L187.292 142.427L184.818 149.29L186.17 169.742L229.594 164.59L227.285 144.957Z" fill="#282828"/>
<path d="M83.9028 306.27L83.8108 340.844V347.891C83.9375 352.988 86.0451 357.835 89.6863 361.404C93.3276 364.974 98.2161 366.984 103.315 367.008L231.682 367.597C234.261 367.611 236.816 367.115 239.203 366.14C241.589 365.165 243.76 363.729 245.591 361.914C247.422 360.099 248.878 357.941 249.874 355.563C250.871 353.186 251.388 350.635 251.398 348.056L251.527 306.27H83.9028Z" fill="#0B0B0B"/>
<path d="M129.94 55.4136L129.277 17.804H109.746L104.078 51.6324L129.94 55.4136Z" fill="#7C7C7C"/>
<path d="M224.635 102.269L226.622 94.1272L212.878 67.9808L195.241 76.6564L201.12 101.386L224.635 102.269Z" fill="#282828"/>
<path d="M104.934 216.874C105.146 218.06 104.934 249.883 104.934 249.883L130.694 248.255L127.741 204.766L104.934 216.874Z" fill="#282828"/>
<path d="M190.678 242.716L189.316 222.992L233.412 217.324V220.728L228.076 238.862L190.678 242.716Z" fill="#7C7C7C"/>
<path d="M231.784 292.948L231.232 280.068L192.472 281.908C191.456 281.958 190.445 281.742 189.537 281.283L134.567 253.6C133.941 253.283 133.41 252.807 133.027 252.219C132.644 251.631 132.423 250.952 132.387 250.251L124.907 105.14C124.891 104.799 124.948 104.459 125.073 104.142C125.198 103.824 125.39 103.537 125.634 103.3C125.877 103.065 126.166 102.883 126.482 102.766C126.799 102.649 127.137 102.599 127.474 102.619L151.026 104.367V78.6068H153.786V104.716C153.788 105.051 153.72 105.383 153.587 105.69C153.454 105.997 153.258 106.273 153.013 106.501C152.767 106.729 152.477 106.904 152.16 107.014C151.844 107.125 151.508 107.17 151.173 107.145L127.63 105.397L135.101 250.141C135.112 250.355 135.179 250.563 135.295 250.744C135.411 250.925 135.573 251.072 135.763 251.171L190.742 278.928C191.219 279.174 191.752 279.288 192.288 279.259L231.37 277.364C231.692 277.345 232.014 277.392 232.317 277.501C232.621 277.61 232.899 277.779 233.136 277.998C233.373 278.214 233.565 278.475 233.701 278.766C233.837 279.056 233.914 279.371 233.927 279.691L234.488 292.875L231.784 292.948Z" fill="#606060"/>
<path d="M232.943 294.917L232.28 279.848C232.276 279.74 232.25 279.635 232.204 279.537C232.159 279.439 232.094 279.352 232.015 279.279C231.935 279.207 231.842 279.15 231.741 279.114C231.64 279.077 231.532 279.061 231.425 279.066L191 281.2L186.133 219.891L179.96 149.272V149.208L186.869 111.488C186.994 110.8 187.356 110.177 187.892 109.728C188.428 109.28 189.105 109.033 189.804 109.031L226.355 108.912C227.019 108.911 227.657 108.657 228.141 108.203C228.625 107.748 228.917 107.127 228.959 106.465L229.585 96.3445C229.665 95.0509 229.411 93.7585 228.849 92.5909L214.57 62.8013L215.408 62.4057L229.686 92.1953C230.314 93.5069 230.596 94.9575 230.505 96.4089L229.879 106.529C229.819 107.423 229.421 108.261 228.767 108.874C228.114 109.487 227.252 109.829 226.355 109.832L189.804 109.951C189.319 109.95 188.849 110.121 188.477 110.432C188.105 110.743 187.855 111.176 187.771 111.653L180.88 149.309L186.961 219.781L191.764 280.207L231.323 278.155C231.551 278.139 231.78 278.17 231.995 278.246C232.21 278.322 232.408 278.441 232.575 278.597C232.746 278.749 232.885 278.934 232.983 279.141C233.081 279.348 233.136 279.573 233.145 279.802L233.807 294.881L232.943 294.917Z" fill="white"/>
<path d="M235.454 293.694C235.456 294.149 235.323 294.595 235.071 294.975C234.819 295.355 234.459 295.651 234.039 295.826C233.618 296.001 233.155 296.048 232.708 295.959C232.261 295.871 231.85 295.651 231.528 295.329C231.206 295.007 230.987 294.596 230.898 294.149C230.81 293.702 230.856 293.239 231.031 292.818C231.206 292.398 231.503 292.039 231.882 291.787C232.262 291.535 232.708 291.401 233.164 291.403C233.464 291.403 233.762 291.462 234.04 291.577C234.318 291.692 234.571 291.861 234.783 292.074C234.996 292.287 235.165 292.539 235.28 292.817C235.395 293.095 235.454 293.393 235.454 293.694Z" fill="#7C3AED"/>
<path d="M189.301 114.011C189.329 114.435 189.23 114.858 189.018 115.227C188.806 115.596 188.489 115.893 188.108 116.082C187.727 116.271 187.298 116.342 186.876 116.288C186.454 116.233 186.058 116.055 185.738 115.775C185.417 115.496 185.187 115.127 185.075 114.717C184.964 114.306 184.976 113.872 185.111 113.469C185.246 113.065 185.498 112.711 185.834 112.451C186.17 112.19 186.576 112.035 187.001 112.005C187.284 111.985 187.568 112.021 187.836 112.111C188.105 112.201 188.354 112.344 188.567 112.53C188.781 112.716 188.956 112.943 189.082 113.197C189.208 113.451 189.282 113.728 189.301 114.011Z" fill="#FFE700"/>
<path d="M217.301 62.0108C217.329 62.4352 217.23 62.8584 217.018 63.227C216.806 63.5956 216.489 63.8931 216.108 64.0818C215.727 64.2706 215.298 64.3422 214.876 64.2876C214.454 64.2331 214.058 64.0547 213.738 63.7752C213.417 63.4956 213.187 63.1274 213.075 62.7169C212.964 62.3064 212.976 61.8721 213.111 61.4688C213.246 61.0654 213.498 60.7112 213.834 60.4507C214.17 60.1902 214.576 60.0352 215.001 60.0052C215.284 59.9852 215.568 60.0213 215.836 60.1113C216.105 60.2014 216.354 60.3437 216.567 60.5301C216.781 60.7164 216.956 60.9432 217.082 61.1973C217.208 61.4514 217.282 61.7279 217.301 62.0108Z" fill="#F5007E"/>
<path d="M207.015 90.9998H187.916C187.143 90.9998 186.401 91.3071 185.854 91.854C185.307 92.4009 185 93.1427 185 93.9162V105.876C185 106.259 185.075 106.638 185.222 106.991C185.369 107.344 185.584 107.665 185.855 107.935C186.125 108.205 186.447 108.419 186.801 108.565C187.155 108.71 187.534 108.785 187.916 108.783H188.303V111.645L191.615 108.783H207.015C207.398 108.785 207.777 108.71 208.131 108.565C208.485 108.419 208.806 108.205 209.077 107.935C209.348 107.665 209.563 107.344 209.71 106.991C209.856 106.638 209.932 106.259 209.932 105.876V93.9162C209.932 93.1427 209.625 92.4009 209.078 91.854C208.531 91.3071 207.789 90.9998 207.015 90.9998Z" fill="black"/>
<path d="M193.536 97.2558L191.456 103H190.128L188.064 97.2558H189.376L190.832 101.584L192.32 97.2558H193.536ZM195.407 103.08C194.167 103.08 193.239 102.104 193.239 100.864C193.239 99.6158 194.167 98.6478 195.407 98.6478C196.647 98.6478 197.575 99.6158 197.575 100.864C197.575 102.104 196.647 103.08 195.407 103.08ZM195.407 102.096C195.959 102.096 196.431 101.656 196.431 100.864C196.431 100.072 195.959 99.6398 195.407 99.6398C194.855 99.6398 194.383 100.072 194.383 100.864C194.383 101.656 194.855 102.096 195.407 102.096ZM200.085 103.08C198.853 103.08 198.005 102.168 198.005 100.864C198.005 99.5838 198.885 98.6478 200.085 98.6478C201.197 98.6478 202.021 99.3998 202.157 100.552H200.989C200.933 99.9838 200.589 99.6318 200.085 99.6318C199.509 99.6318 199.141 100.104 199.141 100.864C199.141 101.632 199.501 102.096 200.085 102.096C200.597 102.096 200.925 101.76 200.989 101.176H202.157C202.029 102.352 201.229 103.08 200.085 103.08ZM204.079 98.3838H202.855L203.959 97.1678H205.335L206.431 98.3838H205.215L204.647 97.7518L204.079 98.3838ZM204.711 103.072C203.431 103.072 202.575 102.184 202.575 100.848C202.575 99.5758 203.463 98.6478 204.695 98.6478C206.047 98.6478 206.943 99.7438 206.743 101.136H203.711C203.783 101.832 204.119 102.216 204.687 102.216C205.175 102.216 205.503 101.976 205.631 101.552H206.735C206.495 102.52 205.751 103.072 204.711 103.072ZM204.671 99.4638C204.151 99.4638 203.823 99.7998 203.727 100.432H205.567C205.535 99.8398 205.199 99.4638 204.671 99.4638Z" fill="white"/>
<path d="M245.906 33.9998H219.094C218.008 33.9998 216.967 34.3124 216.199 34.8687C215.431 35.425 215 36.1796 215 36.9664V49.1322C215 49.5213 215.106 49.9066 215.312 50.266C215.518 50.6254 215.819 50.9518 216.2 51.2265C216.58 51.5013 217.031 51.7189 217.528 51.867C218.025 52.015 218.557 52.0906 219.094 52.0894H219.636V54.9998L222 51.867L245.906 52.0894C246.443 52.0906 246.975 52.015 247.471 51.867C247.968 51.7189 248.419 51.5013 248.8 51.2265C249.18 50.9518 249.482 50.6254 249.688 50.266C249.894 49.9066 250 49.5213 250 49.1322V36.9664C250 36.1796 249.568 35.425 248.801 34.8687C248.033 34.3124 246.991 33.9998 245.906 33.9998Z" fill="black"/>
<path d="M223 44.2158C223 45.3118 222.12 46.0798 220.68 46.0798C219.232 46.0798 218.328 45.3038 218.24 44.0878H219.472C219.504 44.7198 219.912 45.1278 220.656 45.1278C221.272 45.1278 221.712 44.8558 221.712 44.3918C221.712 44.0318 221.432 43.8158 220.944 43.7198L220 43.5358C219.128 43.3678 218.456 42.8958 218.456 41.9438C218.456 40.9198 219.36 40.1838 220.6 40.1838C221.888 40.1838 222.832 40.9358 222.912 42.1358H221.68C221.64 41.5358 221.224 41.1278 220.616 41.1278C220.024 41.1278 219.688 41.4638 219.688 41.8638C219.688 42.2558 220.048 42.4238 220.464 42.5038L221.448 42.7038C222.456 42.9038 223 43.3678 223 44.2158ZM225.656 46.0718C224.376 46.0718 223.52 45.1838 223.52 43.8478C223.52 42.5758 224.408 41.6478 225.64 41.6478C226.992 41.6478 227.888 42.7438 227.688 44.1358H224.656C224.728 44.8318 225.064 45.2158 225.632 45.2158C226.12 45.2158 226.448 44.9758 226.576 44.5518H227.68C227.44 45.5198 226.696 46.0718 225.656 46.0718ZM225.616 42.4638C225.096 42.4638 224.768 42.7998 224.672 43.4318H226.512C226.48 42.8398 226.144 42.4638 225.616 42.4638ZM231.033 44.1998V41.7278H232.137V45.9998H231.121V45.4398C230.889 45.8158 230.417 46.0798 229.873 46.0798C229.017 46.0798 228.393 45.5598 228.393 44.4478V41.7278H229.505V44.2318C229.505 44.8318 229.801 45.0958 230.249 45.0958C230.649 45.0958 231.033 44.7758 231.033 44.1998ZM239.072 43.8638C239.072 45.1278 238.328 46.0798 237.176 46.0798C236.672 46.0798 236.24 45.8638 235.92 45.4478V47.5438H234.808V41.7278H235.832V42.3518C236.16 41.8958 236.632 41.6478 237.176 41.6478C238.328 41.6478 239.072 42.6078 239.072 43.8638ZM237.928 43.8638C237.928 43.0638 237.472 42.6318 236.928 42.6318C236.384 42.6318 235.928 43.0558 235.928 43.8638C235.928 44.6718 236.384 45.0878 236.928 45.0878C237.472 45.0878 237.928 44.6798 237.928 43.8638ZM241.641 46.0718C240.361 46.0718 239.505 45.1838 239.505 43.8478C239.505 42.5758 240.393 41.6478 241.625 41.6478C242.977 41.6478 243.873 42.7438 243.673 44.1358H240.641C240.713 44.8318 241.049 45.2158 241.617 45.2158C242.105 45.2158 242.433 44.9758 242.561 44.5518H243.665C243.425 45.5198 242.681 46.0718 241.641 46.0718ZM241.601 42.4638C241.081 42.4638 240.753 42.7998 240.657 43.4318H242.497C242.465 42.8398 242.129 42.4638 241.601 42.4638ZM247.042 44.9198V45.8878C246.77 46.0238 246.514 46.0798 246.186 46.0798C245.306 46.0798 244.754 45.5758 244.754 44.6158V42.6798H243.89V41.7278H244.754V40.4638H245.858V41.7278H247.082V42.6798H245.858V44.3598C245.858 44.8558 246.082 45.0558 246.482 45.0558C246.69 45.0558 246.882 45.0078 247.042 44.9198Z" fill="white"/>
<path d="M106.645 324.044C106.777 324.044 106.884 323.427 106.884 322.664C106.884 321.902 106.777 321.284 106.645 321.284C106.513 321.284 106.406 321.902 106.406 322.664C106.406 323.427 106.513 324.044 106.645 324.044Z" fill="black"/>
<path d="M106.645 329.564C106.777 329.564 106.884 328.947 106.884 328.184C106.884 327.422 106.777 326.804 106.645 326.804C106.513 326.804 106.406 327.422 106.406 328.184C106.406 328.947 106.513 329.564 106.645 329.564Z" fill="white"/>
<path d="M106.645 335.084C106.777 335.084 106.884 334.467 106.884 333.704C106.884 332.942 106.777 332.324 106.645 332.324C106.513 332.324 106.406 332.942 106.406 333.704C106.406 334.467 106.513 335.084 106.645 335.084Z" fill="white"/>
<path d="M106.645 340.604C106.777 340.604 106.884 339.987 106.884 339.224C106.884 338.462 106.777 337.844 106.645 337.844C106.513 337.844 106.406 338.462 106.406 339.224C106.406 339.987 106.513 340.604 106.645 340.604Z" fill="white"/>
<path d="M106.645 345.352C106.777 345.352 106.884 344.907 106.884 344.358C106.884 343.809 106.777 343.364 106.645 343.364C106.513 343.364 106.406 343.809 106.406 344.358C106.406 344.907 106.513 345.352 106.645 345.352Z" fill="black"/>
<path d="M110.555 350.08C110.557 349.479 110.419 348.885 110.154 348.345C109.888 347.805 109.501 347.334 109.024 346.967C108.546 346.601 107.99 346.351 107.4 346.234C106.81 346.118 106.2 346.14 105.62 346.298C105.039 346.456 104.503 346.745 104.052 347.144C103.602 347.543 103.25 348.041 103.023 348.598C102.796 349.156 102.702 349.758 102.746 350.358C102.79 350.958 102.972 351.54 103.278 352.058C103.425 352.316 103.618 352.491 103.802 352.758L106.075 355.766C106.141 355.854 106.226 355.925 106.324 355.974C106.423 356.023 106.531 356.048 106.641 356.048C106.75 356.048 106.859 356.023 106.957 355.974C107.055 355.925 107.14 355.854 107.206 355.766L109.433 352.813C109.649 352.566 109.852 352.308 110.04 352.04C110.381 351.444 110.559 350.768 110.555 350.08ZM106.645 351.782C106.305 351.782 105.972 351.681 105.689 351.492C105.406 351.303 105.186 351.035 105.056 350.72C104.926 350.406 104.891 350.06 104.958 349.726C105.024 349.393 105.188 349.086 105.429 348.845C105.669 348.605 105.976 348.441 106.31 348.375C106.643 348.308 106.989 348.342 107.304 348.472C107.618 348.603 107.887 348.823 108.076 349.106C108.265 349.389 108.366 349.722 108.366 350.062C108.366 350.518 108.184 350.956 107.862 351.278C107.539 351.601 107.101 351.782 106.645 351.782Z" fill="#9C9C9C"/>
<path d="M205.895 351.782C205.895 351.911 186.06 352.022 161.606 352.022C137.152 352.022 117.317 351.911 117.317 351.782C117.317 351.654 137.143 351.543 161.606 351.543C186.069 351.543 205.895 351.654 205.895 351.782Z" fill="white"/>
<path d="M170.926 347.9C170.926 348.029 158.91 348.139 144.098 348.139C129.286 348.139 117.262 348.029 117.262 347.9C117.262 347.771 129.268 347.661 144.098 347.661C158.929 347.661 170.926 347.762 170.926 347.9Z" fill="#7C3AED"/>
<path d="M131.789 356.18C129.432 356.417 127.063 356.497 124.696 356.419C122.325 356.497 119.953 356.417 117.593 356.18C119.952 355.938 122.325 355.858 124.696 355.941C127.063 355.858 129.433 355.938 131.789 356.18Z" fill="white"/>
<path d="M110.555 319.582C110.557 318.981 110.419 318.387 110.154 317.847C109.888 317.307 109.501 316.836 109.024 316.47C108.546 316.104 107.99 315.853 107.4 315.736C106.81 315.62 106.2 315.642 105.62 315.8C105.039 315.958 104.503 316.247 104.052 316.646C103.602 317.046 103.25 317.543 103.023 318.101C102.796 318.658 102.702 319.26 102.746 319.86C102.79 320.46 102.972 321.042 103.278 321.56C103.425 321.809 103.618 321.993 103.802 322.26L106.075 325.259C106.141 325.346 106.226 325.418 106.324 325.467C106.423 325.515 106.531 325.541 106.641 325.541C106.75 325.541 106.859 325.515 106.957 325.467C107.055 325.418 107.14 325.346 107.206 325.259L109.433 322.306C109.636 322.064 109.826 321.812 110.003 321.551C110.36 320.956 110.55 320.276 110.555 319.582ZM106.645 321.284C106.305 321.284 105.972 321.184 105.689 320.994C105.406 320.805 105.186 320.537 105.056 320.222C104.926 319.908 104.891 319.562 104.958 319.228C105.024 318.895 105.188 318.588 105.429 318.348C105.669 318.107 105.976 317.943 106.31 317.877C106.643 317.81 106.989 317.844 107.304 317.975C107.618 318.105 107.887 318.325 108.076 318.608C108.265 318.891 108.366 319.224 108.366 319.564C108.366 320.02 108.184 320.458 107.862 320.781C107.539 321.103 107.101 321.284 106.645 321.284Z" fill="#7C3AED"/>
<path d="M224.598 321.284C224.598 321.422 200.577 321.524 170.953 321.524C141.329 321.524 117.317 321.422 117.317 321.284C117.317 321.146 141.329 321.045 170.953 321.045C200.577 321.045 224.598 321.156 224.598 321.284Z" fill="white"/>
<path d="M193.208 317.402C193.208 317.54 176.206 317.641 155.24 317.641C134.273 317.641 117.262 317.54 117.262 317.402C117.262 317.264 134.264 317.163 155.24 317.163C176.216 317.163 193.208 317.273 193.208 317.402Z" fill="#7C3AED"/>
<path d="M159.214 325.682C159.214 325.811 149.904 325.921 138.413 325.921C126.922 325.921 117.593 325.811 117.593 325.682C117.593 325.553 126.913 325.443 138.413 325.443C149.913 325.443 159.214 325.553 159.214 325.682Z" fill="white"/>
<path fill-rule="evenodd" clip-rule="evenodd" d="M378.376 95.0388C377.552 95.245 376.758 95.5746 376.078 96.0845L375.695 96.3716C375.273 96.6883 374.93 97.0989 374.694 97.571C374.326 98.308 373.274 98.308 372.905 97.571C372.669 97.0989 372.327 96.6883 371.904 96.3716L371.521 96.0845C370.842 95.5746 370.047 95.245 369.223 95.0388C361.052 92.9951 355 85.6042 355 76.7998C355 66.4169 363.417 57.9998 373.8 57.9998C384.183 57.9998 392.6 66.4169 392.6 76.7998C392.6 85.6042 386.547 92.9951 378.376 95.0388ZM373.8 105C374.838 105 375.68 104.158 375.68 103.12C375.68 102.082 374.838 101.24 373.8 101.24C372.761 101.24 371.92 102.082 371.92 103.12C371.92 104.158 372.761 105 373.8 105Z" fill="#F5007E"/>
<path d="M367.875 76.1051C367.35 76.1051 366.906 75.9143 366.544 75.5327C366.181 75.1511 366 74.684 366 74.1314C366 73.5788 366.181 73.1117 366.544 72.7301C366.906 72.3485 367.35 72.1577 367.875 72.1577C368.4 72.1577 368.844 72.3485 369.206 72.7301C369.569 73.1117 369.75 73.5788 369.75 74.1314C369.75 74.684 369.569 75.1511 369.206 75.5327C368.844 75.9143 368.4 76.1051 367.875 76.1051ZM371.25 72.9472C370.725 72.9472 370.281 72.7564 369.919 72.3748C369.556 71.9932 369.375 71.5261 369.375 70.9735C369.375 70.4209 369.556 69.9538 369.919 69.5722C370.281 69.1906 370.725 68.9998 371.25 68.9998C371.775 68.9998 372.219 69.1906 372.581 69.5722C372.944 69.9538 373.125 70.4209 373.125 70.9735C373.125 71.5261 372.944 71.9932 372.581 72.3748C372.219 72.7564 371.775 72.9472 371.25 72.9472ZM375.75 72.9472C375.225 72.9472 374.781 72.7564 374.419 72.3748C374.056 71.9932 373.875 71.5261 373.875 70.9735C373.875 70.4209 374.056 69.9538 374.419 69.5722C374.781 69.1906 375.225 68.9998 375.75 68.9998C376.275 68.9998 376.719 69.1906 377.081 69.5722C377.444 69.9538 377.625 70.4209 377.625 70.9735C377.625 71.5261 377.444 71.9932 377.081 72.3748C376.719 72.7564 376.275 72.9472 375.75 72.9472ZM379.125 76.1051C378.6 76.1051 378.156 75.9143 377.794 75.5327C377.431 75.1511 377.25 74.684 377.25 74.1314C377.25 73.5788 377.431 73.1117 377.794 72.7301C378.156 72.3485 378.6 72.1577 379.125 72.1577C379.65 72.1577 380.094 72.3485 380.456 72.7301C380.819 73.1117 381 73.5788 381 74.1314C381 74.684 380.819 75.1511 380.456 75.5327C380.094 75.9143 379.65 76.1051 379.125 76.1051ZM369.487 83.9998C368.925 83.9998 368.453 83.7727 368.072 83.3185C367.691 82.8648 367.5 82.3288 367.5 81.7103C367.5 81.0261 367.722 80.4274 368.166 79.9143C368.609 79.4011 369.05 78.8946 369.487 78.3946C369.85 77.9867 370.162 77.5424 370.425 77.0619C370.687 76.5819 371 76.1314 371.362 75.7103C371.637 75.3682 371.956 75.0853 372.319 74.8617C372.681 74.638 373.075 74.5261 373.5 74.5261C373.925 74.5261 374.319 74.6314 374.681 74.8419C375.044 75.0524 375.362 75.3288 375.637 75.6709C375.987 76.0919 376.297 76.5459 376.565 77.0327C376.834 77.5196 377.15 77.9735 377.512 78.3946C377.95 78.8946 378.391 79.4011 378.835 79.9143C379.278 80.4274 379.5 81.0261 379.5 81.7103C379.5 82.3288 379.309 82.8648 378.928 83.3185C378.547 83.7727 378.075 83.9998 377.512 83.9998C376.837 83.9998 376.169 83.9406 375.506 83.8222C374.844 83.7038 374.175 83.6446 373.5 83.6446C372.825 83.6446 372.156 83.7038 371.494 83.8222C370.831 83.9406 370.162 83.9998 369.487 83.9998Z" fill="white"/>
<path d="M311.042 56.72C311.87 53.6564 314.179 52.12 317.187 51.1172C318.7 50.6172 320.312 50.49 321.885 50.7463C323.458 51.0025 324.945 51.6348 326.222 52.5892C327.914 53.868 329.239 55.7448 331.245 56.444C334.548 57.594 338.421 55.1192 341.595 56.6004C342.546 57.0405 343.314 57.7981 343.767 58.7431C344.22 59.6881 344.329 60.7614 344.077 61.7784C343.824 62.7954 343.225 63.6927 342.383 64.3159C341.54 64.9391 340.507 65.2493 339.46 65.1932C341.613 65.9844 342.285 69.0572 341.024 70.98C339.764 72.9028 337.179 73.6204 334.916 73.1972C332.678 72.6507 330.632 71.5022 329 69.876C327.298 68.3396 325.762 66.6008 323.94 65.2116C322.17 63.7154 319.928 62.8912 317.61 62.884C314.501 63.0496 311.842 65.3956 310.453 68.174C309.064 70.9524 308.751 74.1448 308.613 77.2452C308.475 80.3456 308.383 83.5012 307.463 86.4452C307.352 86.7948 307.187 87.1812 306.837 87.2916C306.34 87.448 305.917 86.9144 305.66 86.4452C302.829 81.1887 301.057 75.4282 300.443 69.4896C300.094 66.0488 300.186 62.792 302.072 59.894C303.958 56.996 308.742 54.8708 311.088 56.6924" fill="black"/>
<path d="M305.08 71.1272L303.488 105.949C303.222 111.874 304.031 120.669 313.415 120.669C321.557 120.062 323.958 112.454 324.207 106.924C324.326 104.302 324.428 102.113 324.455 101.846C324.455 101.846 333.361 101.423 334.4 92.646C334.906 88.4232 335.228 79.628 335.431 71.6792C335.538 67.5485 334.083 63.5293 331.356 60.4251C328.629 57.3208 324.83 55.3602 320.72 54.9352L319.874 54.8432C310.72 54.4108 305.227 61.9548 305.08 71.1272Z" fill="#D47C4F"/>
<path d="M324.446 101.68C320.387 101.324 316.527 99.7635 313.36 97.2C313.36 97.2 315.384 103.787 324.207 103.934L324.446 101.68Z" fill="#B56033"/>
<path d="M333.14 78.1744C333.11 78.5016 332.952 78.8037 332.7 79.0155C332.449 79.2272 332.124 79.3316 331.797 79.306C331.637 79.3013 331.48 79.2648 331.334 79.1986C331.188 79.1325 331.057 79.038 330.948 78.9207C330.84 78.8033 330.755 78.6655 330.7 78.5153C330.645 78.3651 330.621 78.2054 330.628 78.0456C330.661 77.7186 330.819 77.4169 331.07 77.2042C331.32 76.9914 331.644 76.8841 331.972 76.9048C332.132 76.9095 332.29 76.9463 332.437 77.013C332.583 77.0797 332.714 77.1751 332.823 77.2934C332.932 77.4117 333.016 77.5506 333.071 77.7019C333.125 77.8532 333.149 78.0139 333.14 78.1744Z" fill="black"/>
<path d="M333.057 75.7548C332.882 75.902 332.018 75.1016 330.665 74.9636C329.313 74.8256 328.264 75.3868 328.135 75.212C328.006 75.0372 328.264 74.8532 328.724 74.5864C329.35 74.2436 330.066 74.1023 330.776 74.1816C331.462 74.2597 332.106 74.5527 332.616 75.0188C333.03 75.3776 333.14 75.6904 333.057 75.7548Z" fill="#B56033"/>
<path d="M319.892 77.2268C319.862 77.5523 319.705 77.853 319.456 78.0645C319.206 78.276 318.884 78.3815 318.558 78.3584C318.398 78.355 318.24 78.3193 318.094 78.2536C317.947 78.1878 317.816 78.0934 317.707 77.9758C317.598 77.8582 317.514 77.7199 317.459 77.5691C317.405 77.4183 317.381 77.2581 317.39 77.098C317.418 76.7708 317.573 76.4679 317.823 76.2545C318.073 76.041 318.396 75.9343 318.724 75.9572C318.884 75.9619 319.042 75.9987 319.189 76.0654C319.335 76.1321 319.467 76.2275 319.575 76.3458C319.684 76.4641 319.768 76.603 319.823 76.7543C319.877 76.9056 319.901 77.0663 319.892 77.2268Z" fill="black"/>
<path d="M319.8 74.5956C319.634 74.7428 318.76 73.9424 317.417 73.8044C316.074 73.6664 315.007 74.2368 314.878 74.0528C314.749 73.8688 315.007 73.694 315.467 73.4272C316.093 73.0844 316.809 72.9431 317.518 73.0224C318.204 73.1047 318.846 73.3972 319.358 73.8596C319.8 74.2 319.892 74.5312 319.8 74.5956Z" fill="#B56033"/>
<path d="M323.627 85.102C324.359 84.9483 325.107 84.8926 325.854 84.9364C326.203 84.9364 326.534 84.9364 326.617 84.6788C326.681 84.325 326.639 83.9604 326.498 83.63C326.258 82.7652 326.019 81.8636 325.762 80.87C324.74 76.9968 324.05 73.8228 324.207 73.786C324.363 73.7492 325.311 76.8588 326.323 80.732C326.562 81.652 326.801 82.572 327.013 83.492C327.175 83.9345 327.175 84.4204 327.013 84.8628C326.951 84.9788 326.863 85.0791 326.756 85.1556C326.649 85.2322 326.526 85.2831 326.396 85.3044C326.201 85.3312 326.003 85.3312 325.808 85.3044C325.075 85.3232 324.343 85.2553 323.627 85.102Z" fill="#6E2701"/>
<path d="M320.72 69.3608C320.554 69.7104 319.23 69.3608 317.629 69.4252C316.028 69.4896 314.703 69.738 314.528 69.4252C314.455 69.2596 314.712 68.9376 315.264 68.634C315.996 68.2706 316.802 68.0817 317.62 68.082C318.439 68.0721 319.249 68.2549 319.984 68.6156C320.527 68.8732 320.784 69.1952 320.72 69.3608Z" fill="black"/>
<path d="M332.974 71.808C332.708 72.0932 331.815 71.67 330.702 71.5412C329.589 71.4124 328.623 71.5412 328.439 71.1824C328.356 71.0168 328.54 70.7316 328.982 70.4832C329.57 70.1869 330.235 70.0808 330.886 70.1796C331.542 70.2576 332.157 70.5409 332.643 70.9892C333.002 71.3388 333.094 71.67 332.974 71.808Z" fill="black"/>
<path d="M305.08 77.6868C304.942 77.604 299.256 75.2672 298.815 81.2748C298.373 87.2824 304.491 86.4912 304.51 86.3164C304.528 86.1416 305.08 77.6868 305.08 77.6868Z" fill="#D47C4F"/>
<path d="M302.826 83.9061C302.826 83.9061 302.716 83.9705 302.532 84.0349C302.408 84.0862 302.275 84.1127 302.141 84.1127C302.006 84.1127 301.874 84.0862 301.75 84.0349C301.38 83.7603 301.091 83.3922 300.911 82.9685C300.732 82.5447 300.669 82.0808 300.728 81.6245C300.746 81.106 300.885 80.5988 301.133 80.1433C301.203 79.9594 301.316 79.7954 301.464 79.6655C301.611 79.5357 301.788 79.4438 301.98 79.398C302.101 79.375 302.227 79.3956 302.334 79.4562C302.442 79.5168 302.525 79.6135 302.568 79.7292C302.642 79.904 302.568 80.0236 302.624 80.0328C302.679 80.042 302.762 79.9501 302.734 79.6925C302.706 79.5418 302.632 79.4035 302.522 79.2968C302.445 79.2285 302.354 79.1763 302.257 79.1431C302.159 79.11 302.055 79.0966 301.952 79.1037C301.703 79.1358 301.466 79.2302 301.264 79.3781C301.061 79.5261 300.899 79.7228 300.793 79.95C300.497 80.4538 300.33 81.0225 300.305 81.6061C300.241 82.1377 300.333 82.6765 300.57 83.1568C300.807 83.637 301.178 84.038 301.639 84.3109C301.797 84.3688 301.965 84.3906 302.133 84.3746C302.3 84.3587 302.461 84.3055 302.605 84.2188C302.808 84.0532 302.844 83.9153 302.826 83.9061Z" fill="#B56033"/>
<path d="M337.446 70.0416C335.457 70.3368 333.427 70.1573 331.521 69.5178C329.615 68.8782 327.887 67.7967 326.479 66.3616C324.538 64.3284 323.176 61.55 320.591 60.446C319.706 60.1062 318.762 59.9458 317.815 59.9742C316.867 60.0027 315.934 60.2193 315.071 60.6116C313.35 61.4077 311.81 62.5473 310.545 63.9604C311.768 68.5604 310.103 73.4364 308.456 77.9352C308.327 78.4523 308.029 78.9117 307.61 79.2416C306.846 79.7108 305.834 79.1772 305.282 78.4596C304.493 77.2473 304.074 75.8309 304.077 74.384C303.79 71.1117 304.159 67.8151 305.163 64.6872C306.182 61.5454 308.102 58.772 310.683 56.7108C314.007 54.235 318.164 53.1496 322.275 53.684C326.363 54.2442 330.169 56.0829 333.149 58.9372C334.59 60.1796 335.699 61.7602 336.378 63.5372" fill="black"/>
<path d="M324.041 88.92C323.856 89.4599 323.596 89.9709 323.268 90.438C323.102 90.6716 322.889 90.8671 322.641 91.0114C322.394 91.1558 322.118 91.2457 321.833 91.2752C321.528 91.2741 321.227 91.1971 320.959 91.0509C320.691 90.9047 320.463 90.6941 320.297 90.438C319.978 89.9166 319.83 89.3087 319.874 88.6992C319.874 88.1472 320.15 87.494 320.692 87.4296C320.922 87.419 321.151 87.4698 321.355 87.5768L324.225 88.736" fill="#D26F3B"/>
<path d="M322.891 91.266C322.375 91.2972 321.857 91.2317 321.364 91.0728C320.865 90.8727 320.454 90.5007 320.205 90.024C320.08 89.7334 320.015 89.4204 320.015 89.104C320.015 88.7877 320.08 88.4746 320.205 88.184C320.274 88.0307 320.361 87.8856 320.462 87.7516C320.573 87.632 320.554 87.6412 320.674 87.6596C320.794 87.678 320.978 87.7792 321.134 87.8344C321.29 87.8896 321.456 87.9724 321.603 88.0276C322.22 88.276 322.772 88.4968 323.241 88.6716C323.735 88.9072 324.263 89.0655 324.805 89.1408C324.378 88.8007 323.9 88.5305 323.388 88.3404C322.937 88.1196 322.394 87.8712 321.787 87.5952L321.327 87.3928C321.157 87.3077 320.982 87.234 320.803 87.172C320.665 87.1311 320.518 87.1311 320.38 87.172C320.251 87.2275 320.14 87.3165 320.058 87.4296C319.926 87.5948 319.817 87.7775 319.736 87.9724C319.58 88.3373 319.508 88.732 319.524 89.1282C319.54 89.5243 319.644 89.912 319.828 90.2632C319.98 90.5462 320.186 90.796 320.436 90.9982C320.686 91.2004 320.973 91.3508 321.281 91.4408C321.688 91.5538 322.117 91.5538 322.523 91.4408C322.772 91.3856 322.91 91.2936 322.891 91.266Z" fill="black"/>
<path d="M376.895 338.958L383.602 358.406C383.602 358.406 405.618 358.13 407.209 361.599L369.958 375.96L358.274 346.078L376.895 338.958Z" fill="#991B1B"/>
<path d="M371.458 361.24C371.142 361.488 370.928 361.844 370.859 362.24C370.789 362.635 370.868 363.043 371.081 363.384C371.316 363.708 371.666 363.93 372.06 364.003C372.454 364.077 372.861 363.997 373.197 363.779C373.531 363.515 373.756 363.138 373.829 362.719C373.902 362.299 373.818 361.868 373.592 361.507C373.311 361.193 372.919 361 372.499 360.969C372.078 360.938 371.662 361.072 371.338 361.341" fill="#774545"/>
<g opacity="0.6">
<path d="M369.958 375.96L368.9 372.906L405.01 360.32C405.01 360.32 406.952 360.403 407.209 361.645L369.958 375.96Z" fill="#606060"/>
</g>
<path d="M384.126 357.983C384.191 358.167 383.317 358.6 382.645 359.529C381.974 360.458 381.799 361.369 381.596 361.369C381.394 361.369 381.274 360.21 382.102 359.096C382.93 357.983 384.108 357.799 384.126 357.983Z" fill="black"/>
<path d="M388.662 358.094C388.772 358.259 388.101 358.866 387.742 359.878C387.383 360.89 387.558 361.764 387.374 361.829C387.19 361.893 386.675 360.909 387.098 359.658C387.521 358.406 388.588 357.919 388.662 358.094Z" fill="black"/>
<path d="M392.682 361.912C392.526 362.022 391.928 361.203 392.011 360.072C392.094 358.94 392.793 358.167 392.931 358.287C393.069 358.406 392.738 359.142 392.682 360.127C392.627 361.111 392.857 361.829 392.682 361.912Z" fill="black"/>
<path d="M382.112 353.724C382.112 353.917 381.192 353.99 380.17 354.45C379.149 354.91 378.487 355.554 378.33 355.435C378.174 355.315 378.698 354.368 379.885 353.834C381.072 353.3 382.148 353.54 382.112 353.724Z" fill="black"/>
<path d="M240.238 336.4L239.824 336.943L231.756 347.44L221.774 354.285L235.142 380.045H249.862C249.862 380.045 248.804 376.503 241.72 374.672L241.25 360.541L253.965 346.575" fill="#991B1B"/>
<g opacity="0.6">
<path d="M221.774 354.312L235.142 380.063L249.862 380.082L248.206 377.864L236.236 377.202L223.899 352.859L221.774 354.312Z" fill="#606060"/>
</g>
<path d="M241.6 368.232C241.49 368.388 240.68 367.901 239.502 367.938C238.325 367.974 237.534 368.434 237.414 368.287C237.294 368.14 238.113 367.303 239.493 367.284C240.873 367.266 241.766 368.122 241.6 368.232Z" fill="black"/>
<path d="M241.398 364.727C241.25 364.837 240.588 363.963 239.42 363.733C238.251 363.503 237.304 364.037 237.212 363.89C237.12 363.742 237.331 363.577 237.745 363.347C238.301 363.063 238.936 362.976 239.548 363.099C240.159 363.223 240.711 363.55 241.112 364.028C241.407 364.396 241.462 364.69 241.398 364.727Z" fill="black"/>
<path d="M241.49 360.228C241.333 360.311 240.827 359.455 239.806 359.106C238.785 358.756 237.856 359.106 237.782 358.912C237.708 358.719 237.929 358.636 238.343 358.48C238.885 358.29 239.476 358.29 240.018 358.48C240.561 358.672 241.024 359.042 241.333 359.529C241.6 359.915 241.6 360.191 241.49 360.228Z" fill="black"/>
<path d="M245.436 356.741C245.262 356.796 244.848 355.959 243.937 355.37C243.026 354.782 242.097 354.69 242.097 354.506C242.097 354.322 243.182 354.082 244.296 354.828C245.409 355.573 245.611 356.714 245.436 356.741Z" fill="black"/>
<g opacity="0.6">
<path d="M233.522 353.88C233.522 354.226 233.42 354.564 233.228 354.851C233.036 355.139 232.763 355.363 232.443 355.495C232.124 355.627 231.772 355.662 231.433 355.594C231.094 355.527 230.783 355.361 230.538 355.116C230.294 354.872 230.127 354.56 230.06 354.221C229.993 353.882 230.027 353.531 230.159 353.211C230.292 352.892 230.516 352.619 230.803 352.427C231.091 352.235 231.429 352.132 231.774 352.132C232.238 352.132 232.683 352.316 233.01 352.644C233.338 352.972 233.522 353.416 233.522 353.88Z" fill="#606060"/>
</g>
<path d="M289.256 230.416L334.768 297.116L359.369 355.444L380.207 344.303L359.139 285.892L328.19 224.537L289.256 230.416Z" fill="black"/>
<path d="M270.46 224.537L262.87 278.228L231.802 345.977L250.303 356.741L289.817 289.59L311.75 224.537H270.46Z" fill="black"/>
<path d="M250.303 356.741C250.345 356.628 250.401 356.519 250.469 356.419C250.588 356.189 250.763 355.876 250.984 355.499C251.453 354.662 252.134 353.466 252.999 351.948C254.784 348.848 257.341 344.404 260.506 338.93L285.42 296.086L290.066 288.118V288.164L303.728 247.031C305.457 241.879 306.856 237.73 307.831 234.841L308.953 231.557L309.257 230.71C309.287 230.612 309.327 230.516 309.376 230.425C309.357 230.528 309.332 230.629 309.303 230.729L309.036 231.584L307.987 234.896L304.031 247.132C300.618 257.528 295.871 271.972 290.516 288.321L285.87 296.288C276.1 312.986 267.25 328.092 260.837 339.068C257.617 344.505 255.014 348.921 253.201 352.003C252.281 353.503 251.591 354.68 251.104 355.508L250.542 356.428C250.47 356.538 250.391 356.643 250.303 356.741Z" fill="#484848"/>
<path d="M331.079 195.465L329.543 172.419L323.71 118.084L325.78 106.759L302.78 97.5588L300.02 103.079C286.22 105.158 280.396 132.418 280.396 132.418L279.918 187.848L264.6 225.42L268.574 228.926C274.858 232.698 333.398 230.324 333.398 230.324L331.079 195.465Z" fill="#7C3AED"/>
<g opacity="0.3">
<path d="M270.46 211.004C274.473 216.082 279.145 220.602 284.352 224.445C287.214 226.589 290.599 228.622 294.123 228.061C297.646 227.5 300.066 224.703 302.302 222.062L314.878 207.232C315.668 206.453 316.231 205.473 316.506 204.398C316.57 203.689 316.439 202.976 316.128 202.336C315.816 201.696 315.337 201.153 314.74 200.764C313.538 199.996 312.162 199.543 310.738 199.449C301.906 198.4 293.258 202.788 284.38 202.862C281.344 202.862 276.394 202.282 273.524 203.285L270.46 211.004Z" fill="black"/>
</g>
<path d="M317.868 174.839C320.146 177.073 321.565 180.038 321.876 183.214C322.187 186.39 321.371 189.574 319.57 192.208L311.704 203.718L300.287 218.64C299.512 219.648 298.532 220.48 297.412 221.081C296.291 221.682 295.056 222.037 293.787 222.124C292.519 222.211 291.247 222.028 290.055 221.586C288.863 221.144 287.778 220.453 286.873 219.56L234.81 179.448C233.215 178.219 232.158 176.42 231.861 174.428C231.564 172.437 232.051 170.407 233.219 168.767L254.379 138.977C254.971 138.141 255.722 137.429 256.589 136.884C257.457 136.339 258.424 135.97 259.434 135.799C260.444 135.628 261.478 135.658 262.477 135.888C263.476 136.117 264.419 136.542 265.253 137.137L317.868 174.839Z" fill="#484848"/>
<path d="M290.903 221.814C290.934 221.715 290.981 221.622 291.041 221.538L291.501 220.756C291.915 220.075 292.54 219.082 293.341 217.812C294.988 215.282 297.426 211.639 300.443 207.158C303.461 202.678 307.095 197.37 311.032 191.408C312.061 189.911 312.983 188.343 313.792 186.716C314.187 185.895 314.388 184.995 314.381 184.085C314.311 183.164 313.964 182.285 313.388 181.564C312.228 180.074 310.49 179.043 308.88 177.884L303.902 174.351L269.513 149.824L259.163 142.28L256.32 140.265L255.593 139.722C255.437 139.594 255.354 139.529 255.363 139.52C255.453 139.569 255.539 139.624 255.621 139.686L256.375 140.182L259.236 142.17L269.715 149.53L304.188 173.937L309.165 177.479C310.766 178.666 312.523 179.687 313.765 181.288C314.393 182.079 314.768 183.041 314.841 184.048C314.852 185.034 314.638 186.009 314.216 186.9C313.384 188.542 312.44 190.125 311.391 191.638C307.435 197.6 303.764 202.88 300.719 207.342C294.61 216.248 290.903 221.814 290.903 221.814Z" fill="black"/>
<path d="M310.664 104.928C310.664 104.928 295.88 97.108 273.552 132.528L277.508 137.128C277.508 137.128 296.156 104.339 308.475 108.304C320.794 112.27 302.706 163.955 302.706 163.955C302.706 163.955 329.81 112.435 310.664 104.928Z" fill="black"/>
<path d="M261.27 144.782C258.201 147.878 256.274 151.924 255.804 156.258C255.335 160.592 256.35 164.957 258.684 168.638C258.859 168.905 259.025 169.153 259.2 169.392L279.32 200.617L296.156 190.24L279.826 160.68C279.826 160.68 287.407 152.86 295.65 144.065C306.754 132.206 318.576 117.661 310.103 109.307C310.103 109.307 304.335 104.707 295.457 111.598C289.035 116.52 270.847 134.966 261.27 144.782Z" fill="#7C3AED"/>
<path d="M367.208 122.583L375.975 120.402C375.975 120.402 378.34 122.528 377.116 124.726C375.892 126.925 373.832 132.473 373.832 132.473L367.051 134.662L365.138 140.182L353.472 135.205L356.6 124.855L363.141 116.759L368.072 116.005L371.394 118.82C371.394 118.82 368.634 120.835 366.794 118.664L364.53 119.538L364.733 120.899C364.776 121.176 364.876 121.442 365.026 121.679C365.176 121.916 365.374 122.119 365.606 122.277C365.837 122.435 366.099 122.543 366.375 122.596C366.65 122.649 366.934 122.644 367.208 122.583Z" fill="#D47C4F"/>
<path d="M375.92 120.761L381.652 118.001C382.018 117.887 382.407 117.865 382.784 117.938C383.161 118.01 383.515 118.174 383.814 118.415L384.099 119.013L377.236 123.503L375.92 120.761Z" fill="#D47C4F"/>
<path d="M363.868 129.694C363.998 129.186 364.196 128.697 364.457 128.241C365.013 127.142 365.312 125.931 365.331 124.699C365.311 124.036 365.138 123.388 364.825 122.804C364.669 122.53 364.536 122.244 364.429 121.948C364.342 121.678 364.305 121.394 364.319 121.111C364.289 120.576 364.355 120.04 364.512 119.528C364.621 120.042 364.671 120.567 364.659 121.092C364.697 121.635 364.888 122.155 365.211 122.592C365.584 123.226 365.79 123.945 365.809 124.68C365.793 125.979 365.431 127.249 364.76 128.36C364.546 128.855 364.243 129.307 363.868 129.694Z" fill="#B56033"/>
<path d="M389.812 108.774C389.895 108.939 391.082 110.706 391.082 110.706L364.935 129.952L363.298 127.864L389.812 108.774Z" fill="black"/>
<path d="M373.703 132.086C373.811 131.926 373.886 131.746 373.923 131.556C373.96 131.367 373.958 131.171 373.918 130.982C373.877 130.793 373.799 130.614 373.688 130.456C373.577 130.298 373.435 130.164 373.27 130.062C372.586 129.674 371.802 129.495 371.016 129.547C369.737 129.47 368.452 129.541 367.189 129.759C366.768 129.817 366.369 129.982 366.03 130.237C365.863 130.366 365.739 130.542 365.673 130.742C365.607 130.942 365.603 131.157 365.662 131.36C365.846 131.847 366.426 132.022 366.922 132.123C368.279 132.391 369.662 132.499 371.044 132.445" fill="#D47C4F"/>
<path d="M371.044 132.445C370.237 132.624 369.405 132.655 368.588 132.537C368.201 132.537 367.787 132.473 367.346 132.399C366.84 132.365 366.348 132.224 365.901 131.985C365.766 131.899 365.651 131.784 365.563 131.649C365.476 131.514 365.419 131.362 365.395 131.203C365.361 130.873 365.456 130.543 365.662 130.283C366.086 129.825 366.668 129.542 367.29 129.492C368.378 129.31 369.483 129.251 370.584 129.317C371.505 129.251 372.427 129.436 373.252 129.851C373.529 130.022 373.752 130.269 373.894 130.562C374.035 130.855 374.09 131.183 374.052 131.507C373.97 131.967 373.712 132.105 373.703 132.086C373.694 132.068 373.85 131.884 373.868 131.488C373.867 131.213 373.793 130.943 373.654 130.706C373.515 130.469 373.316 130.272 373.077 130.136C372.288 129.803 371.427 129.673 370.575 129.759C369.507 129.724 368.438 129.792 367.382 129.961C366.877 130 366.402 130.215 366.039 130.568C365.968 130.64 365.914 130.727 365.88 130.822C365.847 130.917 365.835 131.019 365.846 131.119C365.856 131.219 365.889 131.316 365.941 131.402C365.994 131.489 366.065 131.562 366.15 131.617C366.541 131.827 366.969 131.961 367.41 132.013C367.842 132.096 368.247 132.16 368.615 132.206C370.106 132.39 371.044 132.372 371.044 132.445Z" fill="#B56033"/>
<path d="M375.92 126.732C373.832 126.226 372.341 126.014 370.253 125.499C369.589 125.261 368.867 125.241 368.192 125.444C367.539 125.711 367.134 126.622 367.612 127.137C367.793 127.309 368.01 127.438 368.247 127.514L374.485 129.961" fill="#D47C4F"/>
<path d="M374.466 129.961C373.632 129.778 372.816 129.519 372.028 129.188L369.48 128.222L367.944 127.624C367.776 127.564 367.624 127.465 367.501 127.335C367.379 127.206 367.287 127.05 367.235 126.879C367.193 126.703 367.188 126.519 367.219 126.34C367.251 126.161 367.319 125.991 367.419 125.84C367.6 125.538 367.88 125.307 368.21 125.186C368.507 125.088 368.819 125.048 369.13 125.067C369.684 125.135 370.231 125.246 370.768 125.398L373.464 126.024C374.306 126.17 375.129 126.408 375.92 126.732C375.068 126.67 374.223 126.544 373.39 126.355C372.617 126.217 371.688 126.06 370.63 125.83C370.117 125.692 369.594 125.593 369.066 125.536C368.817 125.497 368.563 125.529 368.332 125.628C368.101 125.727 367.902 125.89 367.76 126.097C367.634 126.294 367.588 126.53 367.631 126.76C367.667 126.863 367.727 126.956 367.805 127.033C367.883 127.109 367.978 127.167 368.082 127.201L369.581 127.808L372.139 128.866C372.949 129.154 373.728 129.521 374.466 129.961Z" fill="#B56033"/>
<path d="M377.245 123.475L371.596 122.454C370.916 122.257 370.19 122.282 369.526 122.528C368.9 122.84 368.56 123.77 369.066 124.257C369.257 124.414 369.48 124.527 369.719 124.588L376.104 126.64" fill="#D47C4F"/>
<path d="M376.104 126.64C375.262 126.517 374.433 126.313 373.629 126.033L370.989 125.242L369.425 124.754C369.253 124.706 369.094 124.62 368.961 124.502C368.827 124.384 368.721 124.237 368.652 124.073C368.595 123.901 368.574 123.72 368.59 123.539C368.606 123.359 368.658 123.184 368.744 123.024C368.898 122.706 369.158 122.452 369.48 122.307C369.768 122.174 370.083 122.108 370.4 122.114C370.958 122.13 371.513 122.204 372.056 122.334L374.761 122.877C375.603 123.006 376.431 123.213 377.236 123.494C376.385 123.48 375.538 123.384 374.706 123.208L371.946 122.767C371.428 122.655 370.901 122.594 370.372 122.583C370.124 122.56 369.875 122.609 369.655 122.725C369.434 122.841 369.252 123.019 369.13 123.236C368.514 124.358 370.207 124.441 371.081 124.818L373.694 125.738C374.523 125.965 375.33 126.267 376.104 126.64Z" fill="#B56033"/>
<path d="M365.8 139.382L348.78 175.74C347.986 177.44 346.775 178.912 345.26 180.019C343.745 181.125 341.974 181.831 340.114 182.07C337.726 182.375 335.305 181.897 333.211 180.71C331.118 179.522 329.466 177.688 328.503 175.483L315.807 146.411L323.02 115.039L340.04 151.627L353.987 131.866L365.8 139.382Z" fill="#7C3AED"/>
<path d="M335.072 163.9C335.644 161.702 336.379 159.549 337.271 157.46C338.005 155.325 338.887 153.244 339.911 151.232C339.338 153.429 338.603 155.582 337.712 157.672C336.978 159.807 336.096 161.888 335.072 163.9Z" fill="black"/>
<path d="M331.3 195.079C331.249 194.824 331.216 194.566 331.199 194.306C331.153 193.754 331.079 193 330.996 192.061C330.822 190.056 330.582 187.24 330.288 183.781C329.681 176.752 328.844 167.12 327.924 156.485C327.004 145.85 326.001 136.18 325.228 129.207C324.832 125.757 324.51 122.951 324.308 120.927C324.198 120.007 324.106 119.234 324.041 118.682C323.998 118.421 323.98 118.156 323.986 117.891C323.986 117.891 324.05 118.158 324.142 118.664C324.234 119.17 324.345 119.961 324.492 120.899C324.777 122.84 325.164 125.656 325.587 129.133C326.442 136.098 327.427 145.739 328.42 156.402C329.414 167.065 330.141 176.725 330.647 183.717C330.877 187.185 331.07 190.01 331.199 191.997C331.254 192.917 331.291 193.699 331.318 194.26C331.34 194.533 331.334 194.807 331.3 195.079Z" fill="black"/>
<path d="M292.614 192.328L294.831 196.928C294.831 196.928 299.229 197.452 301.05 198.299C302.872 199.145 309.413 204.84 309.413 204.84C309.195 205.293 308.825 205.655 308.369 205.865C307.912 206.075 307.397 206.119 306.911 205.99C305.465 205.173 304.081 204.25 302.771 203.23C302.409 203.292 302.067 203.443 301.778 203.669C301.489 203.896 301.261 204.191 301.115 204.528C300.969 204.866 300.909 205.234 300.941 205.6C300.973 205.966 301.096 206.318 301.299 206.625C302.605 208.575 304.105 210.848 304.252 211.225C304.399 211.602 307.288 212.807 309.459 213.672C309.739 213.794 309.974 214.001 310.13 214.263C310.287 214.525 310.358 214.83 310.332 215.134C310.307 215.439 310.187 215.728 309.989 215.96C309.791 216.193 309.526 216.358 309.229 216.432C309.103 216.47 308.969 216.47 308.843 216.432C308.843 216.432 309.892 218.64 306.083 218.005C306.083 218.005 303.562 219.726 301.602 218.668C301.602 218.668 298.005 219.477 296.414 218.944C294.822 218.41 288.226 209.109 288.226 209.109L282.485 198.713L292.614 192.328Z" fill="#D47C4F"/>
<path d="M298.576 209.008C298.736 209.654 298.991 210.274 299.33 210.848C300.01 212.344 301.035 213.659 302.32 214.684C303.68 215.578 305.25 216.101 306.874 216.202C307.526 216.304 308.191 216.304 308.843 216.202C308.217 216.019 307.571 215.911 306.92 215.88C305.389 215.674 303.922 215.134 302.624 214.298C301.406 213.317 300.395 212.104 299.652 210.728C299.361 210.115 299 209.537 298.576 209.008Z" fill="#B56033"/>
<path d="M296.699 211.151C296.755 211.77 296.96 212.367 297.297 212.89C297.598 213.484 297.946 214.053 298.336 214.592C298.804 215.281 299.404 215.869 300.103 216.322C300.825 216.69 301.588 216.974 302.375 217.168L304.215 217.656C304.785 217.852 305.38 217.966 305.982 217.996C305.468 217.684 304.909 217.451 304.326 217.306C303.801 217.122 303.176 216.91 302.486 216.699C301.742 216.493 301.02 216.213 300.333 215.862C299.693 215.445 299.137 214.911 298.695 214.288C298.295 213.784 297.927 213.255 297.591 212.706C297.021 211.768 296.8 211.133 296.699 211.151Z" fill="#B56033"/>
<path d="M294.721 213.801C294.555 213.92 295.724 215.586 297.26 217.481C297.477 217.743 297.76 217.943 298.079 218.06C298.339 218.179 298.606 218.28 298.879 218.364C299.335 218.509 299.803 218.614 300.278 218.677C301.087 218.778 301.602 218.677 301.593 218.612C301.584 218.548 301.106 218.502 300.342 218.309C299.898 218.202 299.462 218.067 299.036 217.904C298.781 217.819 298.532 217.717 298.29 217.6C298.05 217.505 297.835 217.354 297.665 217.159C296.892 216.184 296.165 215.319 295.632 214.739C295.098 214.16 294.776 213.773 294.721 213.801Z" fill="#B56033"/>
<path d="M321.64 105.324C321.532 106.851 321.304 108.367 320.959 109.859C320.768 111.383 320.46 112.89 320.039 114.367C319.974 112.822 320.113 111.276 320.453 109.767C320.654 108.241 321.053 106.747 321.64 105.324Z" fill="black"/>
<path d="M314.565 108.111C314.598 107.222 314.791 106.346 315.136 105.526C315.335 104.658 315.687 103.832 316.175 103.088C316.132 103.977 315.935 104.851 315.596 105.673C315.402 106.541 315.053 107.367 314.565 108.111Z" fill="black"/>
<path d="M309.358 105.554C309.514 104.738 309.826 103.96 310.278 103.263C310.582 102.492 311.036 101.789 311.612 101.193C311.459 102.01 311.146 102.788 310.692 103.484C310.382 104.252 309.929 104.954 309.358 105.554Z" fill="black"/>
<path d="M302.522 104.762C303.005 103.762 303.624 102.833 304.362 102.002C304.974 101.075 305.715 100.238 306.561 99.5184C306.085 100.523 305.465 101.453 304.721 102.278C304.109 103.206 303.369 104.043 302.522 104.762Z" fill="black"/>
<path d="M279.918 160.974C279.389 160.631 278.879 160.26 278.391 159.861C275.916 158.124 272.939 157.248 269.918 157.368C269.307 157.442 268.692 157.476 268.078 157.469C268.659 157.211 269.283 157.062 269.918 157.028C271.464 156.876 273.026 157.023 274.518 157.46C276.008 157.9 277.398 158.625 278.612 159.594C279.129 159.97 279.572 160.438 279.918 160.974Z" fill="black"/>
<path d="M274.978 149.217C275.537 149.568 276.034 150.009 276.45 150.523C278.604 152.912 279.953 155.918 280.304 159.116C280.419 159.767 280.419 160.434 280.304 161.085C279.886 156.652 278.017 152.48 274.987 149.217H274.978Z" fill="black"/>
<path d="M296.22 190.019C296.085 189.845 295.965 189.661 295.862 189.467L294.896 187.82L291.39 181.674C288.437 176.403 284.352 169.116 279.734 160.892L279.651 160.735L279.771 160.606L283.34 156.853L302.228 137.082L307.987 131.12L309.57 129.52C309.75 129.329 309.944 129.15 310.149 128.986C309.994 129.2 309.825 129.402 309.643 129.593L308.125 131.249L302.467 137.312C297.637 142.427 291.013 149.438 283.69 157.175L280.111 160.938V160.662C284.711 168.942 288.713 176.228 291.63 181.518C293.046 184.131 294.196 186.238 295.015 187.737L295.935 189.421C296.05 189.61 296.145 189.81 296.22 190.019Z" fill="black"/>
<g opacity="0.3">
<path d="M287.407 152.915L293.976 157.626C294.909 157.134 295.722 156.443 296.358 155.602C301.295 148.699 304.902 140.936 306.994 132.712L287.407 152.915Z" fill="black"/>
</g>
<path d="M296.892 142.574C296.774 141.349 296.411 140.161 295.825 139.078C295.159 137.933 294.274 136.93 293.221 136.125C291.913 135.15 290.472 134.367 288.943 133.798C287.324 133.144 285.714 132.694 284.279 132.114C282.976 131.647 281.801 130.881 280.847 129.878C280.206 129.191 279.772 128.336 279.596 127.413C279.509 127.081 279.509 126.733 279.596 126.401C279.596 126.401 279.596 126.769 279.771 127.376C280.012 128.232 280.464 129.013 281.086 129.648C282.035 130.577 283.179 131.281 284.435 131.709C285.834 132.252 287.462 132.684 289.109 133.347C290.68 133.937 292.155 134.755 293.488 135.776C294.572 136.63 295.466 137.702 296.11 138.922C296.544 139.743 296.819 140.639 296.92 141.562C296.973 141.899 296.964 142.242 296.892 142.574Z" fill="#282828"/>
<path d="M326.976 146.678C326.564 146.676 326.152 146.648 325.743 146.595C324.638 146.512 323.528 146.512 322.422 146.595C321.014 146.696 319.358 146.935 317.509 147.22C315.496 147.565 313.461 147.762 311.419 147.809C309.348 147.862 307.291 147.46 305.393 146.632C303.855 145.906 302.535 144.79 301.566 143.393C300.912 142.451 300.507 141.359 300.388 140.219C300.355 139.913 300.355 139.605 300.388 139.299C300.388 139.088 300.388 138.986 300.443 138.986C300.498 138.986 300.443 139.428 300.572 140.201C300.758 141.287 301.196 142.314 301.851 143.2C302.815 144.514 304.101 145.556 305.586 146.227C307.429 147.008 309.418 147.381 311.419 147.322C313.438 147.282 315.451 147.101 317.445 146.779C319.285 146.521 320.978 146.31 322.404 146.254C323.525 146.198 324.649 146.244 325.762 146.392C326.178 146.431 326.586 146.527 326.976 146.678Z" fill="#282828"/>
<path d="M333.149 138.103C332.461 139.356 331.51 140.444 330.362 141.295C329.214 142.147 327.896 142.74 326.498 143.034C326.498 142.896 328.246 142.28 330.076 140.909C331.907 139.538 333.03 138.02 333.149 138.103Z" fill="#282828"/>
<path d="M335.771 144.304C334.814 145.845 333.558 147.18 332.078 148.229C330.597 149.278 328.922 150.02 327.151 150.413C328.741 149.641 330.281 148.769 331.76 147.8C333.172 146.724 334.512 145.556 335.771 144.304Z" fill="#282828"/>
<path d="M328.172 157C326.522 156.087 324.703 155.52 322.827 155.335C320.785 155.169 318.733 155.169 316.69 155.335C314.167 155.545 311.63 155.527 309.11 155.28C304.515 154.774 300.072 153.334 296.055 151.048C294.845 150.356 293.684 149.585 292.577 148.738C292.161 148.44 291.773 148.105 291.418 147.736C291.862 147.989 292.286 148.275 292.688 148.591C293.828 149.371 295.007 150.092 296.22 150.753C300.231 152.926 304.623 154.303 309.156 154.81C311.654 155.048 314.169 155.076 316.672 154.893C318.734 154.741 320.806 154.769 322.864 154.976C324.261 155.136 325.621 155.534 326.884 156.154C327.225 156.319 327.551 156.513 327.859 156.733C328.08 156.88 328.181 157 328.172 157Z" fill="#282828"/>
<path d="M293.12 145.721C293.078 145.94 293.01 146.153 292.918 146.356L292.853 146.53L292.78 146.356C292.152 145.036 291.108 143.96 289.808 143.292C288.808 142.755 287.749 142.335 286.652 142.041C285.466 141.682 284.15 141.378 282.825 140.9C280.002 139.868 277.492 138.125 275.539 135.84C274.953 135.155 274.429 134.419 273.975 133.641C273.783 133.359 273.637 133.049 273.542 132.721C273.616 132.666 274.278 133.926 275.796 135.592C277.776 137.759 280.246 139.422 283 140.44C284.288 140.909 285.594 141.222 286.8 141.599C287.922 141.913 289.001 142.368 290.01 142.952C291.357 143.672 292.394 144.86 292.927 146.291H292.789C292.991 145.896 293.12 145.712 293.12 145.721Z" fill="#282828"/>
<defs>
<linearGradient id="paint0_linear_41_18" x1="214.016" y1="17.7882" x2="214.016" y2="328.053" gradientUnits="userSpaceOnUse">
<stop/>
<stop offset="1" stop-opacity="0.02"/>
</linearGradient>
</defs>
</svg>
