<svg width="354" height="313" viewBox="0 0 354 313" fill="none" xmlns="http://www.w3.org/2000/svg">
<path d="M51.7301 184.454C-17.2434 213.696 -17.2434 261.081 51.7301 290.309C120.704 319.536 232.469 319.536 301.42 290.309C370.37 261.081 370.34 213.696 301.367 184.454C232.393 155.211 120.651 155.241 51.7301 184.454Z" fill="url(#paint0_linear_43_19)"/>
<path opacity="0.2" d="M80.2267 277.88C115.591 277.88 144.26 261.33 144.26 240.915C144.26 220.5 115.591 203.951 80.2267 203.951C44.8621 203.951 16.1934 220.5 16.1934 240.915C16.1934 261.33 44.8621 277.88 80.2267 277.88Z" fill="black"/>
<path opacity="0.2" d="M244.168 284.594C289.665 284.594 326.548 263.298 326.548 237.028C326.548 210.758 289.665 189.461 244.168 189.461C198.671 189.461 161.788 210.758 161.788 237.028C161.788 263.298 198.671 284.594 244.168 284.594Z" fill="black"/>
<path d="M315.195 113.51C314.165 113.894 313.375 114.728 312.413 115.247C310.962 115.999 309.202 116.074 307.759 116.879C306.84 117.433 306.107 118.248 305.652 119.22C305.197 120.192 305.04 121.277 305.202 122.338C305.399 123.393 305.865 124.38 306.555 125.202C307.245 126.024 308.137 126.654 309.142 127.03C310.541 127.548 312.029 127.782 313.436 128.285C314.714 128.759 315.782 129.579 317.158 129.834C318.441 130.112 319.782 129.9 320.917 129.24C321.58 128.83 322.104 128.23 322.421 127.518C322.992 126.33 323.639 124.511 323.286 123.187C322.932 121.864 322.068 121.059 321.428 120.007C320.877 118.836 320.439 117.615 320.12 116.36C319.413 114.27 317.503 112.645 315.195 113.51Z" fill="#BA68C8"/>
<path d="M309.496 113.886C309.827 113.687 310.139 113.458 310.429 113.202C310.827 112.895 311.127 112.477 311.291 112.002C311.456 111.526 311.477 111.013 311.353 110.525C311.194 109.62 310.878 108.75 310.421 107.954C310.112 107.336 309.706 106.772 309.218 106.284C309.057 106.125 308.863 106.003 308.65 105.926C308.437 105.85 308.21 105.82 307.985 105.841C307.672 105.929 307.382 106.086 307.137 106.301C306.893 106.515 306.699 106.782 306.571 107.081C306.076 107.956 305.728 108.906 305.541 109.893C305.36 110.695 305.376 111.528 305.586 112.322C305.695 112.717 305.893 113.082 306.164 113.39C306.435 113.697 306.772 113.939 307.15 114.097C307.858 114.34 308.632 114.297 309.308 113.976L309.496 113.886Z" fill="#BA68C8"/>
<path d="M313.135 104.382C313.631 102.878 314.579 101.585 316.218 101.374C318.128 101.149 319 103.404 319.038 104.961C319.144 106.681 318.661 108.386 317.669 109.796C316.301 111.488 314.24 111.021 313.278 109.202C312.606 107.675 312.555 105.946 313.135 104.382Z" fill="#BA68C8"/>
<path d="M323.962 119.172C323.805 118.818 323.68 118.451 323.586 118.074C323.443 117.592 323.442 117.079 323.584 116.596C323.725 116.113 324.003 115.682 324.383 115.353C325.041 114.709 325.804 114.183 326.639 113.796C327.247 113.469 327.905 113.243 328.586 113.127C328.81 113.091 329.039 113.104 329.257 113.165C329.475 113.226 329.677 113.333 329.849 113.48C330.054 113.733 330.199 114.028 330.274 114.344C330.35 114.661 330.354 114.99 330.286 115.307C330.195 116.305 329.941 117.28 329.534 118.195C329.221 118.954 328.728 119.625 328.097 120.15C327.78 120.411 327.407 120.597 327.007 120.694C326.607 120.79 326.191 120.794 325.789 120.706C325.073 120.492 324.467 120.01 324.097 119.36L323.962 119.172Z" fill="#BA68C8"/>
<path d="M326.993 109.134C327.444 107.63 327.406 106.006 326.165 104.916C324.722 103.645 322.722 104.999 321.804 106.254C320.735 107.609 320.16 109.288 320.173 111.014C320.331 113.18 322.286 113.977 324.113 113.029C325.544 112.157 326.578 110.759 326.993 109.134Z" fill="#BA68C8"/>
<path d="M40.8406 43.5214C39.818 43.9049 39.021 44.7395 38.0586 45.2583C36.6073 46.0102 34.8479 46.0929 33.4117 46.89C32.4897 47.443 31.7538 48.2587 31.2983 49.2326C30.8429 50.2065 30.6886 51.2943 30.8552 52.3564C31.0494 53.4118 31.5147 54.3986 32.2054 55.2199C32.8962 56.0412 33.7887 56.6687 34.7952 57.0409C36.1938 57.5597 37.6826 57.7928 39.0887 58.2966C40.3594 58.7703 41.4271 59.5974 42.8483 59.853C44.1328 60.1236 45.4719 59.9093 46.6079 59.2515C47.2899 58.8517 47.8311 58.25 48.1568 57.5296C48.7283 56.3416 49.3674 54.5219 49.014 53.1986C48.6606 51.8752 47.7959 51.0782 47.1643 50.018C46.6092 48.8484 46.171 47.6268 45.8559 46.3711C45.0514 44.2883 43.1566 42.6567 40.8406 43.5214Z" fill="#BA68C8"/>
<path d="M35.1405 43.8977C35.4721 43.6987 35.7865 43.4724 36.0804 43.2209C36.4772 42.9106 36.7758 42.4919 36.9399 42.0156C37.104 41.5392 37.1267 41.0256 37.0052 40.5366C36.8393 39.6325 36.5215 38.763 36.0653 37.965C35.7541 37.36 35.3507 36.8071 34.8698 36.3259C34.7079 36.1662 34.5128 36.0442 34.2983 35.9688C34.0838 35.8934 33.8553 35.8664 33.6291 35.8897C33.32 35.9704 33.0328 36.1188 32.7883 36.3243C32.5438 36.5298 32.3481 36.7872 32.2155 37.0778C31.7236 37.9539 31.3757 38.9034 31.1854 39.8899C31.0083 40.6917 31.0238 41.524 31.2305 42.3186C31.3404 42.7142 31.5381 43.0798 31.8089 43.3884C32.0797 43.6969 32.4166 43.9404 32.7945 44.1007C33.5034 44.3375 34.2764 44.2918 34.9525 43.9729C35.0168 43.9522 35.0796 43.9271 35.1405 43.8977Z" fill="#BA68C8"/>
<path d="M38.7809 34.3933C39.2847 32.8894 40.2321 31.5961 41.8638 31.3856C43.7812 31.1675 44.6534 33.4158 44.691 34.9722C44.7945 36.6933 44.3092 38.3984 43.315 39.8071C41.954 41.4989 39.8863 41.0402 38.9238 39.2206C38.2553 37.6901 38.2041 35.9606 38.7809 34.3933Z" fill="#BA68C8"/>
<path d="M49.6162 49.1833C49.4597 48.8288 49.3339 48.4615 49.2403 48.0855C49.0903 47.6076 49.0814 47.0965 49.2148 46.6136C49.3482 46.1308 49.6181 45.6967 49.9922 45.3636C50.6513 44.7216 51.4139 44.1954 52.248 43.8071C52.8584 43.4842 53.5154 43.2584 54.1954 43.1379C54.419 43.1008 54.648 43.1132 54.8663 43.1743C55.0846 43.2353 55.2868 43.3436 55.4586 43.4913C55.6637 43.7437 55.81 44.0387 55.8867 44.3548C55.9635 44.6709 55.9688 45.0001 55.9023 45.3185C55.8112 46.3155 55.5571 47.2909 55.1504 48.2058C54.838 48.9647 54.345 49.6358 53.7142 50.1608C53.3982 50.4223 53.0267 50.6083 52.628 50.7047C52.2293 50.8011 51.8139 50.8054 51.4133 50.7172C50.6971 50.5032 50.0911 50.0211 49.7215 49.3713C49.682 49.3112 49.6468 49.2484 49.6162 49.1833Z" fill="#BA68C8"/>
<path d="M52.6455 39.1454C53.0891 37.6415 53.0515 36.0174 51.8184 34.9271C50.3672 33.6564 48.3671 35.0098 47.4497 36.2655C46.3882 37.6246 45.8136 39.3007 45.818 41.0252C45.9835 43.1907 47.9385 43.9877 49.7656 43.0403C51.195 42.1653 52.2279 40.7685 52.6455 39.1454Z" fill="#BA68C8"/>
<path d="M307.103 18.3924C306.599 19.6632 306.704 21.0918 306.351 22.4227C305.862 24.4228 304.433 26.0996 303.975 28.1072C303.719 29.4229 303.86 30.7849 304.379 32.0205C304.899 33.256 305.773 34.3096 306.892 35.0474C308.034 35.7509 309.339 36.1457 310.68 36.1931C312.02 36.2406 313.35 35.9391 314.539 35.3181C316.193 34.4609 317.637 33.2579 319.299 32.3932C320.803 31.6412 322.464 31.3104 323.855 30.2427C325.168 29.2803 326.083 27.8707 326.427 26.2801C326.626 25.3146 326.521 24.3111 326.126 23.4077C325.502 21.9039 324.359 19.7609 322.833 18.9714C321.419 18.2195 319.825 18.3323 318.321 18.0315C316.817 17.7308 315.314 16.8134 313.81 16.1893C311.328 15.1291 308.231 15.5201 307.103 18.3924Z" fill="#BA68C8"/>
<path d="M302.675 23.9867C302.765 23.5129 302.818 23.0327 302.833 22.5505C302.878 21.9226 302.74 21.295 302.435 20.7439C302.131 20.1927 301.674 19.7416 301.118 19.4451C300.143 18.8427 299.073 18.4105 297.953 18.1669C297.122 17.9332 296.258 17.8366 295.396 17.8811C295.115 17.8934 294.84 17.9671 294.591 18.097C294.341 18.2269 294.123 18.4099 293.952 18.633C293.771 18.9978 293.674 19.3984 293.668 19.8055C293.661 20.2127 293.746 20.6162 293.915 20.9865C294.314 22.174 294.903 23.2888 295.659 24.2875C296.24 25.1229 297.014 25.8064 297.915 26.2801C298.372 26.5117 298.875 26.6362 299.387 26.644C299.899 26.6518 300.406 26.5428 300.87 26.3252C301.686 25.8678 302.295 25.1139 302.569 24.2198L302.675 23.9867Z" fill="#BA68C8"/>
<path d="M296.914 12.6555C295.937 10.9412 295.523 8.97113 296.719 7.29435C298.118 5.33937 300.937 6.41461 302.411 7.68535C303.885 8.9561 305.419 10.9487 305.75 13.0089C306.171 15.6858 304.02 17.2122 301.524 16.5805C299.546 16.0768 297.9 14.3925 296.914 12.6555Z" fill="#BA68C8"/>
<path d="M319.698 15.0013C319.239 14.8497 318.794 14.6585 318.367 14.4298C317.8 14.1609 317.323 13.7342 316.992 13.2007C316.661 12.6672 316.491 12.0497 316.503 11.4221C316.458 10.2748 316.608 9.12833 316.946 8.03099C317.151 7.19437 317.492 6.39687 317.954 5.66997C318.105 5.43052 318.308 5.22751 318.547 5.07543C318.786 4.92335 319.056 4.82596 319.337 4.79022C319.744 4.81137 320.142 4.9237 320.5 5.11892C320.857 5.31414 321.167 5.58725 321.405 5.9181C322.243 6.84906 322.924 7.91071 323.42 9.06111C323.869 9.99786 324.078 11.0313 324.029 12.0688C324.007 12.5804 323.869 13.0802 323.624 13.5299C323.379 13.9796 323.034 14.3671 322.616 14.6629C321.82 15.1509 320.865 15.31 319.954 15.1065L319.698 15.0013Z" fill="#BA68C8"/>
<path d="M312.924 3.78283C311.894 2.09102 310.367 0.775159 308.322 1.01577C305.939 1.29398 305.51 4.28661 305.908 6.18897C306.307 8.09132 307.307 10.4072 308.916 11.6855C311.059 13.3472 313.428 12.2043 314.089 9.71547C314.646 7.75296 313.962 5.49721 312.924 3.78283Z" fill="#BA68C8"/>
<path d="M17.8936 152.693C17.435 153.866 17.5327 155.189 17.2319 156.415C16.7808 158.264 15.4574 159.813 15.0363 161.678C14.7958 162.894 14.9235 164.153 15.403 165.296C15.8826 166.439 16.6922 167.412 17.7282 168.092C18.7834 168.743 19.9901 169.109 21.2294 169.152C22.4686 169.196 23.6979 168.916 24.7962 168.34C26.3001 167.55 27.6535 166.438 29.1874 165.641C30.5785 164.889 32.1124 164.641 33.4057 163.648C34.616 162.761 35.4588 161.461 35.7742 159.994C35.9581 159.101 35.8609 158.174 35.496 157.339C34.9246 155.926 33.8644 153.971 32.4884 153.241C31.1123 152.512 29.7288 152.647 28.3303 152.377C26.9317 152.106 25.5782 151.249 24.1947 150.677C21.8262 149.677 18.9613 150.046 17.8936 152.693Z" fill="#BA68C8"/>
<path d="M13.8251 157.866C13.9127 157.427 13.963 156.982 13.9754 156.535C14.016 155.955 13.8878 155.376 13.6063 154.868C13.3247 154.359 12.9019 153.943 12.3889 153.67C11.4895 153.109 10.5 152.707 9.46394 152.482C8.69585 152.27 7.89889 152.181 7.10291 152.219C6.83906 152.237 6.58262 152.314 6.35235 152.444C6.12208 152.574 5.9238 152.754 5.77202 152.971C5.60835 153.308 5.52332 153.678 5.52332 154.054C5.52332 154.429 5.60835 154.799 5.77202 155.136C6.1357 156.217 6.6742 157.23 7.36608 158.136C7.91067 158.913 8.63579 159.545 9.47897 159.979C9.90451 160.184 10.3711 160.291 10.8437 160.291C11.3164 160.291 11.7829 160.184 12.2084 159.979C12.9378 159.579 13.4925 158.922 13.7649 158.136C13.7875 158.016 13.81 157.941 13.8251 157.866Z" fill="#BA68C8"/>
<path d="M8.50893 147.392C7.60662 145.805 7.22315 143.993 8.32847 142.444C9.62176 140.632 12.2234 141.632 13.5919 142.798C15.148 144.039 16.2352 145.773 16.6748 147.715C17.0658 150.196 15.0732 151.602 12.7723 151.016C10.9319 150.412 9.40145 149.111 8.50893 147.392Z" fill="#BA68C8"/>
<path d="M29.5548 149.557C29.1287 149.419 28.716 149.243 28.3217 149.031C27.7968 148.783 27.3549 148.388 27.0493 147.894C26.7438 147.401 26.5877 146.829 26.5998 146.249C26.5601 145.19 26.6999 144.132 27.0133 143.121C27.1972 142.345 27.5098 141.605 27.9382 140.933C28.0761 140.705 28.2631 140.511 28.4856 140.366C28.7081 140.22 28.9604 140.126 29.224 140.09C29.5982 140.111 29.963 140.215 30.2921 140.395C30.6211 140.574 30.9061 140.825 31.1263 141.128C31.9017 141.988 32.5315 142.968 32.9911 144.03C33.4001 144.888 33.5937 145.833 33.555 146.782C33.5337 147.255 33.4048 147.717 33.1781 148.133C32.9514 148.549 32.6328 148.907 32.2467 149.181C31.5097 149.627 30.6292 149.773 29.7879 149.587L29.5548 149.557Z" fill="#BA68C8"/>
<path d="M23.2911 139.196C22.3437 137.639 20.9376 136.429 19.0428 136.647C16.8397 136.902 16.4487 139.654 16.787 141.414C17.1179 143.379 18.11 145.172 19.5992 146.497C21.5768 148.001 23.7724 146.971 24.3739 144.677C24.7433 142.779 24.3546 140.811 23.2911 139.196Z" fill="#BA68C8"/>
<path d="M110.378 180.499C111.343 181.033 112.259 181.652 113.115 182.348C114.533 183.545 115.796 184.914 116.875 186.424C121.567 192.86 123.371 201.77 120.003 208.981C118.252 212.681 115.424 215.764 111.889 217.828C108.355 219.892 104.279 220.839 100.197 220.546C104.318 221.463 107.34 220.899 111.213 222.102C113.175 222.711 114.641 224.832 115.017 226.839C115.393 228.847 114.777 230.922 112.235 230.922C112.235 231.915 110.355 233.719 107.039 232.81C106.867 233.561 106.453 234.855 100.919 233.922C95.3847 232.99 79.1734 226.403 72.5791 222.644C69.9626 221.261 67.513 219.583 65.2779 217.643C61.2326 214.147 58.5558 209.049 57.3452 203.785C55.8414 197.116 56.3376 190.161 57.2625 183.386C58.7663 172.476 61.3454 159.7 73.7295 156.745C75.1423 156.39 76.6161 156.352 78.0455 156.633C80.3394 157.264 82.2974 158.763 83.5044 160.813C86.4369 165.325 86.5572 171.1 86.2414 176.483C85.9858 180.905 89.2491 178.739 92.0688 178.265C94.9542 177.757 97.8905 177.601 100.814 177.799C104.159 178.001 107.421 178.922 110.378 180.499Z" fill="#37474F"/>
<path d="M112.235 230.975C112.626 228.636 112.476 225.831 110.258 224.869C108.039 223.907 103.987 224.117 103.987 224.117C103.987 224.117 109.37 223.305 111.37 224.561C113.37 225.816 112.874 229.178 112.235 230.975Z" fill="#263238"/>
<path d="M107.039 232.847C107.43 230.501 107.28 227.696 105.069 226.741C102.859 225.787 98.7907 225.99 98.7907 225.99C98.7907 225.99 104.182 225.177 106.175 226.433C108.167 227.689 107.678 231.073 107.039 232.847Z" fill="#263238"/>
<path d="M95.2412 213.711C94.6853 213.794 94.1174 213.692 93.6253 213.42C93.1333 213.148 92.7445 212.722 92.5193 212.207C93.4818 214.636 91.9403 217.523 89.6545 218.786C87.3687 220.049 84.5866 220.012 82.0075 219.583C72.8115 218.079 64.4276 211.35 61.7734 202.409C60.3522 197.65 60.5402 192.529 61.5252 187.657C63.0126 180.411 66.1776 173.615 70.7663 167.814C74.2928 163.347 78.8569 159.385 84.3911 158.039C89.9252 156.693 96.5045 158.67 99.2715 163.648C100.159 165.371 100.727 167.241 100.948 169.167C101.963 176.235 100.595 183.393 101.46 190.469C102.001 194.981 103.121 199.59 102.249 204.131C101.55 207.853 99.6776 213.237 95.2412 213.711Z" fill="#717171"/>
<path d="M70.4352 193.853C73.0689 192.721 75.9803 192.402 78.7966 192.935C80.8493 193.244 83.0073 193.92 84.2254 195.597C84.4961 194.221 86.4812 193.83 87.6391 194.589C88.7971 195.349 89.361 196.763 89.8347 198.078C90.1656 196.101 90.6844 193.853 92.4665 192.943C94.2485 192.033 96.7374 193.274 97.9705 194.68C98.9331 195.862 99.6329 197.236 100.023 198.71C100.332 198.071 101.241 198.078 101.918 198.296C102.121 198.357 102.309 198.447 102.497 198.522C102.665 200.409 102.584 202.31 102.256 204.176C101.557 207.853 99.6849 213.199 95.241 213.711C94.6863 213.792 94.12 213.69 93.6296 213.418C93.1391 213.146 92.7515 212.721 92.5266 212.207C93.4891 214.636 91.9476 217.523 89.6618 218.786C87.376 220.049 84.5939 220.012 82.0148 219.583C79.3446 219.13 76.7603 218.267 74.3527 217.027C71.3527 213.715 68.9007 209.946 67.0892 205.861C66.1788 204.186 65.691 202.315 65.6681 200.409C65.8034 197.582 67.8712 195.078 70.4352 193.853Z" fill="#6F6F6F"/>
<path d="M122.859 139.135C123.04 139.451 123.213 139.775 123.385 140.098C126.235 145.361 128.085 151.647 126.168 157.565C124.16 163.761 118.551 168.911 113.265 172.408C110.392 174.318 101.926 178.972 99.3767 174.243C98.6849 172.957 98.7225 171.43 98.6849 169.972C98.6248 168.122 98.3691 166.174 97.2563 164.708C96.1435 163.242 93.9403 162.452 92.3688 163.415C91.1131 164.204 90.6545 165.814 90.5116 167.295C90.3687 168.776 90.4214 170.303 89.7597 171.663C89.6187 172.008 89.371 172.298 89.0529 172.491C88.5942 172.731 88.0303 172.603 87.549 172.731C84.3233 173.483 85.2933 182.258 85.6016 184.574C85.7444 185.604 85.7219 186.95 84.7519 187.326C84.0677 187.589 83.3308 187.176 82.6841 186.822C81.208 186.001 79.612 185.418 77.9546 185.093C77.3906 184.98 76.6537 184.995 76.4507 185.529C76.2477 186.063 76.6838 186.506 77.0147 186.912C77.5752 187.622 77.9198 188.478 78.0072 189.379C78.0345 189.499 78.0359 189.623 78.0113 189.744C77.9866 189.864 77.9365 189.978 77.8643 190.078C77.6841 190.231 77.4543 190.314 77.2177 190.311C75.9169 190.416 74.6085 190.243 73.3002 190.311C69.8263 190.394 66.6382 193.604 66.7961 197.078C75.3304 193.484 83.4736 199.334 88.1205 206.184C90.7176 209.919 91.9594 214.429 91.6395 218.967C91.4264 222.549 90.1923 225.996 88.0829 228.899C85.5865 232.509 78.6914 236.697 74.6837 236.577C76.5579 237.158 78.4731 237.598 80.4133 237.892C86.4287 238.915 88.2859 238.283 91.2786 239.216C93.2335 239.825 94.7073 241.938 95.0833 243.953C95.4592 245.968 94.8426 248.036 92.2936 248.036C92.2936 249.028 90.4214 250.833 87.1054 249.923C86.9325 250.675 86.5189 251.968 80.9773 251.036C75.4356 250.104 59.2318 243.517 52.6375 239.757C50.0246 238.372 47.5777 236.695 45.3439 234.757C41.2985 231.261 38.6217 226.163 37.4036 220.892C35.8998 214.23 36.4036 207.274 37.3209 200.5C41.1632 172.227 56.6076 158.309 62.4124 152.444C66.9239 147.858 72.1874 144.369 77.7891 141.218C82.1027 138.951 86.11 136.144 89.7146 132.865C93.5569 129.473 95.3088 127.706 97.7526 124.308C99.1361 122.398 100.264 119.473 102.159 116.405C102.159 116.405 108.076 121.849 110.016 123.518C115.171 127.94 119.516 133.224 122.859 139.135Z" fill="#455A64"/>
<path d="M92.2784 248.021C92.6694 245.682 92.519 242.877 90.3084 241.915C88.0978 240.953 84.0299 241.163 84.0299 241.163C84.0299 241.163 89.4211 240.351 91.4137 241.607C93.4063 242.862 92.9251 246.223 92.2784 248.021Z" fill="#263238"/>
<path d="M87.0679 249.87C87.4589 247.532 87.3085 244.727 85.0903 243.772C82.8722 242.817 78.8193 243.02 78.8193 243.02C78.8193 243.02 84.2031 242.208 86.2032 243.464C88.2033 244.72 87.7296 248.096 87.0679 249.87Z" fill="#263238"/>
<path d="M160.109 157.234C161.68 158.738 163.199 160.317 164.62 161.979C166.493 164.167 157.101 181.732 155.109 181.95C151.477 182.341 147.334 180.837 143.604 179.175C142.172 178.403 140.583 177.963 138.957 177.889C136.153 177.987 134.085 180.145 131.965 181.649C129.452 183.357 126.696 184.677 123.791 185.566C121.766 186.251 119.674 186.722 117.55 186.972C117.069 187.055 116.625 193.191 116.558 193.845C116.257 196.612 116.054 199.402 115.896 202.184C115.493 207.467 114.808 212.726 113.843 217.936C112.497 226.072 113.309 235.682 119.295 241.998C123.31 246.209 126.709 245.562 126.445 250.269C126.363 250.885 126.063 251.45 125.6 251.864C125.136 252.278 124.54 252.512 123.919 252.525C123.355 254.502 120.701 254.247 120.701 254.247C120.701 254.247 119.874 256.75 112.106 254.577C108.001 253.427 107.076 248.374 106.204 245.87C106.204 244.945 105.377 243.66 105.068 242.787C104.61 241.486 104.219 240.156 103.805 238.832C102.913 236.02 102.043 233.2 101.196 230.373C100.514 228.343 100.038 226.25 99.7749 224.125C99.6697 222.487 99.6697 220.845 99.7749 219.207C99.7749 218.455 99.7749 217.748 99.8275 217.019C99.9246 208.408 99.3261 199.803 98.038 191.288C97.2725 185.766 96.0143 180.323 94.2784 175.024C88.6315 158.151 103.888 115.427 115.332 115.623C123.317 115.856 137.754 116.894 139.987 130.661C141.16 137.872 144.71 142.692 149.83 147.677C153.191 150.986 156.763 153.993 160.109 157.234Z" fill="#455A64"/>
<path d="M120.701 254.277C121.047 253.247 121.332 251.562 119.843 250.908C118.355 250.254 116.625 249.367 116.625 249.367C118.012 249.754 119.371 250.233 120.693 250.803C121.445 251.277 121.731 252.69 120.701 254.277Z" fill="#37474F"/>
<path d="M123.912 252.555C124.258 251.525 124.544 249.84 123.055 249.186C121.566 248.532 119.837 247.682 119.837 247.682C121.226 248.069 122.588 248.549 123.912 249.118C124.664 249.555 124.95 250.968 123.912 252.555Z" fill="#37474F"/>
<path d="M127.544 140.73C126.992 142.299 126.252 143.796 125.341 145.189C123.664 147.707 121.371 149.7 119.416 152.031C117.461 154.362 115.814 157.129 115.844 160.144C115.844 159.941 118.514 158.941 118.807 158.821C118.378 160.016 117.423 161.077 117.01 162.34C116.54 163.771 116.374 165.285 116.521 166.784C117.374 165.479 118.472 164.353 119.754 163.468C119.251 163.814 119.063 165.889 118.965 166.475C118.791 167.544 118.718 168.626 118.747 169.709C118.799 171.468 118.905 173.228 118.912 175.01C119.033 179.052 118.574 183.09 117.551 187.003C119.317 186.863 121.062 186.53 122.754 186.01C125.778 185.113 128.689 183.875 131.432 182.318C136.011 179.777 138.199 177.521 141.019 173.092C148.823 160.753 143.537 144.083 133.176 135.015C132.681 134.525 132.089 134.144 131.439 133.895C131.111 133.777 130.758 133.752 130.417 133.823C130.076 133.893 129.761 134.056 129.507 134.293C129.203 134.703 129.011 135.185 128.95 135.692C128.599 137.402 128.129 139.085 127.544 140.73Z" fill="#828282"/>
<path d="M135.898 85.2003C135.575 84.2379 135.477 83.1777 134.665 82.4784C133.717 81.6513 132.409 81.5084 131.898 80.2226C131.747 79.8171 131.699 79.3807 131.756 78.952C131.814 78.5232 131.976 78.1152 132.229 77.7639C133.108 76.5608 134.785 76.3352 136.274 76.26C138.8 75.979 141.351 76.0144 143.868 76.3653C146.404 76.7295 148.733 77.9659 150.455 79.8617C151.096 80.7 151.674 81.5847 152.184 82.5085C153.27 84.3242 154.486 86.0582 155.824 87.6967C156.02 87.874 156.175 88.0928 156.276 88.3373C156.378 88.5819 156.424 88.8459 156.41 89.1103C156.26 89.7645 155.44 89.9976 154.771 89.96C153.985 89.9212 153.223 89.6775 152.56 89.2532C153.192 90.6217 153.816 91.9977 154.448 93.3662C154.973 94.2796 155.233 95.3209 155.2 96.3738C155.09 97.0591 154.738 97.6824 154.209 98.1307C153.679 98.579 153.006 98.8227 152.312 98.8176C152.861 98.8176 153.403 102.201 153.448 102.66C153.547 103.912 153.239 105.162 152.568 106.224C151.275 108.254 148.229 108.48 146.289 107.329C144.168 105.932 142.561 103.881 141.71 101.487C140.62 98.8101 140.297 95.8024 139.079 93.2158C137.863 90.6082 136.801 87.9318 135.898 85.2003Z" fill="black"/>
<path d="M139.995 121.668C139.281 123.322 139.243 125.646 139.905 130.571C137.83 131.654 126.423 135.789 116.475 133.315C106.527 130.842 101.301 127.781 98.0079 124.405C102.685 110.42 101.595 95.1556 101.595 95.1556L139.995 121.668Z" fill="#455A64"/>
<path d="M126.31 79.185C134.468 78.1173 136.619 80.2828 139.845 82.4483C142.561 84.3517 144.823 86.8321 146.469 89.7119C147.852 91.9676 146.928 96.5618 147.484 98.1484C148.04 99.7349 152.206 103.156 153.432 105.953C154.657 108.75 153.747 111.299 153.033 115.164C152.319 119.029 149.379 119.676 149.379 119.676C148.153 121.813 146.179 123.42 143.837 124.187C140.078 125.323 134.596 123.112 134.596 123.112C134.596 123.112 132.431 125.744 126.964 124.338C118.941 122.277 118.197 123.503 113.903 122.037C106.384 119.488 105.738 116.021 102.572 109.397C99.4064 102.773 99.256 96.0505 106.926 87.7794C112.911 81.2904 119.543 80.0497 126.31 79.185Z" fill="#455A64"/>
<path d="M150.756 102.224C148.5 100.938 146.101 99.8854 143.988 98.3139C140.071 95.3889 137.296 91.2835 133.943 87.7871C133.281 87.0878 131.559 85.5313 131.597 86.193C131.935 87.5006 132.456 88.7538 133.146 89.915C134.777 92.8475 136.687 95.8927 137.184 99.314C137.68 102.735 135.89 105.329 133.341 107.45C131.589 108.908 129.649 110.277 128.597 112.3C127.544 114.322 127.266 117.465 128.867 119.232C130.517 120.86 132.445 122.179 134.559 123.127C134.559 123.127 140.011 125.338 143.8 124.202C146.142 123.436 148.116 121.828 149.342 119.691C149.342 119.691 152.282 119.052 152.996 115.179C153.711 111.307 154.621 108.766 153.395 105.968C152.701 104.599 151.812 103.338 150.756 102.224Z" fill="#828282"/>
<path d="M135.762 115.277C135.808 115.362 135.818 115.462 135.792 115.555C135.765 115.647 135.703 115.726 135.619 115.773C135.556 115.807 135.485 115.822 135.414 115.815C135.344 115.808 135.276 115.781 135.221 115.736C135.166 115.692 135.125 115.632 135.104 115.564C135.082 115.497 135.081 115.424 135.101 115.356C135.121 115.287 135.16 115.227 135.214 115.181C135.268 115.135 135.335 115.106 135.405 115.097C135.476 115.089 135.547 115.101 135.611 115.133C135.674 115.165 135.726 115.215 135.762 115.277Z" fill="#37474F"/>
<path d="M138.951 114.525C138.989 114.608 138.994 114.703 138.966 114.789C138.937 114.876 138.876 114.949 138.796 114.993C138.716 115.037 138.622 115.048 138.534 115.026C138.445 115.003 138.368 114.948 138.319 114.871C138.292 114.829 138.274 114.783 138.267 114.734C138.259 114.685 138.261 114.635 138.273 114.587C138.285 114.539 138.307 114.494 138.338 114.455C138.368 114.416 138.406 114.383 138.45 114.36C138.493 114.336 138.541 114.321 138.59 114.317C138.639 114.312 138.689 114.318 138.736 114.333C138.783 114.349 138.826 114.374 138.863 114.407C138.9 114.44 138.93 114.48 138.951 114.525Z" fill="#37474F"/>
<path d="M138.274 117.413C138.297 117.454 138.312 117.5 138.318 117.547C138.324 117.594 138.32 117.642 138.306 117.687C138.293 117.733 138.27 117.776 138.24 117.812C138.21 117.849 138.173 117.879 138.131 117.901C138.047 117.947 137.949 117.958 137.857 117.931C137.765 117.904 137.688 117.842 137.642 117.759C137.615 117.717 137.597 117.67 137.59 117.621C137.582 117.572 137.584 117.522 137.596 117.475C137.608 117.427 137.63 117.382 137.661 117.343C137.691 117.303 137.729 117.271 137.773 117.247C137.816 117.223 137.864 117.209 137.913 117.204C137.962 117.2 138.012 117.206 138.059 117.221C138.106 117.237 138.149 117.262 138.186 117.295C138.223 117.328 138.253 117.368 138.274 117.413Z" fill="#37474F"/>
<path d="M144.29 118.022C144.606 117.712 144.963 117.446 145.35 117.232C145.691 117.006 146.016 116.754 146.32 116.48C146.406 116.405 146.509 116.353 146.621 116.33C146.777 116.331 146.927 116.39 147.042 116.495C147.803 117.03 148.476 117.683 149.034 118.428C149.056 118.453 149.069 118.485 149.072 118.518C149.072 118.518 149.072 118.555 149.027 118.578C148.344 119.124 147.541 119.499 146.685 119.673C145.829 119.847 144.943 119.814 144.102 119.578C143.763 119.48 143.139 119.292 143.425 118.879C143.683 118.564 143.973 118.277 144.29 118.022Z" fill="black"/>
<path d="M132.604 122.984C132.606 123.947 132.977 124.873 133.642 125.571C134.154 125.992 134.779 126.254 135.439 126.323C135.858 126.405 136.29 126.405 136.709 126.323C137.136 126.206 137.528 125.985 137.849 125.681C138.17 125.377 138.412 124.998 138.552 124.578C138.694 124.172 138.755 123.744 138.867 123.323C139.011 122.833 139.205 122.359 139.446 121.909C139.679 121.465 140.025 121.044 140.198 120.593C139.034 120.753 137.853 120.735 136.694 120.54C136.111 120.441 135.536 120.3 134.972 120.119C134.544 119.977 133.807 119.834 133.521 119.48C132.82 120.453 132.497 121.648 132.611 122.841C132.613 122.889 132.611 122.937 132.604 122.984Z" fill="#FFA8A7"/>
<path d="M136.401 120.691C136.281 120.503 135.927 120.578 135.732 120.736C135.469 120.976 135.277 121.282 135.175 121.623C135.048 122.003 134.987 122.403 134.995 122.804C134.968 123.282 135.1 123.755 135.371 124.15C135.381 124.171 135.397 124.188 135.417 124.2C135.437 124.212 135.46 124.218 135.484 124.217C135.551 124.217 135.574 124.12 135.581 124.044C135.581 123.751 135.581 123.458 135.581 123.165C135.583 122.945 135.603 122.726 135.641 122.51C135.727 122.108 135.902 121.731 136.153 121.405C136.264 121.278 136.348 121.13 136.401 120.969C136.42 120.925 136.429 120.878 136.429 120.83C136.429 120.782 136.42 120.735 136.401 120.691Z" fill="#F28F8F"/>
<path opacity="0.2" d="M129.461 95.8775C128.981 94.9169 128.245 94.1076 127.333 93.5391C125.92 92.8624 124.228 93.5391 122.92 94.3737C121.067 95.4664 119.674 97.1954 119.002 99.2386C118.922 99.4528 118.909 99.6861 118.964 99.9078C119.045 100.111 119.187 100.285 119.37 100.404C120.351 101.042 121.523 101.321 122.686 101.194C123.839 101.061 125.001 101.026 126.16 101.088C128.183 101.344 129.845 102.592 131.552 103.6C132.183 103.976 133.341 104.863 134.116 104.81C135.018 104.758 135.025 103.953 134.649 103.307C133.168 100.645 131.078 98.4341 129.461 95.8775Z" fill="black"/>
<path opacity="0.2" d="M147.454 98.1259C147.139 97.0957 147.319 95.1182 147.251 93.6895C147.184 92.2609 145.266 91.524 144.108 91.1631C143.74 91.0053 143.342 90.9284 142.941 90.9374C142.54 90.9465 142.146 91.0414 141.785 91.2157C141.462 91.4754 141.216 91.8191 141.076 92.2091C140.935 92.5991 140.905 93.0202 140.988 93.4264C141.259 95.8776 143.65 97.186 145.642 98.1785L146.785 98.7349C147.312 98.9831 147.838 99.2537 148.364 99.4868C147.962 99.1082 147.65 98.6427 147.454 98.1259Z" fill="black"/>
<path d="M140.816 106.457C140.375 106.938 140.051 107.515 139.868 108.141C139.736 108.593 139.695 109.067 139.75 109.534C139.804 110.002 139.952 110.454 140.184 110.863C140.481 111.308 140.872 111.681 141.329 111.958C141.787 112.235 142.299 112.408 142.831 112.465C142.862 112.476 142.897 112.476 142.928 112.465C142.963 112.447 142.989 112.418 143.004 112.382C143.069 112.242 143.103 112.089 143.103 111.935C143.103 111.78 143.069 111.628 143.004 111.487C142.863 111.294 142.756 111.078 142.688 110.848C142.68 110.718 142.718 110.59 142.797 110.486C142.876 110.383 142.989 110.311 143.116 110.284C144.094 110.126 144.019 111.39 144.034 111.969C144.02 112.13 144.054 112.292 144.132 112.435C144.224 112.549 144.343 112.639 144.477 112.698L146.297 113.675C146.45 113.777 146.626 113.842 146.808 113.863C146.951 113.861 147.091 113.83 147.222 113.773C147.761 113.568 148.237 113.225 148.604 112.779C148.97 112.334 149.214 111.8 149.312 111.232C149.365 110.788 149.312 110.337 149.357 109.893C149.359 109.83 149.375 109.767 149.404 109.71C149.432 109.653 149.473 109.602 149.523 109.562C149.763 109.405 150.139 109.623 150.275 109.841C150.41 110.059 150.327 110.803 150.613 110.367C150.813 109.928 150.913 109.451 150.906 108.968C151.042 107.194 150.275 105.149 148.41 104.705C147.709 104.565 146.991 104.537 146.282 104.622C145.287 104.713 144.301 104.886 143.334 105.141C142.727 105.279 142.144 105.507 141.605 105.818C141.314 105.994 141.049 106.209 140.816 106.457Z" fill="black"/>
<path d="M149.116 117.57C148.653 117.31 148.209 117.018 147.785 116.698C147.471 116.304 147.273 115.83 147.214 115.33C147.131 114.818 147.116 114.3 147.056 113.826C147.056 113.698 147.003 113.548 146.883 113.495C146.816 113.481 146.747 113.492 146.688 113.527C146.629 113.562 146.586 113.618 146.567 113.683C146.537 113.814 146.537 113.95 146.567 114.082C146.602 114.655 146.509 115.23 146.294 115.763C146.079 116.296 145.749 116.775 145.326 117.164C144.795 117.605 144.24 118.017 143.664 118.398C142.161 119.552 140.344 120.225 138.451 120.331C136.559 120.437 134.678 119.97 133.055 118.992C132.799 118.834 132.559 118.661 132.303 118.488C132.175 118.698 132.356 118.946 132.529 119.112C133.517 120.114 134.76 120.828 136.123 121.18C138.845 121.729 141.762 120.759 144.04 119.292C145.056 118.638 146.334 117.788 146.785 116.578C146.62 117.014 147.777 117.804 148.041 117.984C148.425 118.222 148.755 118.536 149.011 118.909C149.161 119.141 149.275 119.395 149.349 119.661C149.708 119.582 150.046 119.429 150.342 119.21C150.078 118.568 149.656 118.004 149.116 117.57Z" fill="#263238"/>
<path d="M114.355 81.7639C113.479 80.6788 112.234 79.9536 110.858 79.7262C109.702 79.6036 108.532 79.7057 107.415 80.027C104.279 80.7789 100.956 83.2377 98.5044 85.2904C96.214 87.1373 94.4419 89.5467 93.3613 92.2833C92.4364 94.8248 92.2785 97.6971 90.692 99.8852C90.4465 100.135 90.3042 100.468 90.2934 100.818C90.3611 101.299 90.9326 101.532 91.4213 101.569C92.2108 101.597 92.9849 101.346 93.6094 100.863C92.8587 102.428 92.4892 104.149 92.531 105.884C92.5729 107.62 93.0248 109.321 93.85 110.848C94.0239 111.243 94.3296 111.564 94.7147 111.758C95.5794 112.081 96.3614 111.156 96.8201 110.359C97.1101 111.686 97.57 112.97 98.1886 114.179C98.9512 115.89 100.279 117.286 101.948 118.134C102.7 118.45 103.647 118.555 104.204 117.954C104.43 117.655 104.576 117.303 104.625 116.931C105.015 115.172 105.189 113.371 105.144 111.57C105.496 111.935 105.973 112.154 106.479 112.181C106.985 112.209 107.483 112.045 107.873 111.72C108.641 111.041 109.169 110.131 109.377 109.126C110.093 106.573 110.18 103.885 109.633 101.291C110.257 101.449 110.843 100.915 111.197 100.366C112.102 98.7139 112.526 96.8412 112.422 94.9601C112.312 92.8946 112.352 90.8239 112.543 88.7643C112.559 88.1589 112.689 87.5621 112.926 87.0048C113.047 86.7276 113.242 86.4894 113.491 86.3168C113.739 86.1442 114.03 86.044 114.332 86.0273C114.648 86.0602 114.961 86.1232 115.265 86.2153C115.417 86.2592 115.578 86.2629 115.732 86.226C115.886 86.1891 116.028 86.1129 116.144 86.0048C116.866 85.1175 114.889 82.3955 114.355 81.7639Z" fill="black"/>
<path d="M129.175 121.488C127.413 120.82 125.56 120.422 123.679 120.307C121.832 120.142 120 119.841 118.197 119.405C116.609 119.015 115.125 118.281 113.851 117.254C113.291 116.815 112.786 116.31 112.347 115.751C111.883 115.016 111.486 114.24 111.159 113.435C111.084 113.269 110.633 112.991 110.588 113.337C110.407 114.841 111.453 116.39 112.407 117.45C113.612 118.713 115.118 119.649 116.784 120.172C118.59 120.748 120.457 121.109 122.348 121.247C123.408 121.345 124.476 121.413 125.543 121.51C126.739 121.616 127.92 121.834 129.115 121.894C129.311 121.871 129.28 121.548 129.175 121.488Z" fill="#263238"/>
<path d="M122.491 87.6665C121.093 88.5312 119.596 89.8696 119.085 91.4787C118.935 91.9525 118.687 92.8021 119.288 93.0578C119.89 93.3134 120.792 92.5615 121.281 92.178C122.26 91.4611 123.277 90.796 124.326 90.1854C124.794 89.9159 125.211 89.5674 125.559 89.1553C126.943 87.3131 124.273 86.689 122.973 87.3883L122.491 87.6665Z" fill="#37474F"/>
<path d="M143.327 85.3507C144.831 86.0124 146.5 87.1327 147.23 88.6516C147.44 89.1027 147.801 89.9148 147.23 90.2532C146.658 90.5915 145.651 89.9675 145.139 89.6516C144.124 89.0351 142.929 88.6065 141.853 88.0952C141.351 87.8948 140.887 87.6071 140.485 87.2455C138.868 85.6138 141.417 84.6213 142.801 85.1401C142.989 85.2003 143.154 85.2755 143.327 85.3507Z" fill="#37474F"/>
<path d="M98.8199 120.345C104.324 125.676 115.52 130.939 126.182 129.924C137.303 128.857 139.792 126.616 139.792 126.616L140.739 131.977C137.162 133.682 133.342 134.823 129.415 135.361C122.265 136.489 107.114 135.007 96.8198 124.962L98.8199 120.345Z" fill="#F5007E"/>
<path d="M127.304 96.4039C127.467 96.7783 127.515 97.1928 127.442 97.5946C127.369 97.9964 127.178 98.3674 126.893 98.6605C126.609 98.9537 126.244 99.1557 125.845 99.2409C125.445 99.3262 125.03 99.2908 124.65 99.1393C124.271 98.9879 123.945 98.7271 123.715 98.3901C123.484 98.0532 123.359 97.6553 123.354 97.2469C123.35 96.8385 123.468 96.4382 123.691 96.0966C123.915 95.7551 124.236 95.4878 124.612 95.3286C124.859 95.2219 125.125 95.165 125.394 95.1613C125.664 95.1576 125.931 95.2071 126.181 95.307C126.431 95.4069 126.659 95.5553 126.852 95.7435C127.044 95.9317 127.198 96.1561 127.304 96.4039Z" fill="white"/>
<path d="M127.612 96.1559C127.774 96.5302 127.822 96.9442 127.748 97.3455C127.675 97.7469 127.484 98.1174 127.2 98.4102C126.916 98.7029 126.551 98.9048 126.152 98.9901C125.753 99.0754 125.338 99.0403 124.959 98.8894C124.58 98.7384 124.254 98.4783 124.023 98.1421C123.792 97.8058 123.666 97.4086 123.661 97.0006C123.656 96.5927 123.773 96.1925 123.995 95.8507C124.218 95.5088 124.537 95.2409 124.912 95.0806C125.16 94.9727 125.427 94.9149 125.697 94.9106C125.967 94.9063 126.235 94.9556 126.486 95.0556C126.737 95.1555 126.966 95.3042 127.159 95.4931C127.352 95.682 127.506 95.9072 127.612 96.1559Z" fill="black"/>
<path d="M125.574 96.4191C125.603 96.5394 125.667 96.6483 125.758 96.7319C125.85 96.8155 125.964 96.8701 126.086 96.8887C126.208 96.9073 126.334 96.8891 126.446 96.8364C126.558 96.7837 126.651 96.6989 126.715 96.5928C126.779 96.4866 126.809 96.364 126.803 96.2403C126.797 96.1167 126.754 95.9977 126.68 95.8985C126.606 95.7993 126.504 95.7244 126.388 95.6832C126.271 95.642 126.145 95.6364 126.025 95.6672C125.945 95.6866 125.871 95.7214 125.805 95.7698C125.739 95.8181 125.684 95.8791 125.642 95.949C125.6 96.0189 125.572 96.0965 125.561 96.1772C125.549 96.2579 125.553 96.3401 125.574 96.4191Z" fill="#FAFAFA"/>
<path d="M145.049 92.8776C144.6 92.8463 144.157 92.9928 143.815 93.2854C143.473 93.578 143.26 93.9932 143.221 94.4415C143.203 94.6625 143.228 94.8849 143.296 95.0959C143.364 95.3069 143.474 95.5023 143.618 95.6708C143.762 95.8394 143.938 95.9776 144.136 96.0777C144.334 96.1777 144.549 96.2375 144.77 96.2537C145.219 96.2849 145.662 96.1384 146.004 95.8458C146.346 95.5532 146.559 95.138 146.597 94.6897C146.616 94.4688 146.59 94.2464 146.522 94.0354C146.454 93.8244 146.345 93.6289 146.201 93.4604C146.057 93.2919 145.881 93.1536 145.683 93.0536C145.485 92.9535 145.27 92.8937 145.049 92.8776Z" fill="white"/>
<path d="M145.168 92.5765C144.719 92.5453 144.276 92.6917 143.934 92.9843C143.592 93.2769 143.379 93.6922 143.341 94.1405C143.321 94.3616 143.346 94.5844 143.414 94.7959C143.482 95.0073 143.591 95.2031 143.735 95.3719C143.879 95.5406 144.056 95.6789 144.254 95.7786C144.452 95.8783 144.668 95.9375 144.89 95.9526C145.339 95.9839 145.782 95.8374 146.124 95.5448C146.466 95.2522 146.679 94.8369 146.717 94.3886C146.736 94.1677 146.71 93.9453 146.642 93.7343C146.574 93.5233 146.465 93.3279 146.321 93.1594C146.177 92.9908 146.001 92.8525 145.803 92.7525C145.605 92.6525 145.389 92.5926 145.168 92.5765Z" fill="black"/>
<path d="M145.491 94.2234C145.425 94.2296 145.358 94.2223 145.295 94.202C145.231 94.1817 145.172 94.1488 145.122 94.1053C145.071 94.0618 145.03 94.0085 145 93.9487C144.971 93.8889 144.954 93.8238 144.95 93.7572C144.94 93.6227 144.983 93.4896 145.07 93.3868C145.157 93.2839 145.282 93.2198 145.416 93.2083C145.482 93.2032 145.549 93.2112 145.612 93.2319C145.675 93.2526 145.734 93.2855 145.784 93.3288C145.834 93.3722 145.875 93.425 145.905 93.4843C145.935 93.5436 145.953 93.6083 145.958 93.6745C145.968 93.809 145.925 93.9421 145.838 94.0449C145.75 94.1477 145.626 94.2119 145.491 94.2234Z" fill="#FAFAFA"/>
<path d="M148.124 178.671C147.875 178.015 147.74 177.321 147.725 176.619C147.439 169.099 148.477 161.287 151.801 154.445C155.237 147.376 159.718 141.233 160.252 133.075C160.425 130.496 160.252 127.812 161.162 125.413C161.583 124.338 162.215 123.36 162.606 122.277C163.26 120.465 163.192 118.48 163.463 116.578C163.612 115.127 164.173 113.75 165.079 112.608C165.467 112.158 165.939 111.789 166.469 111.522C167 111.254 167.578 111.095 168.17 111.051C168.17 108.45 170.734 106.54 173.02 107.292C173.466 106.611 174.112 106.086 174.869 105.788C175.559 105.52 176.319 105.491 177.027 105.705C177.837 105.984 178.528 106.531 178.985 107.256C179.441 107.98 179.637 108.839 179.539 109.69C179.505 109.895 179.505 110.103 179.539 110.307C179.602 110.525 179.706 110.73 179.847 110.908C181.351 113.164 181.952 116.533 180.163 118.743C179.614 119.42 178.892 119.947 178.396 120.661C177.253 122.308 177.569 124.548 176.952 126.458C176.418 128.127 175.2 129.466 174.14 130.864C170.012 136.316 168.967 142.519 168.125 149.189C167.651 152.798 167.207 156.956 166.944 160.588C166.705 164.55 166.086 168.481 165.094 172.325C163.591 177.837 159.831 181.792 153.861 181.837C152.731 181.88 151.605 181.669 150.567 181.22C149.448 180.727 148.569 179.811 148.124 178.671Z" fill="#455A64"/>
<path d="M164.238 174.679C163.538 176.518 162.375 178.146 160.861 179.404C159.348 180.662 157.535 181.508 155.599 181.859C152.756 182.408 149.049 181.859 147.936 178.754C147.597 177.815 147.439 176.82 147.47 175.821C147.321 171.912 147.606 167.998 148.32 164.152C149.553 156.287 154.222 149.783 157.441 142.714C159.061 139.204 159.946 135.399 160.042 131.533C159.998 129.557 160.251 127.585 160.794 125.684C161.486 123.834 162.667 122.3 162.862 120.3C163.155 118.42 163.08 116.405 163.787 114.518C164.081 113.552 164.654 112.695 165.434 112.054C166.214 111.413 167.166 111.017 168.171 110.916L168.05 111.051C168.067 110.131 168.394 109.244 168.978 108.532C169.562 107.821 170.369 107.328 171.268 107.134C171.863 107.017 172.478 107.061 173.051 107.262H172.99C173.416 106.609 174.038 106.108 174.766 105.832C175.494 105.555 176.291 105.516 177.043 105.72C176.297 105.503 175.498 105.556 174.787 105.87C174.075 106.196 173.47 106.718 173.043 107.374C172.483 107.194 171.887 107.161 171.31 107.276C170.734 107.392 170.196 107.654 169.75 108.036C169.285 108.412 168.914 108.891 168.666 109.435C168.418 109.98 168.3 110.574 168.321 111.172C163.637 111.66 163.652 116.691 163.306 120.36C163.148 122.338 161.945 124.059 161.291 125.849C160.17 129.541 160.982 133.631 159.899 137.383C158.554 143.121 155.343 148.196 152.689 153.354C149.027 160.212 147.801 168.092 147.944 175.806C147.748 178.904 149.448 181.416 152.696 181.649C155.114 181.885 157.544 181.334 159.623 180.078C161.703 178.822 163.322 176.928 164.238 174.679Z" fill="#37474F"/>
<path d="M176.08 118.337C175.02 116.668 176.08 114.833 177.411 113.72C178.163 113.119 179.216 112.811 179.938 113.57C180.298 113.998 180.528 114.52 180.6 115.074C180.766 115.775 180.715 116.511 180.453 117.182C180.191 117.854 179.731 118.43 179.133 118.834C178.87 119.034 178.572 119.185 178.254 119.277C177.839 119.361 177.408 119.316 177.02 119.148C176.631 118.98 176.304 118.697 176.08 118.337Z" fill="#37474F"/>
<path d="M176.081 118.337C175.209 117.044 175.727 115.33 176.675 114.247C177.622 112.886 179.682 112.126 180.577 114.036C180.903 114.746 181.011 115.536 180.888 116.307C180.765 117.078 180.416 117.795 179.885 118.367C178.788 119.555 177.036 119.819 176.081 118.367V118.337ZM176.081 118.337C177.081 119.841 178.697 119.443 179.682 118.179C180.092 117.622 180.344 116.966 180.413 116.278C180.482 115.59 180.365 114.896 180.073 114.269C179.449 112.766 177.727 113.435 176.885 114.427C175.855 115.405 175.216 117.044 176.081 118.337Z" fill="#263238"/>
<path d="M175.69 108.171C175.523 108.25 175.367 108.349 175.224 108.465C174.806 108.865 174.491 109.36 174.306 109.908C173.874 110.993 173.642 112.147 173.622 113.315C173.584 113.927 173.681 114.541 173.908 115.112C174.66 116.871 177.306 115.954 178.051 114.585C178.241 114.204 178.38 113.8 178.464 113.382C178.716 111.974 178.502 110.523 177.855 109.247C177.673 108.751 177.307 108.345 176.833 108.111C176.459 107.98 176.048 108.002 175.69 108.171Z" fill="#37474F"/>
<path d="M175.688 108.172C174.132 109.059 173.921 111.179 173.779 112.788C173.636 114.397 174.215 116.413 176.275 115.653C177.967 115.134 178.531 113.255 178.403 111.645C178.268 110.224 177.651 107.375 175.688 108.172ZM175.688 108.172C177.658 107.367 178.395 110.172 178.696 111.615C179.019 113.39 178.373 115.616 176.44 116.18C173.944 117.014 173.154 114.804 173.493 112.766C173.764 111.172 174.14 109.006 175.673 108.172H175.688Z" fill="#263238"/>
<path d="M170.26 110.096C169.696 110.847 169.303 111.712 169.109 112.63C168.909 113.483 168.97 114.376 169.282 115.194C169.47 115.646 169.658 116.232 170.147 116.42C170.892 116.614 171.683 116.514 172.358 116.142C172.686 116.008 172.99 115.823 173.26 115.593C174.23 114.683 174.267 112.848 174.29 111.615C174.29 110.247 173.493 108.397 171.794 108.893C171.168 109.122 170.631 109.543 170.26 110.096Z" fill="#37474F"/>
<path d="M170.26 110.096C169.725 110.771 169.362 111.565 169.201 112.411C169.04 113.257 169.086 114.129 169.335 114.954C169.472 115.345 169.673 115.711 169.929 116.036C170.764 116.728 172.441 115.946 173.14 115.284C174.088 114.157 174.215 111.983 174.005 110.532C173.516 108.329 171.418 108.382 170.245 110.066L170.26 110.096ZM170.26 110.096C171.441 108.337 173.606 108.261 174.276 110.48C174.719 112.487 174.727 115.66 172.343 116.435C170.734 117.089 169.508 116.886 169.08 115.051C168.894 114.19 168.903 113.297 169.107 112.44C169.312 111.582 169.706 110.781 170.26 110.096Z" fill="#263238"/>
<path d="M177.576 119.225C177.534 118.786 177.431 118.356 177.268 117.946C176.434 115.788 174.17 115.337 172.17 116.089C170.001 116.958 168.261 118.646 167.328 120.789C166.854 121.924 166.674 123.345 167.441 124.308C167.662 124.577 167.943 124.791 168.262 124.933C168.58 125.075 168.927 125.142 169.275 125.127C170.335 125.067 171.26 124.247 172.328 124.263C173.757 124.263 175.215 125.436 176.464 124.075C176.971 123.444 177.292 122.683 177.388 121.879C177.582 121.008 177.645 120.114 177.576 119.225Z" fill="#263238"/>
<path d="M166.862 119.834C167.937 120.255 169.704 119.082 170.14 118.127C170.235 117.91 170.303 117.683 170.343 117.45C170.544 116.281 170.354 115.079 169.802 114.029C169.648 113.745 169.419 113.507 169.142 113.342C168.864 113.176 168.546 113.089 168.223 113.089C167.822 113.169 167.449 113.349 167.136 113.612C166.823 113.875 166.582 114.212 166.433 114.593C165.787 115.818 165.012 119.104 166.862 119.834Z" fill="#37474F"/>
<path d="M166.862 119.834C168.268 120.21 170.012 118.879 170.193 117.495C170.373 116.112 170.095 114.345 168.975 113.563C166.501 112.164 164.418 119.007 166.862 119.834ZM166.862 119.834C164.268 118.766 166.11 111.322 169.26 113.067C170.817 114.104 171.043 117.18 169.937 118.586C169.185 119.383 167.997 120.142 166.862 119.811V119.834Z" fill="#263238"/>
<path d="M165.448 132.285C165.299 132.458 165.197 132.667 165.154 132.892C165.11 133.116 165.126 133.348 165.2 133.564C165.463 134.15 166.215 134.316 166.847 134.316L167.313 134.361C167.744 134.429 168.183 134.429 168.614 134.361C168.967 134.303 169.295 134.138 169.552 133.889C169.81 133.639 169.985 133.317 170.055 132.966C170.124 132.614 170.084 132.25 169.941 131.921C169.798 131.593 169.558 131.316 169.253 131.128C168.163 130.481 166.553 131.128 165.726 131.955C165.621 132.054 165.528 132.165 165.448 132.285Z" fill="#37474F"/>
<path d="M76.9773 267.714C72.7891 262.375 64.3902 258.465 57.059 256.187C55.5552 255.72 54.0513 255.269 52.5475 254.841L47.7352 253.487C50.0024 255.375 52.4953 256.974 55.1567 258.247C51.8409 258.738 48.4683 258.703 45.1637 258.142C41.6374 257.429 38.3045 255.97 35.3887 253.863C32.6796 251.872 30.3908 249.365 28.6539 246.486C26.917 243.607 25.7663 240.413 25.2679 237.088C24.1118 238.516 23.4309 240.269 23.3204 242.103C19.4187 236.386 17.9174 229.366 19.1398 222.553C20.3203 215.673 23.8242 208.981 29.9749 205.214C32.1493 203.778 34.5597 202.737 37.0956 202.139C36.8099 204.958 36.5843 207.282 36.4414 210.229C31.178 214.56 33.6668 221.448 35.7797 224.298C38.9152 228.524 44.0959 230.802 49.2691 231.817C53.6679 232.667 58.1944 233.095 62.4127 234.704C64.794 235.54 66.9413 236.932 68.6762 238.765L61.9089 238.163C66.9695 240.097 71.2296 243.681 73.9997 248.337C76.8044 253.104 77.2856 257.127 77.3157 262.661C77.2902 264.35 77.1772 266.036 76.9773 267.714Z" fill="#37474F"/>
<path d="M234.671 83.0505C229.264 84.4415 219.896 87.6673 217.632 100.442C215.369 113.217 213.73 140.662 213.715 140.715C213.384 142.971 205.812 164.528 204.15 167.626C203.398 169.002 202.774 170.311 201.413 171.123C199.624 172.198 197.564 172.777 195.691 173.672C191.18 175.83 187.533 179.424 183.984 182.958C183.713 183.186 183.504 183.478 183.375 183.808C182.578 186.545 187.947 185.605 189.022 184.935C190.939 183.74 195.842 179.988 193.278 185.138C190.954 189.8 187.187 193.53 183.683 197.312C183.112 197.929 182.518 198.816 182.991 199.53C183.578 200.372 184.916 199.786 185.916 200.019C186.052 200.62 185.465 201.132 185.285 201.718C184.969 202.763 186.037 203.786 187.134 203.876C188.224 203.855 189.293 203.568 190.247 203.042C190.569 202.89 190.915 202.798 191.27 202.771C191.732 202.812 192.186 202.921 192.616 203.094C193.556 203.36 194.553 203.342 195.482 203.041C196.411 202.739 197.23 202.169 197.834 201.402C198.004 201.097 198.247 200.838 198.541 200.651C198.814 200.558 199.104 200.524 199.391 200.553C201.955 200.59 202.586 199.417 204.135 197.808C205.842 196.026 207.572 194.327 209.136 192.402C212.497 188.274 215.031 181.514 217.82 176.988C225.151 165.1 228.182 160.288 230.889 154.926C233.232 150.558 234.919 145.868 235.896 141.008C238.227 130.421 238.641 123.338 239.543 118.571C243.01 100.239 241.964 87.3139 234.671 83.0505Z" fill="#C04847"/>
<path d="M251.183 233.328C252.274 234.366 256.612 232.576 259.251 230.516C261.891 228.456 269.026 225.17 271.869 223.666C275.725 221.856 279.733 220.386 283.847 219.275C290.388 217.733 293.246 217.508 296.441 214.214C297.152 213.499 297.699 212.637 298.046 211.69C298.393 210.742 298.53 209.731 298.449 208.725C298.449 208.725 295.945 211.786 286.095 210.274C276.245 208.763 271.057 205.973 267.47 206.515C263.883 207.056 254.605 209.733 248.469 204.898C246.567 203.394 247.364 201.086 248.183 200.815C246.634 201.672 246.183 202.943 245.747 204.252C245.469 205.101 245.138 206.267 244.882 207.041C244.251 209.034 243.213 212.786 240.551 214.628C239.1 215.636 238.589 215.944 239.115 217.124L251.183 233.328Z" fill="#37474F"/>
<path d="M296.314 204.485C299.231 206.936 298.885 208.244 298.569 210.147C298.254 212.049 297.411 212.605 295.479 213.29C293.058 214.147 288.712 214.154 284.418 213.29C280.125 212.425 271.245 208.981 268.545 209.237C265.846 209.492 261.349 211.32 255.913 210.786C250.477 210.252 248.251 208.756 246.89 207.41C246.461 207.025 246.134 206.54 245.938 205.998C245.743 205.456 245.685 204.874 245.77 204.304C245.77 204.304 245.83 200.928 250.183 199.868C253.913 198.936 296.314 204.485 296.314 204.485Z" fill="black"/>
<path d="M224.339 222.922L230.181 246.622L242.55 238.81L247.513 235.524C249.528 234.321 252.776 232.366 255.965 230.486C258.002 229.283 256.107 228.23 257.544 226.614C258.98 224.997 262.627 223.719 262.627 223.719C260.296 223.718 257.977 224.034 255.731 224.659C251.363 225.899 250.13 225.764 248.024 223.343C245.919 220.922 243.851 215.282 239.708 216.891L224.339 222.922Z" fill="#C04847"/>
<path d="M298.449 208.726C299.381 205.387 290.411 198.477 279.922 198.146C269.432 197.815 270.372 200.094 262.973 199.567C255.575 199.041 252.191 198.432 248.183 200.8C246.221 201.936 245.642 205.928 252.792 207.643C259.943 209.357 265.041 206.959 268.387 206.763C271.733 206.568 277.681 209.575 287.313 211.094C295.058 212.275 297.667 211.523 298.449 208.726Z" fill="#F0F0F0"/>
<path d="M294.079 242.539C295.17 243.577 299.508 241.787 302.147 239.727C304.787 237.667 311.922 234.381 314.772 232.877C318.626 231.066 322.631 229.596 326.743 228.486C333.284 226.944 336.149 226.719 339.337 223.425C340.048 222.709 340.596 221.848 340.944 220.901C341.292 219.954 341.431 218.943 341.352 217.936C341.352 217.936 338.841 220.997 328.991 219.485C319.141 217.974 313.952 215.184 310.366 215.726C306.779 216.267 297.5 218.944 291.372 214.109C289.462 212.605 290.259 210.297 291.079 210.026C289.53 210.883 289.079 212.154 288.65 213.463C288.372 214.312 288.034 215.478 287.786 216.252C287.147 218.245 286.109 221.997 283.455 223.839C281.996 224.847 281.485 225.155 282.011 226.335L294.079 242.539Z" fill="#455A64"/>
<path d="M339.21 213.696C342.127 216.147 341.781 217.455 341.465 219.358C341.15 221.26 340.307 221.816 338.375 222.501C335.954 223.358 331.608 223.365 327.314 222.501C323.021 221.636 314.141 218.192 311.441 218.448C308.742 218.703 304.246 220.531 298.809 219.997C293.373 219.463 291.155 217.967 289.786 216.621C289.359 216.235 289.033 215.75 288.837 215.208C288.642 214.667 288.583 214.085 288.666 213.515C288.666 213.515 288.726 210.139 293.08 209.079C296.854 208.147 339.21 213.696 339.21 213.696Z" fill="black"/>
<path d="M267.244 232.133L273.079 255.833L285.448 248.021L290.41 244.735C292.433 243.532 295.674 241.577 298.869 239.697C300.907 238.494 299.005 237.441 300.448 235.825C301.892 234.208 305.524 232.93 305.524 232.93C303.194 232.929 300.874 233.245 298.629 233.87C294.26 235.11 293.027 234.975 290.929 232.554C288.831 230.133 286.749 224.463 282.568 226.102L267.244 232.133Z" fill="#C04847"/>
<path d="M341.352 217.937C342.285 214.598 333.314 207.688 322.818 207.357C312.321 207.026 313.276 209.305 305.869 208.778C298.463 208.252 295.087 207.643 291.079 210.011C289.117 211.147 288.538 215.139 295.688 216.854C302.839 218.568 307.945 216.17 311.283 215.974C314.622 215.779 320.577 218.786 330.209 220.305C337.961 221.516 340.563 220.764 341.352 217.937Z" fill="#F0F0F0"/>
<path d="M260.311 217.493C258.484 210.936 254.063 210.289 254.063 210.289L230.55 215.966C230.55 215.966 286.689 184.664 286.666 178.213L224.4 160.294C224.4 160.294 183.21 207.357 175.578 224.659C171.066 234.862 170.382 242.569 174.457 247.788C181.36 256.623 191.924 256.059 209.797 250.382C227.843 244.645 256.243 235.892 256.243 235.892C256.243 235.892 263.191 227.847 260.311 217.493Z" fill="#455A64"/>
<path d="M260.763 219.403C260.65 218.779 260.514 218.14 260.334 217.493C260.221 217.087 260.093 216.696 259.958 216.335C259.958 216.237 259.883 216.155 259.845 216.057C259.748 215.801 259.65 215.538 259.545 215.305L259.424 215.072C259.311 214.839 259.199 214.606 259.078 214.403L258.966 214.215C258.838 214.004 258.717 213.794 258.59 213.606C258.59 213.561 258.522 213.523 258.492 213.47C258.356 213.282 258.214 213.094 258.078 212.921L257.988 212.824C257.845 212.651 257.702 212.485 257.559 212.335L257.484 212.267C257.334 212.117 257.184 211.974 257.033 211.846C257.033 211.846 256.996 211.846 256.98 211.793L256.529 211.44L256.477 211.403C256.326 211.297 256.183 211.192 256.041 211.102H256.003C255.86 211.012 255.717 210.929 255.582 210.861L255.191 210.673L254.86 210.538L254.589 210.448L254.394 210.395H254.356H254.251H254.198L250.8 211.215L230.686 216.072C230.686 216.072 236.212 210.057 241.273 203.455L241.882 202.658V202.62C242.077 202.364 242.273 202.109 242.461 201.868V201.831C243.371 200.605 244.25 199.379 245.055 198.191L245.108 198.116C245.371 197.725 245.627 197.364 245.86 196.958L223.362 175.814C220.918 188.672 229.881 200.252 229.881 200.252C229.881 200.252 208.076 227.366 199.692 239.607C193.105 249.224 184.398 250.457 178.037 247.209C172.375 244.314 171.871 239.329 171.833 238.667C171.683 242.344 172.533 245.434 174.495 247.961C181.398 256.796 191.962 256.232 209.835 250.555C227.881 244.825 256.266 236.073 256.281 236.065C256.281 236.065 262.003 229.456 260.936 220.508C260.838 220.027 260.763 219.719 260.763 219.403Z" fill="#37474F"/>
<path opacity="0.15" d="M235.543 225.147C243.063 217.982 262.094 209.44 266.297 207.477C264.041 204.552 261.417 204.372 261.357 204.364L249.905 208.252L238.453 212.139C238.453 212.139 224.919 232.945 216.031 235.125C223.334 233.671 230.089 230.216 235.543 225.147Z" fill="black"/>
<path d="M281.327 238.253C280.358 234.612 278.37 231.323 275.598 228.772L271.838 230.2C271.838 230.2 280.793 218.478 286.974 209.823C297.298 195.371 299.982 176.558 291.373 159.144L248.559 170.423L224.399 160.279C217.519 184.942 237.535 200.635 237.535 200.635C237.535 200.635 217.557 232.276 212.91 243.915C208.534 254.886 209.226 263.721 213.76 268.548C221.422 276.729 233.468 278.616 250.1 270.014C265.89 261.864 281.936 250.307 281.936 250.307C281.936 250.307 283.418 246.743 281.327 238.253Z" fill="#455A64"/>
<path d="M275.597 228.772L271.837 230.2C271.837 230.2 253.242 252.63 244.332 254.811C244.332 254.811 255.483 253.419 263.882 244.84C269.326 239.231 275.597 228.772 275.597 228.772Z" fill="#37474F"/>
<path d="M279.56 173.927C280.042 175.716 280.339 177.551 280.448 179.401C280.448 179.859 280.508 180.326 280.561 180.784L280.651 182.16C280.711 183.085 280.786 184.003 280.801 184.927C280.816 185.852 280.884 186.77 280.914 187.687C280.914 188.146 280.914 188.612 280.914 189.07C280.914 189.529 280.914 189.988 280.914 190.454C280.929 192.313 280.836 194.17 280.636 196.018C281.496 194.303 282.036 192.446 282.23 190.537C282.465 188.649 282.536 186.745 282.44 184.845C282.352 182.944 282.1 181.055 281.688 179.198C281.576 178.732 281.463 178.265 281.335 177.807C281.207 177.348 281.042 176.897 280.884 176.446C280.586 175.538 280.139 174.687 279.56 173.927ZM275.651 179.032C275.444 176.33 274.748 173.688 273.598 171.235C274.105 173.828 274.357 176.465 274.35 179.108C274.35 181.732 274.222 184.371 273.974 186.965C273.876 188.281 273.718 189.589 273.56 190.89C273.477 191.544 273.402 192.198 273.312 192.853C273.222 193.507 273.124 194.161 273.034 194.815C272.643 197.432 272.207 200.041 271.718 202.673C272.839 200.227 273.704 197.672 274.297 195.048C274.628 193.747 274.869 192.424 275.109 191.101C275.35 189.777 275.493 188.439 275.62 187.1C275.88 184.41 275.887 181.702 275.643 179.01L275.651 179.032ZM216.685 261.382L216.354 263.217L216.159 265.074L216.069 265.999C216.069 266.308 216.069 266.623 216.069 266.932V268.789C216.685 263.921 217.97 259.162 219.888 254.645C220.099 254.074 220.362 253.517 220.603 252.953L221.354 251.269C221.836 250.141 222.385 249.013 222.896 247.938C223.956 245.727 225.054 243.532 226.227 241.374C228.483 237.043 230.987 232.787 233.483 228.554L241.115 215.876C238.002 219.719 235.1 223.726 232.37 227.854C229.641 231.982 227.107 236.216 224.731 240.584C222.372 244.954 220.361 249.502 218.715 254.187C217.869 256.534 217.191 258.939 216.685 261.382ZM181.495 238.825L181.089 240.652L180.886 241.554C180.841 241.863 180.811 242.178 180.773 242.479L180.57 244.329C181.741 239.563 183.568 234.982 185.999 230.719C186.278 230.178 186.593 229.651 186.902 229.125L187.811 227.531C188.428 226.471 189.097 225.441 189.729 224.403C191.045 222.328 192.383 220.283 193.797 218.275C196.571 214.23 199.519 210.29 202.489 206.372L211.512 194.665C207.978 198.124 204.639 201.77 201.444 205.545C198.248 209.32 195.218 213.245 192.376 217.313C189.525 221.371 186.994 225.645 184.804 230.095C183.714 232.356 182.789 234.693 182.037 237.088L181.495 238.825Z" fill="#37474F"/>
<path d="M272.041 27.5066C274.47 29.5593 275.161 32.4617 277.304 34.6724C280.733 38.2139 286.944 38.0936 289.982 41.981C291.278 43.7923 291.898 46.0007 291.734 48.222C291.636 50.989 290.756 53.8388 291.673 56.4479C292.899 59.9443 296.433 62.17 297.223 65.7642C297.452 66.7913 297.443 67.8572 297.197 68.8803C296.95 69.9034 296.473 70.8566 295.801 71.6668C294.989 72.6142 293.899 73.2984 293.155 74.2985C291.794 76.1407 291.869 78.6295 291.756 80.9154C291.606 83.923 290.846 87.2465 288.433 89.0962C285.884 91.0512 282.252 90.8256 279.41 92.3671C277.507 93.4047 276.109 95.1792 274.357 96.45C272.793 97.5929 270.492 98.3899 268.68 97.3824C267.04 96.5276 265.507 95.4801 264.116 94.2619C262.537 92.7129 261.822 90.4572 260.281 88.8706C257.8 86.3367 253.852 86.0886 250.671 84.5246C248.462 83.3948 246.639 81.6332 245.434 79.464C244.229 77.2949 243.696 74.8162 243.904 72.3435C244.513 66.4033 249.401 61.2602 248.949 55.305C248.731 52.3876 247.243 49.7408 246.303 46.9738C245.363 44.2067 245.092 40.8381 247.002 38.62C248.506 36.8905 250.889 36.3642 252.416 34.6498C254.205 32.6873 253.446 29.8601 254.672 27.6194C255.248 26.6448 256.04 25.8146 256.986 25.1919C257.932 24.5691 259.007 24.1701 260.13 24.0252C263.326 23.5586 266.586 24.1473 269.417 25.702C270.348 26.2173 271.227 26.8216 272.041 27.5066Z" fill="black"/>
<path d="M264.588 27.7018C265.03 28.2559 265.357 28.8924 265.551 29.5741C265.677 30.345 265.552 31.1358 265.197 31.8312C264.841 32.5265 264.272 33.0898 263.573 33.4389C262.865 33.7629 262.096 33.9305 261.318 33.9305C260.539 33.9305 259.77 33.7629 259.062 33.4389C256.174 32.2434 251.543 27.8973 254.219 24.5513C257.114 20.8894 262.648 25.0475 264.588 27.7018Z" fill="#BA68C8"/>
<path d="M212.744 114.473C215.985 100.3 224.617 93.322 234.67 83.0508C234.67 83.0508 236.234 82.5395 243.393 81.2311C250.551 79.9228 264.063 82.3364 273.785 84.2388C275.642 85.2539 291.515 91.6602 290.854 104.33C290.154 117.639 288.65 120.233 288.598 137.354C288.553 149.272 293.576 155.453 296.012 169.326C288.974 182.823 239.761 189.793 220.203 165.175C222.414 158.807 224.843 149.678 220.406 135.204C213.759 131.068 211.233 121.068 212.744 114.473Z" fill="#BA68C8"/>
<path d="M259.747 75.524C260.499 70.0049 266.514 64.6136 268.77 59.7337C271.025 55.0417 272.529 50.8535 272.131 46.5225C271.89 43.9509 269.875 40.6951 267.98 40.0184C267.928 30.6044 259.566 23.7694 247.069 22.5513C242.888 22.2448 238.684 22.5949 234.61 23.589C231.82 24.1466 229.142 25.163 226.685 26.5967C224.316 28.0178 221.572 28.514 219.444 30.4314C217.542 32.1383 216.331 34.8678 217.151 37.2889C217.632 38.7251 218.797 40.1011 218.406 41.5749C218.143 42.5599 217.241 43.2216 216.572 43.996C215.898 44.7702 215.434 45.7038 215.223 46.7079C215.012 47.7121 215.062 48.7535 215.367 49.7331C215.672 50.7128 216.223 51.598 216.967 52.3048C217.711 53.0115 218.623 53.5163 219.617 53.771C219.142 53.4487 218.813 52.9522 218.702 52.3892C218.591 51.8261 218.706 51.2419 219.023 50.7633C218.99 51.164 219.064 51.5663 219.239 51.9285C219.413 52.2908 219.681 52.5998 220.015 52.8236C221.074 53.6866 222.357 54.231 223.713 54.3934C225.07 54.5558 226.445 54.3295 227.677 53.7409C228.211 53.4777 228.655 52.989 229.249 52.9363C230.001 52.8612 231.129 53.3649 231.881 53.5228C233.73 53.9364 235.58 54.3274 237.415 54.8011C240.675 55.5557 243.815 56.7576 246.746 58.3727C248.739 59.5382 249.844 61.8616 251.19 63.7189L259.062 74.569L259.747 75.524Z" fill="black"/>
<path d="M266.95 65.9371C263.318 68.5914 260.483 66.3431 260.483 66.3431L263.491 82.6372C262.844 90.5248 253.385 100.405 241.287 98.6155C231.309 97.1116 239.212 88.5924 240.708 86.4344L239.55 80.983C237.438 81.1727 235.311 81.1198 233.211 80.8251C227.557 79.6972 224.94 75.1782 223.316 70.6441C221.587 65.907 221.699 59.5834 221.917 56.6509C222.058 54.7666 221.941 52.872 221.572 51.019C220.736 46.3348 221.772 41.5096 224.459 37.5823C225.313 38.5006 226.333 39.2482 227.467 39.7854C228.867 40.399 230.358 40.7824 231.88 40.9208C234.338 41.1557 236.818 41.0163 239.234 40.5072C240.48 40.2756 241.705 39.9411 242.896 39.5072C243.874 39.0826 244.784 38.515 245.595 37.8229C245.543 43.0863 247.851 50.004 253.709 51.207C253.853 51.2212 253.989 51.285 254.092 51.3875C254.151 51.4875 254.18 51.6024 254.175 51.7183C254.28 53.5079 254.175 57.8841 257.039 57.5307C258.972 57.2976 258.874 54.8538 260.664 52.5229C262.453 50.1919 267.048 49.1919 269.138 52.1845C272.04 56.3652 270.935 63.0272 266.95 65.9371Z" fill="#C04847"/>
<path d="M223.031 50.2582C223.211 50.4382 224.241 49.5882 225.771 49.5182C227.301 49.4482 228.441 50.1482 228.601 49.9582C228.761 49.7682 228.481 49.5482 227.981 49.2182C227.301 48.7898 226.503 48.5868 225.701 48.6382C224.908 48.6725 224.148 48.9599 223.531 49.4582C223.081 49.8382 222.931 50.1782 223.031 50.2582Z" fill="#A13333"/>
<path d="M238.481 50.4181C238.681 50.5781 239.631 49.6281 241.131 49.4181C242.631 49.2081 243.861 49.7681 244.001 49.5581C244.141 49.3481 243.841 49.1681 243.301 48.8881C242.579 48.5348 241.764 48.416 240.971 48.5481C240.193 48.6558 239.469 49.0057 238.901 49.5481C238.491 49.9981 238.381 50.3481 238.481 50.4181Z" fill="#A13333"/>
<path d="M237.018 46.6493C237.228 47.0393 238.708 46.6493 240.508 46.5593C242.308 46.4693 243.818 46.7593 243.988 46.3593C244.068 46.1693 243.768 45.8193 243.128 45.5093C242.288 45.1283 241.368 44.9567 240.448 45.0093C239.526 45.0384 238.625 45.2851 237.818 45.7293C237.208 46.0993 236.928 46.4693 237.018 46.6493Z" fill="black"/>
<path d="M223.043 46.718C223.333 47.048 224.363 46.638 225.623 46.558C226.883 46.478 227.963 46.668 228.193 46.298C228.293 46.118 228.103 45.778 227.623 45.478C226.983 45.104 226.241 44.9429 225.503 45.018C224.772 45.0745 224.076 45.3498 223.503 45.808C223.053 46.188 222.923 46.538 223.043 46.718Z" fill="black"/>
<path d="M234.932 63.7108C234.116 63.4927 233.276 63.3818 232.432 63.3808C232.042 63.3808 231.672 63.3008 231.592 63.0408C231.544 62.6429 231.614 62.2398 231.792 61.8808L232.792 58.8808C234.172 54.5808 235.152 51.0608 234.982 51.0008C234.812 50.9408 233.542 54.3908 232.162 58.6808L231.212 61.6808C230.986 62.1586 230.94 62.7017 231.082 63.2108C231.146 63.345 231.24 63.4631 231.356 63.5565C231.472 63.6499 231.607 63.7163 231.752 63.7508C231.968 63.7979 232.19 63.8181 232.412 63.8108C233.253 63.8759 234.099 63.8423 234.932 63.7108Z" fill="#A13333"/>
<path d="M239.52 80.9832C246.25 79.5471 251.551 78.2463 254.641 72.9828C256.057 70.2933 257.182 67.46 257.995 64.5313C257.995 64.5313 257.86 70.6218 256.017 74.9153C254.596 78.2237 250.611 81.487 240.024 83.4044L239.52 80.9832Z" fill="#A13333"/>
<path d="M239.429 54.741C239.447 55.2569 239.668 55.7449 240.044 56.0985C240.42 56.4521 240.921 56.6425 241.437 56.6283C241.956 56.5917 242.44 56.3516 242.784 55.9602C243.127 55.5688 243.303 55.0578 243.272 54.538C243.27 54.2785 243.216 54.022 243.113 53.7839C243.01 53.5458 242.86 53.331 242.672 53.1524C242.483 52.9738 242.261 52.8352 242.018 52.7447C241.775 52.6542 241.516 52.6139 241.256 52.6261C240.997 52.6382 240.743 52.7027 240.51 52.8155C240.276 52.9284 240.067 53.0873 239.897 53.2828C239.726 53.4782 239.597 53.7061 239.516 53.9529C239.436 54.1996 239.406 54.46 239.429 54.7185V54.741Z" fill="black"/>
<path d="M224.451 54.9139C224.519 55.2842 224.694 55.6264 224.954 55.8983C225.215 56.1702 225.549 56.3598 225.916 56.4437C226.283 56.5276 226.666 56.5021 227.019 56.3703C227.372 56.2385 227.678 56.0062 227.9 55.7022C228.122 55.3981 228.249 55.0357 228.268 54.6598C228.286 54.2838 228.193 53.9108 228.001 53.5868C227.81 53.2629 227.527 53.0023 227.189 52.8372C226.851 52.6722 226.471 52.6099 226.098 52.6582C225.841 52.6966 225.594 52.7857 225.372 52.9202C225.15 53.0548 224.957 53.2321 224.803 53.442C224.65 53.6518 224.54 53.89 224.48 54.1426C224.419 54.3953 224.41 54.6575 224.451 54.9139Z" fill="black"/>
<path d="M235.069 68.2604C235.456 69.2208 236.206 69.9899 237.156 70.401C238.106 70.812 239.18 70.8318 240.145 70.456C240.624 70.2782 241.063 70.007 241.436 69.6582C241.809 69.3093 242.11 68.8897 242.32 68.4238C242.529 67.9579 242.645 67.4549 242.659 66.9441C242.672 66.4333 242.585 65.9248 242.4 65.4482L235.069 68.2604Z" fill="#AA2F32"/>
<path d="M242.671 66.6815C242.694 67.4933 242.463 68.2922 242.01 68.9663C241.557 69.6404 240.905 70.156 240.144 70.441C239.709 70.6079 239.249 70.697 238.783 70.7042C238.779 69.6592 239.183 68.6538 239.909 67.9024C240.635 67.1509 241.626 66.7128 242.671 66.6815Z" fill="#E86363"/>
<path d="M287.147 90.9683C284.14 87.7125 280.643 85.9079 273.786 84.201C269.274 88.1787 266.778 95.1114 263.913 98.2243C258.522 104.089 237.694 123.88 237.694 123.88C237.694 123.88 232.43 121.662 226.986 119.368C223.806 118.037 209.03 111.436 208.609 109.277C208.278 107.616 207.933 102.593 207.451 100.969C206.781 98.5435 205.853 96.1967 204.684 93.9684C204.375 93.3178 203.98 92.711 203.511 92.1638C203.184 91.796 202.767 91.5189 202.301 91.3593C201.97 91.2865 201.624 91.3317 201.323 91.4871C201.323 91.4871 200.128 88.9155 199.684 88.1561C198.534 86.1786 196.909 83.2987 195.616 81.3888C195.208 80.8714 194.758 80.3886 194.27 79.9452C194.096 79.825 193.898 79.7432 193.689 79.705C193.48 79.6667 193.266 79.6731 193.06 79.7235C192.854 79.7739 192.661 79.8673 192.494 79.9975C192.327 80.1277 192.189 80.2918 192.09 80.479C191.654 81.1708 191.962 82.6145 192.263 83.3589C192.661 84.3439 193.766 86.547 194.157 87.5245C193.067 85.7575 191.902 83.5769 190.969 82.2611C190.396 81.4403 189.735 80.6839 188.999 80.0053C188.335 79.3784 187.55 78.8947 186.691 78.5842C186.406 78.5125 186.109 78.5063 185.821 78.5663C185.534 78.6262 185.264 78.7507 185.031 78.9302C184.799 79.1098 184.61 79.3398 184.479 79.6029C184.349 79.866 184.28 80.1552 184.277 80.4489C183.74 80.4264 183.209 80.5684 182.755 80.856C182.301 81.1436 181.945 81.5629 181.736 82.0581C181.307 83.0731 182.217 85.1635 183.164 86.5696C181.661 85.8552 180.157 87.3215 180.217 88.72C180.277 89.9156 181.826 92.3669 182.367 93.4271C184.533 97.698 186.353 101.255 187.127 104.367C187.571 106.15 188.774 110.15 189.3 111.887C190.45 115.706 192.075 118.218 194.947 120.443C196.195 121.406 197.661 122.256 200.383 124.135C205.872 127.933 213.805 133.489 216.602 135.534C220.565 138.437 225.941 142.64 231.994 145.986C240.754 150.828 244.972 150.152 250.732 146.385C256.612 142.55 274.192 126.699 283.064 117.887C291.2 109.872 294.313 98.7732 287.147 90.9683Z" fill="#C04847"/>
<path d="M183.451 86.893C184.081 87.5143 184.659 88.1857 185.18 88.9006C185.729 89.6525 186.789 91.6451 187.255 92.4422C187.774 93.3306 188.239 94.2496 188.646 95.1942C189.099 96.1069 189.431 97.0751 189.632 98.074C189.632 98.1642 189.541 98.3297 189.459 98.2018C188.965 97.3776 188.533 96.5181 188.165 95.6303C187.767 94.8257 187.346 94.0212 186.902 93.2317C186.458 92.4421 185.398 90.4947 184.947 89.7352C184.398 88.8555 183.857 87.9758 183.315 87.096C183.255 86.9983 183.315 86.7652 183.451 86.893Z" fill="#562D2D"/>
<path d="M184.645 80.6444C185.548 81.5614 186.375 82.5496 187.119 83.5994C188.142 85.092 189.088 86.6354 189.954 88.2237C190.626 89.3566 191.25 90.5171 191.826 91.7051C192.526 92.8694 193.034 94.1388 193.33 95.4647C193.33 95.5775 193.21 95.8858 193.074 95.7204C192.741 95.2581 192.473 94.7521 192.277 94.2165C192.007 93.615 191.744 93.0135 191.458 92.4195C190.901 91.2615 190.3 90.1637 189.661 89.0208C189.022 87.8779 187.811 85.6973 187.134 84.6672C186.698 83.998 186.3 83.3062 185.826 82.6595C185.352 82.0129 184.901 81.449 184.495 80.8098C184.427 80.7647 184.503 80.5091 184.645 80.6444Z" fill="#562D2D"/>
<path d="M192.233 83.4041C191.883 82.5841 191.781 81.6797 191.94 80.8024C192.226 82.5243 194.323 86.3591 195.79 88.9532C197.474 91.9609 197.436 93.6452 197.436 93.6452C197.436 93.6452 196.805 92.2767 194.128 87.5697C193.737 86.5922 192.632 84.3891 192.233 83.4041Z" fill="#562D2D"/>
<path d="M202.272 91.3819C202.433 91.4317 202.587 91.5025 202.73 91.5925C203.411 94.1671 203.901 96.7883 204.196 99.435C204.196 99.435 202.61 94.5024 201.294 91.5097C201.595 91.3544 201.941 91.3092 202.272 91.3819Z" fill="#562D2D"/>
<path d="M166.577 98.0279C166.007 96.7674 165.343 95.5509 164.592 94.3886C164.525 94.2759 164.427 94.4338 164.472 94.5165C165.093 95.6765 165.628 96.8803 166.073 98.1182C166.534 99.2961 166.921 100.501 167.231 101.727C167.541 102.7 167.699 103.714 167.698 104.735C167.697 104.966 167.646 105.195 167.547 105.404C167.448 105.613 167.305 105.798 167.126 105.946C166.673 106.119 166.173 106.119 165.72 105.946C164.79 105.706 163.948 105.202 163.299 104.494C163.209 104.397 163.133 104.306 163.051 104.201C163.506 105.153 164.296 105.905 165.269 106.314C166.434 106.803 167.871 106.577 168.224 105.201C168.385 104.08 168.271 102.937 167.893 101.87C167.554 100.558 167.114 99.273 166.577 98.0279ZM178.668 92.1931C178.155 94.6626 177.244 97.0322 175.969 99.2084C175.512 100.066 174.782 100.747 173.893 101.141C173.426 101.275 172.933 101.295 172.456 101.201C171.979 101.107 171.531 100.901 171.149 100.599C170.325 99.9408 169.676 99.0884 169.262 98.1182C168.776 97.0729 168.356 95.998 168.006 94.8999C167.267 92.6721 166.672 90.3992 166.224 88.0951C165.983 86.9221 165.743 85.7491 165.54 84.5686C165.337 83.3881 165.141 82.2452 164.87 81.0947C164.87 80.9443 164.69 81.0947 164.697 81.2C164.938 84.0616 165.362 86.9048 165.968 89.7117C166.472 92.1722 167.178 94.5866 168.081 96.9301C168.833 98.8926 169.901 101.088 172.134 101.675C172.614 101.801 173.116 101.817 173.603 101.722C174.09 101.627 174.549 101.423 174.946 101.126C175.709 100.496 176.312 99.6947 176.706 98.7874C177.721 96.7115 178.404 94.4887 178.728 92.2006C178.736 92.1855 178.676 92.1329 178.668 92.1931ZM191.067 138.173C190.307 135.779 189.344 133.455 188.187 131.225C187.202 129.36 185.932 127.293 183.676 126.954C183.184 126.88 182.682 126.919 182.207 127.066C181.731 127.213 181.296 127.465 180.931 127.804C180.239 128.514 179.724 129.377 179.428 130.323C178.642 132.496 178.206 134.78 178.134 137.09C178.134 137.135 178.194 137.18 178.202 137.09C178.438 134.578 179.086 132.121 180.119 129.819C180.476 128.919 181.125 128.164 181.962 127.676C182.413 127.491 182.903 127.417 183.389 127.459C183.876 127.5 184.345 127.657 184.759 127.917C185.65 128.478 186.387 129.254 186.902 130.172C187.499 131.155 188.034 132.175 188.503 133.225C189.48 135.363 190.319 137.56 191.015 139.805C191.383 140.94 191.767 142.06 192.082 143.233C192.398 144.406 192.729 145.489 193.12 146.617C193.165 146.752 193.293 146.572 193.278 146.489C192.725 143.671 191.986 140.893 191.067 138.173ZM189.563 129.992C190.27 131.183 191.061 132.321 191.932 133.398C192.015 133.496 192.097 133.33 192.045 133.255C191.297 132.173 190.631 131.037 190.052 129.857C189.481 128.73 188.978 127.57 188.548 126.383C188.127 125.447 187.858 124.449 187.751 123.428C187.726 123.198 187.752 122.966 187.828 122.747C187.903 122.529 188.026 122.33 188.187 122.165C188.613 121.934 189.107 121.867 189.578 121.977C190.531 122.114 191.424 122.524 192.15 123.157L192.421 123.42C191.863 122.526 191 121.863 189.992 121.555C188.774 121.202 187.368 121.555 187.172 122.992C187.135 124.122 187.372 125.244 187.864 126.262C188.335 127.547 188.904 128.794 189.563 129.992Z" fill="#CACACA"/>
<path d="M158.66 41.0026C157.316 46.345 153.984 50.9732 149.344 53.9431L147.178 55.1687C142.285 57.5941 136.657 58.0851 131.418 56.544C126.178 55.0028 121.713 51.5428 118.912 46.8542C116.111 42.1657 115.181 36.5936 116.308 31.2496C117.434 25.9057 120.534 21.183 124.989 18.024L127.094 16.7006C130.798 14.641 135.023 13.7109 139.249 14.0249C143.475 14.339 147.517 15.8835 150.875 18.4678C154.234 21.0522 156.762 24.5633 158.148 28.5678C159.534 32.5724 159.717 36.8951 158.675 41.0026H158.66Z" fill="white"/>
<path d="M143.358 12.8431C137.625 11.3861 131.554 12.1391 126.351 14.9525C121.148 17.7659 117.193 22.4338 115.273 28.0286C113.354 33.6235 113.609 39.7359 115.988 45.1514C118.368 50.5668 122.697 54.8889 128.117 57.2589L129.019 64.5224C129.053 64.7962 129.169 65.0533 129.352 65.26C129.534 65.4668 129.775 65.6135 130.043 65.681C130.31 65.7485 130.592 65.7335 130.85 65.6381C131.109 65.5428 131.333 65.3714 131.493 65.1465L135.726 59.1763C141.621 59.6573 147.482 57.9034 152.143 54.2628C156.804 50.6222 159.926 45.3614 160.887 39.5255C161.848 33.6896 160.579 27.7056 157.332 22.7623C154.084 17.819 149.096 14.2781 143.358 12.8431ZM158.66 41.0024C157.315 46.3448 153.983 50.973 149.344 53.9429L147.178 55.1685C142.285 57.5939 136.657 58.0849 131.418 56.5438C126.178 55.0026 121.712 51.5426 118.912 46.854C116.111 42.1655 115.181 36.5934 116.307 31.2494C117.434 25.9055 120.534 21.1828 124.989 18.0238L127.094 16.7004C130.798 14.6408 135.023 13.7107 139.249 14.0247C143.475 14.3388 147.517 15.8833 150.875 18.4676C154.234 21.052 156.762 24.5631 158.148 28.5676C159.534 32.5722 159.717 36.8949 158.675 41.0024H158.66Z" fill="white"/>
<path d="M137.598 49.1083C122.274 40.9424 121.056 32.1826 125.492 27.9042C129.485 24.0619 136.771 26.5958 137.598 32.0773C138.41 26.5958 145.711 24.0619 149.704 27.9042C154.163 32.16 152.93 40.9199 137.598 49.1083Z" fill="#F5007E"/>
<defs>
<linearGradient id="paint0_linear_43_19" x1="176.557" y1="162.533" x2="176.557" y2="312.229" gradientUnits="userSpaceOnUse">
<stop stop-color="#1E0031"/>
<stop offset="1" stop-color="#1E0031" stop-opacity="0"/>
</linearGradient>
</defs>
</svg>
