<svg width="500" height="414" viewBox="0 0 500 414" fill="none" xmlns="http://www.w3.org/2000/svg">
<path opacity="0.2" d="M416.373 240.989C424.128 218.032 431.709 192.639 428.481 168.627C425.254 144.616 411.027 114.85 391.73 100.197C377.253 89.1772 362.163 86.1542 342.95 84.3223C324.712 82.5838 310.536 89.8542 294.728 100.26C280.915 109.535 268.614 120.886 258.26 133.911C242.937 152.873 217.631 163.094 193.429 160.41C162.756 156.986 136.186 134.487 105.354 133.603C70.9395 132.627 40.0063 161.215 32.105 194.714C31.9051 195.552 31.7137 196.393 31.5365 197.249C20.869 247.167 48.5044 297.401 95.9392 316.271L133.109 331.068C181.894 353.414 237.902 369.17 290.652 359.316C320.336 353.771 347.642 337.837 368.784 316.267C389.926 294.698 406.673 269.593 416.373 240.989Z" fill="url(#paint0_linear_40_17)"/>
<path d="M500 337.4H0V337.65H500V337.4Z" fill="#1E0031"/>
<path d="M449.9 353.49H416.78V353.74H449.9V353.49Z" fill="#1E0031"/>
<path d="M331.22 356.21H322.53V356.46H331.22V356.21Z" fill="#1E0031"/>
<path d="M415.78 344.21H396.59V344.46H415.78V344.21Z" fill="#1E0031"/>
<path d="M95.65 345.89H52.46V346.14H95.65V345.89Z" fill="#1E0031"/>
<path d="M110.89 345.89H104.56V346.14H110.89V345.89Z" fill="#1E0031"/>
<path d="M225.15 350.11H131.47V350.36H225.15V350.11Z" fill="#1E0031"/>
<path d="M55.4 334.18H141.82V263.18H55.4L55.4 334.18Z" fill="#F5007E"/>
<path d="M54.82 264.88V332.48H51.35V336.19H145.89V332.48H143.3V264.88H145.89V261.17H51.35V264.88H54.82ZM123.44 332.48H117.56V264.88H123.44V332.48ZM126.14 264.88H132V332.48H126.12L126.14 264.88ZM114.86 332.48H109V264.88H114.87L114.86 332.48ZM106.29 332.48H100.41V264.88H106.29V332.48ZM97.71 332.48H91.83V264.88H97.71V332.48ZM89.13 332.48H83.25V264.88H89.13V332.48ZM80.55 332.48H74.68V264.88H80.55V332.48ZM71.98 332.48H66.1V264.88H72L71.98 332.48ZM140.59 332.48H134.72V264.88H140.59V332.48ZM57.52 264.88H63.4V332.48H57.52V264.88Z" fill="#1E0031"/>
<path d="M159.94 334.18H246.36V263.18H159.94V334.18Z" fill="#F5007E"/>
<path d="M159.36 264.88V332.48H155.89V336.19H250.42V332.48H247.83V264.88H250.42V261.17H155.89V264.88H159.36ZM228 332.48H222.1V264.88H228V332.48ZM230.7 264.88H236.58V332.48H230.7V264.88ZM219.42 332.48H213.54V264.88H219.42V332.48ZM210.84 332.48H205V264.88H210.87L210.84 332.48ZM202.27 332.48H196.39V264.88H202.27V332.48ZM193.69 332.48H187.81V264.88H193.69V332.48ZM185.11 332.48H179.23V264.88H185.11V332.48ZM176.53 332.48H170.66V264.88H176.53V332.48ZM245.15 332.48H239.28V264.88H245.15V332.48ZM162.08 264.88H167.96V332.48H162.08V264.88Z" fill="#1E0031"/>
<path d="M159.94 258.82H246.36V187.82H159.94V258.82Z" fill="#F5007E"/>
<path d="M159.36 189.52V257.12H155.89V260.83H250.42V257.12H247.83V189.52H250.42V185.81H155.89V189.52H159.36ZM228 257.12H222.1V189.52H228V257.12ZM230.7 189.52H236.58V257.12H230.7V189.52ZM219.42 257.12H213.54V189.52H219.42V257.12ZM210.84 257.12H205V189.52H210.87L210.84 257.12ZM202.27 257.12H196.39V189.52H202.27V257.12ZM193.69 257.12H187.81V189.52H193.69V257.12ZM185.11 257.12H179.23V189.52H185.11V257.12ZM176.53 257.12H170.66V189.52H176.53V257.12ZM245.15 257.12H239.28V189.52H245.15V257.12ZM162.08 189.52H167.96V257.12H162.08V189.52Z" fill="#1E0031"/>
<path d="M264.407 63.1952C273.603 53.9984 273.603 39.0873 264.407 29.8905C255.21 20.6936 240.299 20.6936 231.102 29.8905C221.905 39.0873 221.905 53.9984 231.102 63.1952C240.299 72.3921 255.21 72.3921 264.407 63.1952Z" fill="#F5007E"/>
<path d="M258.746 63.2806C267.992 57.2072 270.563 44.7884 264.49 35.5425C258.417 26.2966 245.998 23.7247 236.752 29.7982C227.506 35.8716 224.934 48.2904 231.008 57.5363C237.081 66.7822 249.5 69.3541 258.746 63.2806Z" fill="#F0F0F0"/>
<path d="M248.7 32.8V46.8L257.98 41.55" fill="#F0F0F0"/>
<path d="M248.7 32.8V46.8L257.98 41.55" stroke="#F5007E" stroke-width="2" stroke-linecap="round" stroke-linejoin="round"/>
<path d="M364.73 70.96H304.23V151.1H364.73V70.96Z" fill="#1E0031"/>
<path d="M362.16 73.43H306.81V148.62H362.16V73.43Z" fill="#F5007E"/>
<path d="M319.68 146H328.81V114.77C326.389 114.77 324.066 115.732 322.354 117.444C320.642 119.156 319.68 121.479 319.68 123.9V146Z" fill="#1E0031"/>
<path d="M317.14 146H328.81V143.33C328.81 142.74 328.694 142.155 328.467 141.609C328.241 141.064 327.909 140.569 327.491 140.152C327.073 139.734 326.577 139.404 326.031 139.179C325.485 138.954 324.9 138.839 324.31 138.84C322.41 138.84 320.588 139.594 319.244 140.936C317.899 142.279 317.143 144.1 317.14 146Z" fill="white"/>
<path d="M346.05 111.03H325.32V145.06H346.05V111.03Z" fill="white"/>
<path d="M350.49 145.06H341.61V114.67C342.776 114.669 343.932 114.897 345.01 115.343C346.088 115.789 347.067 116.443 347.892 117.268C348.717 118.093 349.371 119.072 349.817 120.15C350.263 121.228 350.491 122.383 350.49 123.55V145.06Z" fill="#1E0031"/>
<path d="M353.67 146H342V143.33C342 142.74 342.116 142.155 342.343 141.609C342.569 141.064 342.901 140.569 343.319 140.152C343.737 139.734 344.233 139.404 344.779 139.179C345.325 138.954 345.91 138.839 346.5 138.84C348.399 138.84 350.22 139.594 351.563 140.937C352.906 142.28 353.66 144.101 353.66 146H353.67Z" fill="white"/>
<path d="M323.86 90C321.08 87.86 319.14 83.34 317.56 77.79C325.44 78.64 330.93 81.1 332.82 85.98L323.86 90Z" fill="#F0F0F0"/>
<path d="M319.13 79.24C319.867 82.8101 321.494 86.1363 323.86 88.91L328.34 85.99L319.13 79.24Z" fill="#F5007E"/>
<path d="M315.74 104.43C315.74 99.3199 321.79 89.6299 325.74 87.0299C329.69 84.4299 339.25 83.52 343.04 86.38C346.83 89.24 349.16 100.67 349.16 105.08C349.16 109.49 348.16 110.18 345.87 112.62C343.58 115.06 334.32 113.4 328.95 112.62C323.58 111.84 315.74 109.55 315.74 104.43Z" fill="#F0F0F0"/>
<path d="M335.47 96.64C335.67 97.87 335.33 98.95 334.72 99.05C334.11 99.15 333.44 98.24 333.24 97C333.04 95.76 333.38 94.69 333.99 94.59C334.6 94.49 335.27 95.41 335.47 96.64Z" fill="black"/>
<path d="M324.09 95.6C324.29 96.84 323.95 97.92 323.33 98.02C322.71 98.12 322.05 97.2 321.85 95.96C321.65 94.72 321.99 93.65 322.61 93.55C323.23 93.45 323.89 94.37 324.09 95.6Z" fill="black"/>
<path d="M319.99 99.44L323.86 100.34L321.8 102.88L319.99 99.44Z" fill="#828282"/>
<path d="M323.43 104.37C322.92 104.43 325.28 108.45 323.43 108.11C323.698 108.276 324.003 108.372 324.317 108.39C324.632 108.407 324.946 108.345 325.23 108.21C325.23 108.21 326.35 111.21 327.55 111.21C328.75 111.21 327.78 108.08 327.78 108.08C327.78 108.08 330.42 107.83 331.05 106.97C331.05 106.97 324.17 109.13 323.43 104.38V104.37Z" fill="#F5007E"/>
<path d="M338.06 87.62L345.61 98.62L347 93.1C347.85 88.82 346.52 83.84 343.36 78.26C340.83 81.43 338.84 84.56 338.06 87.62Z" fill="#F0F0F0"/>
<path d="M342.65 81.77C341.36 82.67 340.15 85.71 338.95 88.91L343.65 95.78L342.65 81.77Z" fill="#F5007E"/>
<path d="M441.84 70.96H381.34V151.1H441.84V70.96Z" fill="black"/>
<path d="M439.27 73.43H383.92V148.62H439.27V73.43Z" fill="#1E0031"/>
<path d="M398.09 112.38C396.76 112.38 394.78 125.45 394.78 125.45C392.961 126.122 391.1 126.677 389.21 127.11C386.42 127.71 386.42 134.32 386.42 134.32H398.09C398.09 134.32 401.85 126.65 401.94 124.4C402.03 122.15 401.43 116.59 400.43 114.49C399.43 112.39 399.43 112.38 398.09 112.38Z" fill="white"/>
<path d="M400.51 103.87C400.51 103.87 396.85 114.39 398 122C399.15 129.61 406 134.32 406 134.32H431.64C431.64 134.32 436.92 130.93 436.84 127.81C436.76 124.69 437.65 122.2 433.74 119.09C429.83 115.98 419.62 115.89 419.62 115.89L413.62 105.47L400.51 103.87Z" fill="white"/>
<path d="M410.18 112.38C407.77 112.38 404.18 125.45 404.18 125.45C404.18 125.45 399.18 126.5 394.18 127.11C389.18 127.72 389.18 134.32 389.18 134.32H410.18C410.18 134.32 416.95 126.65 417.11 124.4C417.27 122.15 416.18 116.59 414.38 114.49C412.58 112.39 412.58 112.38 410.18 112.38Z" fill="#F0F0F0"/>
<path d="M434 120.5C432.67 120.5 430.69 129.36 430.69 129.36C430.69 129.36 427.92 130.07 425.13 130.48C422.34 130.89 422.33 135.37 422.33 135.37H434C434 135.37 437.76 130.17 437.85 128.64C437.94 127.11 437.34 123.35 436.34 121.92C435.34 120.49 435.33 120.5 434 120.5Z" fill="#F0F0F0"/>
<path d="M412.72 95.92L426.82 90.07L422.36 102.04L412.72 95.92Z" fill="white"/>
<path d="M424.85 92.77L419.77 100.4L421.79 101.68L424.85 92.77Z" fill="#F5007E"/>
<path d="M419.36 94.8C423.66 98.05 428.13 100.35 423.71 106.54C423.71 106.54 428.82 109.91 425.93 112.47C423.04 115.03 416.19 117.36 410.93 115.66C405.67 113.96 400.03 107.12 400.47 101.66C400.91 96.2 412.06 89.26 419.36 94.8Z" fill="white"/>
<path d="M425.17 109.67L421.79 107.9L422.71 111.27L425.17 109.67Z" fill="#0D0D0D"/>
<path d="M423.13 110.12C422.747 110.836 422.189 111.443 421.51 111.887C420.83 112.331 420.049 112.597 419.24 112.66C416.29 113.03 415.75 109.97 415.75 109.97C415.75 109.97 414.75 114.19 416.7 114.97C418.65 115.75 419.08 113.42 419.08 113.42C419.753 113.7 420.476 113.845 421.205 113.845C421.934 113.845 422.657 113.7 423.33 113.42C422.512 113.523 421.682 113.387 420.94 113.03C420.94 113.03 423.28 111.71 423.13 110.12Z" fill="#F5007E"/>
<path d="M417.639 103.211C417.999 102.792 418.12 102.306 417.91 102.127C417.701 101.947 417.239 102.141 416.88 102.56C416.52 102.979 416.399 103.465 416.608 103.645C416.818 103.824 417.279 103.63 417.639 103.211Z" fill="black"/>
<path d="M422.73 105.52C422.38 105.93 422.25 106.42 422.46 106.6C422.67 106.78 423.13 106.6 423.46 106.17C423.79 105.74 423.94 105.26 423.73 105.08C423.52 104.9 423.09 105.1 422.73 105.52Z" fill="black"/>
<path d="M404.38 95.9L417.7 84.62L416.92 96.37L407.96 101.05L404.38 95.9Z" fill="white"/>
<path d="M415.96 88.32L409.48 100.25L415.96 96.88V88.32Z" fill="#F5007E"/>
<path d="M250.001 398C357.144 398 444.001 385.016 444.001 369C444.001 352.984 357.144 340 250.001 340C142.857 340 56.0006 352.984 56.0006 369C56.0006 385.016 142.857 398 250.001 398Z" fill="url(#paint1_linear_40_17)"/>
<path d="M302 202.43L278.88 202.08C278.21 204.396 277.699 206.755 277.35 209.14C276.2 210.64 274.69 212.63 273.57 212.79C274.68 212.63 276.28 212.93 276.79 211.93C275.71 214.06 274.63 215.46 274.79 217.85L276.43 215.85C275.277 218.479 274.872 221.375 275.26 224.22C275.832 223.582 276.149 222.756 276.15 221.9C276.598 224.225 277.577 226.415 279.01 228.3C279.16 227.77 279.3 227.21 279.44 226.64C280.333 228.088 281.527 229.326 282.943 230.271C284.358 231.215 285.96 231.842 287.64 232.11C283.8 236.5 273.87 228.54 268.64 234.11C267.24 235.6 266.19 237.7 267.06 239.89C267.93 242.08 305.06 240.62 309.44 234.25C306.28 226.1 302 202.43 302 202.43Z" fill="#FFCA64"/>
<path opacity="0.2" d="M302 202.43L278.88 202.08C278.21 204.396 277.699 206.755 277.35 209.14C276.2 210.64 274.69 212.63 273.57 212.79C274.68 212.63 276.28 212.93 276.79 211.93C275.71 214.06 274.63 215.46 274.79 217.85L276.43 215.85C275.277 218.479 274.872 221.375 275.26 224.22C275.832 223.582 276.149 222.756 276.15 221.9C276.598 224.225 277.577 226.415 279.01 228.3C279.16 227.77 279.3 227.21 279.44 226.64C280.333 228.088 281.527 229.326 282.943 230.271C284.358 231.215 285.96 231.842 287.64 232.11C283.8 236.5 273.87 228.54 268.64 234.11C267.24 235.6 266.19 237.7 267.06 239.89C267.93 242.08 305.06 240.62 309.44 234.25C306.28 226.1 302 202.43 302 202.43Z" fill="black"/>
<path d="M245.25 179.22L244.72 188.96C245.421 195.142 247.469 201.095 250.72 206.4C252.72 215.04 250.41 225.29 247.38 230.4C246.73 231.48 242.8 233.09 241.76 233.49C240.72 233.89 240.11 237.49 241.27 239.78C242.43 242.07 251.35 239.47 254.83 239.66C258.31 239.85 253.77 240.47 257.91 239.47C258.534 239.294 259.065 238.883 259.391 238.323C259.717 237.764 259.814 237.099 259.66 236.47C258.27 231.58 261.05 220.94 262.16 209.01C265.87 198.34 264.33 190.86 264.33 190.86L245.25 179.22Z" fill="#FFCA64"/>
<path opacity="0.2" d="M245.25 179.22L244.72 188.96C245.421 195.142 247.469 201.095 250.72 206.4C252.72 215.04 250.41 225.29 247.38 230.4C246.73 231.48 242.8 233.09 241.76 233.49C240.72 233.89 240.11 237.49 241.27 239.78C242.43 242.07 251.35 239.47 254.83 239.66C258.31 239.85 253.77 240.47 257.91 239.47C258.534 239.294 259.065 238.883 259.391 238.323C259.717 237.764 259.814 237.099 259.66 236.47C258.27 231.58 261.05 220.94 262.16 209.01C265.87 198.34 264.33 190.86 264.33 190.86L245.25 179.22Z" fill="black"/>
<path d="M398.33 239.52C399.81 238.94 400.7 238.52 400.7 238.52C400.7 238.52 390.76 231.93 382.25 230.13C373.74 228.33 354.78 231.53 348.62 223.86C345.988 220.675 343.611 217.288 341.51 213.73C340.39 211.73 337.78 209.81 336.37 208.01C334.37 205.44 333.24 205.51 331.37 203.4C331.37 203.4 329.8 202.85 331.49 215.33C333.18 227.81 337.3 235.82 346.25 239.99C351.07 242.24 365.38 246.07 375.03 245.73C379.18 245.58 385.6 244.12 390.34 242.62C389.91 242.22 388.28 242.07 387.5 240.23C388.385 240.836 389.386 241.249 390.44 241.444C391.494 241.638 392.578 241.61 393.62 241.36C393.146 241.284 392.704 241.071 392.349 240.748C391.994 240.425 391.74 240.005 391.62 239.54C392.679 240.003 393.822 240.24 394.977 240.236C396.132 240.233 397.274 239.989 398.33 239.52Z" fill="#FFCA64"/>
<path opacity="0.1" d="M362.7 238.07C363.11 239.07 363.53 240.07 363.94 241.07C363.078 240.965 362.258 240.64 361.557 240.127C360.857 239.614 360.3 238.93 359.94 238.14C359.94 239.14 359.94 240.14 359.89 241.14L340.35 227.14C339.73 226.69 337.01 222.14 336.25 222.02C334.86 221.82 331.25 217.73 330.7 219.02C330.7 219.1 334.98 228.44 334.95 228.51C337.149 233.603 341.162 237.698 346.21 240C351.03 242.25 365.34 246.08 374.99 245.74C376.541 245.667 378.084 245.486 379.61 245.2C377.539 244.143 375.331 243.379 373.05 242.93C369.26 242.09 365.12 241.12 362.7 238.07Z" fill="black"/>
<path d="M251.5 127.6C251.5 127.6 237.1 143 238 168.48C238.9 193.96 282.54 212 282.54 212L289.62 227.15C290.887 229.851 292.899 232.134 295.421 233.728C297.942 235.323 300.867 236.163 303.85 236.15L333.96 236.05C341.57 210.7 315.64 168.35 302.75 154.84C289.86 141.33 287.64 118.38 287.64 118.38L251.5 127.6Z" fill="#FFCA64"/>
<path opacity="0.1" d="M282.54 212L286.22 194.78L298 211.54L321.86 218.84L318.29 237L297.39 234.82C290.43 232.76 287.08 221.76 282.54 212Z" fill="black"/>
<path d="M286.22 96.2099C282.11 90.5999 283.22 91.0999 277 87.9699C274.053 86.2808 270.931 84.9162 267.69 83.8999C264.69 82.8999 254.05 83.4499 253.74 86.6299C251.28 85.4499 242.74 81.1199 240.24 79.9399C236.24 84.1399 235.47 94.7799 244.24 99.2099L242.07 98.6099C240.45 98.4799 239.35 100.46 239.66 102.05C239.97 103.64 241.14 104.89 242.14 106.16C244.156 108.725 245.644 111.663 246.521 114.805C247.398 117.947 247.646 121.232 247.25 124.47C246.87 127.47 245.32 135.33 247.08 137.81C249.31 140.96 254.74 135.98 258.48 135.02C264.68 133.44 270.89 131.53 276.32 128.15C287.25 121.32 294.82 107.94 286.22 96.2099Z" fill="#FFCA64"/>
<path opacity="0.2" d="M256.28 107.88C254.07 108.2 251.89 107.27 249.84 106.37L239.61 101.85C239.548 101.319 239.619 100.78 239.817 100.283C240.014 99.7855 240.331 99.3448 240.74 98.9999C241.106 98.7124 241.566 98.5731 242.03 98.6099C242.76 98.8099 243.49 98.9999 244.21 99.2099C235.53 94.7999 236.21 84.1399 240.21 79.9399L242.39 80.9399L240.69 84.2299C236.96 93.6599 251.69 101.32 260 103.23C260.59 105.45 258.48 107.56 256.28 107.88Z" fill="black"/>
<path d="M257.6 89C257.6 89 260.72 88.72 261.88 89.27C263.04 89.82 263.88 91.97 263.88 91.97C263.88 91.97 264.33 89.12 262.3 88.07C260.27 87.02 257.6 89 257.6 89Z" fill="#263238"/>
<path opacity="0.1" d="M249.52 124.64C250.72 123.04 252.66 121.79 254.64 122.11C254.325 122.08 254.021 121.979 253.75 121.817C253.478 121.654 253.247 121.433 253.071 121.17C252.896 120.907 252.782 120.607 252.737 120.294C252.691 119.981 252.716 119.662 252.81 119.36C253.036 118.867 253.44 118.478 253.94 118.271C254.441 118.063 255.002 118.052 255.51 118.24C254.23 117.24 254.56 114.75 256.02 113.78C257.65 112.7 259.81 112.99 261.7 113.46H261.62C256.018 111.274 250.263 109.506 244.4 108.17C244.05 108.09 243.7 107.99 243.35 107.9C246.554 112.805 247.925 118.684 247.22 124.5C247.05 125.88 246.63 128.26 246.4 130.67L246.76 130C247.509 128.13 248.433 126.336 249.52 124.64Z" fill="black"/>
<path d="M243.82 81.65L240 79.84C238.71 81.19 238.18 83.05 237.56 84.84C240.11 85.2 242.31 83.7 243.82 81.65Z" fill="#263238"/>
<path d="M287.31 116.68C286.63 117.638 286.123 118.708 285.81 119.84C285.782 119.975 285.782 120.115 285.81 120.25C284.29 123.64 281.22 126.45 276.65 128.61C265.98 133.61 250.54 133.39 246.65 131.93C246.435 131.902 246.217 131.944 246.028 132.051C245.84 132.157 245.691 132.322 245.604 132.521C245.517 132.719 245.497 132.941 245.547 133.151C245.596 133.362 245.713 133.551 245.88 133.69H245.98C250.66 135.43 266.61 135.46 277.53 130.3C283.02 127.71 286.53 124.19 288.08 119.83C288.348 119.069 288.793 118.383 289.38 117.83L287.31 116.68Z" fill="#263238"/>
<path d="M278.43 130.86C278.24 129.78 277.49 128.38 278.27 127.61C276.62 129.25 275.64 130.68 273.39 131.27L274.75 129.15C272.658 131.007 270.1 132.259 267.35 132.77C267.764 132.043 268.434 131.497 269.23 131.24C266.947 131.525 264.63 131.275 262.46 130.51C267.46 127.2 275.55 123.59 281.6 124.81C280.94 126.11 278.17 129.36 278.43 130.86Z" fill="#FFCA64"/>
<path d="M259.07 134.06C259.07 132.97 258.52 131.48 259.4 130.83C257.52 132.2 256.34 133.47 254.03 133.71L255.69 131.82C253.342 133.337 250.624 134.184 247.83 134.27C248.35 133.616 249.095 133.181 249.92 133.05C247.618 132.987 245.363 132.391 243.33 131.31C248.73 128.78 257.33 126.44 263.12 128.56C262.27 129.75 259 132.55 259.07 134.06Z" fill="#FFCA64"/>
<path d="M296.25 114.69L297.5 115.76L296.5 108.17L298.23 108.44L296.32 103.53L298.62 104.72L296.09 101.72C295.7 100.18 295.09 96.0099 290.62 93.7199C286.15 91.4299 278.92 89.9299 278.92 89.9299C278.92 89.9299 277.23 111.2 279.57 115.19C281.91 119.18 286.74 123.94 292.22 123.38C294.63 123.13 295.75 119.19 296.22 114.75L296.25 114.69Z" fill="#FFCA64"/>
<path opacity="0.2" d="M282.51 94.79C283.28 98.71 281.51 109.51 282.88 113.22C284.25 116.93 289.15 121.72 289.15 121.72L292.26 123.32C287.54 123.82 283.4 120.64 279.61 115.13C277.73 109.73 277.86 99.93 278.96 89.87C279 89.87 281.74 90.88 282.51 94.79Z" fill="black"/>
<path d="M253.64 105.6C251.396 105.117 249.274 104.185 247.4 102.86C246.25 101.42 245.04 98.99 243.05 97.4C243.2 97.46 243.34 97.51 243.48 97.58C246.79 100.986 251.138 103.195 255.84 103.86C255.84 103.86 257.46 106.12 253.64 105.6Z" fill="#263238"/>
<path d="M247.4 102.86C246.33 102.18 245.15 101.35 243.86 100.35L243.78 100.28L243.37 99.96L242.91 99.59C241.8 98.71 240.42 98.68 238.82 98.53C237.956 98.531 237.095 98.4201 236.26 98.2C235.845 98.0803 235.476 97.8391 235.2 97.5076C234.924 97.1761 234.753 96.7694 234.71 96.34C234.753 95.9199 234.929 95.5243 235.211 95.2099C235.493 94.8956 235.867 94.6786 236.28 94.59C237.111 94.4409 237.967 94.5418 238.74 94.88C240.309 95.4697 241.767 96.3218 243.05 97.4C243.2 97.5158 243.343 97.6393 243.48 97.77C245.21 99.35 246.34 101.53 247.4 102.86Z" fill="#E8483F"/>
<path d="M234.36 158.4C235.45 158.33 236.98 158.74 237.55 157.81C236.34 159.81 235.17 161.07 235.13 163.4L236.87 161.59C235.552 164.043 234.93 166.809 235.07 169.59C235.68 169.016 236.054 168.235 236.12 167.4C236.372 169.686 237.149 171.884 238.39 173.82C240.48 168.24 242.1 159.48 239.51 153.82C238.4 154.86 235.87 158.3 234.36 158.4Z" fill="#FFCA64"/>
<path d="M239.59 142.66C240.59 142.97 241.93 143.88 242.79 143.2C240.97 144.65 239.43 145.45 238.59 147.62L240.85 146.51C238.767 148.377 237.232 150.776 236.41 153.45C237.177 153.117 237.794 152.511 238.14 151.75C237.59 153.984 237.57 156.316 238.08 158.56C241.95 154.03 246.47 146.37 245.96 140.21C244.59 140.72 241 143.09 239.59 142.66Z" fill="#FFCA64"/>
<path d="M329.69 204.08L306.57 203.74C305.885 206.055 305.361 208.413 305 210.8C303.85 212.29 302.33 214.28 301.22 214.44C302.33 214.28 303.93 214.58 304.44 213.58C303.36 215.71 302.27 217.11 302.44 219.5L304.08 217.5C302.929 220.13 302.521 223.025 302.9 225.87C303.48 225.237 303.801 224.409 303.8 223.55C304.248 225.875 305.227 228.065 306.66 229.95C306.81 229.42 306.95 228.86 307.09 228.29C307.979 229.741 309.173 230.982 310.589 231.926C312.005 232.871 313.609 233.496 315.29 233.76C311.45 238.15 301.52 230.19 296.29 235.76C294.9 237.24 293.85 239.34 294.72 241.53C295.59 243.72 332.72 242.26 337.1 235.89C334 227.75 329.69 204.08 329.69 204.08Z" fill="#FFCA64"/>
<path opacity="0.1" d="M273.11 207.3L272.22 184.58L267 181.35C261.28 177.35 255.07 173.15 251.87 169.75L246.45 159.55C240.86 162.77 238.21 167.55 238.45 173.86C244.37 187.79 256.11 198.86 273.11 207.3Z" fill="black"/>
<path d="M277.93 242.06C277.93 242.17 277.47 242.22 277.93 242.06Z" fill="#FFCA64"/>
<path d="M286 193L267 181.35L266.95 182.29L266.77 181.98C265.77 183.09 263.83 186.87 262.35 187.19C263.42 186.96 264.99 187.13 265.41 186.12C264.51 188.27 263.55 189.7 263.85 192.01C264.33 191.33 264.85 190.65 265.3 190.01C264.361 192.646 264.16 195.488 264.72 198.23C265.235 197.571 265.488 196.744 265.43 195.91C266.018 198.131 267.113 200.185 268.63 201.91C268.69 201.62 268.75 201.31 268.81 201C269.792 203.63 271.007 206.166 272.44 208.58C274.44 217.21 272.13 227.46 269.1 232.58C268.46 233.67 264.52 235.27 263.48 235.68C262.44 236.09 261.83 239.68 262.99 241.96C264.15 244.24 273.07 241.65 276.56 241.84C277.74 241.91 277.99 242.02 277.98 242.1C278.22 242.02 278.69 241.88 279.63 241.65C280.255 241.476 280.788 241.066 281.114 240.505C281.441 239.945 281.537 239.279 281.38 238.65C279.99 233.76 282.77 223.13 283.88 211.19C287.54 200.49 286 193 286 193Z" fill="#FFCA64"/>
<path d="M412.91 242.44H208.94V250.12H412.91V242.44Z" fill="black"/>
<path opacity="0.6" d="M412.91 250.11H208.94V242.44H412.91V250.11Z" fill="white"/>
<path opacity="0.2" d="M412.91 242.44H208.94V246.28H412.91V242.44Z" fill="black"/>
<path d="M416.71 243.44H205.14C204.566 243.437 204.017 243.208 203.612 242.801C203.207 242.394 202.98 241.844 202.98 241.27C202.98 240.697 203.208 240.148 203.613 239.743C204.018 239.338 204.567 239.11 205.14 239.11H416.71C417.283 239.11 417.832 239.338 418.237 239.743C418.642 240.148 418.87 240.697 418.87 241.27C418.87 241.844 418.643 242.394 418.238 242.801C417.833 243.208 417.284 243.437 416.71 243.44Z" fill="black"/>
<path opacity="0.6" d="M416.71 243.44H205.14C204.566 243.437 204.017 243.208 203.612 242.801C203.207 242.394 202.98 241.844 202.98 241.27C202.98 240.697 203.208 240.148 203.613 239.743C204.018 239.338 204.567 239.11 205.14 239.11H416.71C417.283 239.11 417.832 239.338 418.237 239.743C418.642 240.148 418.87 240.697 418.87 241.27C418.87 241.844 418.643 242.394 418.238 242.801C417.833 243.208 417.284 243.437 416.71 243.44Z" fill="white"/>
<path d="M219.22 250.11H208.94V372.14H219.22V250.11Z" fill="black"/>
<path opacity="0.5" d="M219.22 250.02H208.94V372.14H219.22V250.02Z" fill="white"/>
<path opacity="0.2" d="M219.22 250.02H208.94V266.6H219.22V250.02Z" fill="black"/>
<path d="M412.91 250.11H402.63V372.14H412.91V250.11Z" fill="black"/>
<path opacity="0.5" d="M412.91 250.02H402.63V372.14H412.91V250.02Z" fill="white"/>
<path opacity="0.2" d="M412.91 250.02H402.63V266.6H412.91V250.02Z" fill="black"/>
<path d="M282.16 250.11H271.88V372.14H282.16V250.11Z" fill="black"/>
<path opacity="0.5" d="M282.16 250.02H271.88V372.14H282.16V250.02Z" fill="white"/>
<path opacity="0.2" d="M282.16 250.02H271.88V274.02H282.16V250.02Z" fill="black"/>
<path d="M350.13 250.11H339.85V372.14H350.13V250.11Z" fill="black"/>
<path opacity="0.5" d="M350.13 250.02H339.85V372.14H350.13V250.02Z" fill="white"/>
<path opacity="0.2" d="M350.13 250.02H339.85V274.02H350.13V250.02Z" fill="black"/>
<path d="M214.76 147.62L230.2 138.62C232.661 138.804 235.136 138.69 237.57 138.28C241.57 137.59 242.43 137.55 241.95 134.4C241.47 131.25 242.14 127.05 240.95 126.61C239.76 126.17 231.34 129.72 229.89 132.13L214.3 137.7L214.76 147.62Z" fill="#FFB899"/>
<path d="M167 132.41L169 150.37C169 150.37 172.84 151.64 177.61 152.97C183.08 154.49 189.77 156.09 193.25 155.97C199.75 155.65 229.84 140.27 229.84 140.27L227.66 132.41C227.66 132.41 193.75 144.79 190.75 144.2C187.75 143.61 167 132.41 167 132.41Z" fill="#FFB899"/>
<path opacity="0.2" d="M169 141.14V150.38C169 150.38 172.84 151.65 177.61 152.98C175.87 147.62 171.48 143.25 169 141.14Z" fill="black"/>
<path d="M165 196.44C165 196.44 175.84 254.2 178.73 277.92C182.51 308.86 201.08 362.75 201.08 362.75H195.15C195.15 362.75 170 317.26 165.76 282.65C148.46 247.28 147.06 203.72 147.06 203.72L165 196.44Z" fill="#FFB899"/>
<path d="M153.73 195.52C153.73 195.52 152.38 254.27 150.31 278.08C147.6 309.13 154.31 363.35 154.31 363.35H148.76C148.76 363.35 133.63 314.76 136.63 280C127.02 241.81 134.63 198.91 134.63 198.91L153.73 195.52Z" fill="#FFB899"/>
<path d="M150.75 139C142.61 138 140.17 134.48 140.17 134.48C145.33 129.61 141.04 121.17 141.04 121.17L150.83 123C150.61 124.367 150.483 125.746 150.45 127.13C150.38 133.07 153.06 133.13 153.06 133.13C154.78 136.34 150.75 139 150.75 139Z" fill="#FFB899"/>
<path d="M122.17 177.89C124.271 174.866 126.079 171.648 127.57 168.28C130.27 162.43 132.16 156.93 132.16 156.93L130.16 151.29L124.93 136.57C124.93 136.57 121.48 141.38 116.25 159.43V159.34L115.25 162.9C114.49 165.54 113.65 168.4 112.87 171.55V171.64L112.29 173.79C112.2 173.96 112.11 174.13 112 174.3V174.85L110.15 181.67L125.15 217.27H134.82L122.17 177.89Z" fill="#FFB899"/>
<path d="M168.85 181.85L135.85 184.7C135.529 176.52 134.352 168.395 132.34 160.46C131.55 157.3 130.56 153.77 129.29 149.69C128.61 147.51 127.86 145.17 127.02 142.69C126.39 140.78 125.71 138.75 124.96 136.61C129.441 135.179 134.02 134.073 138.66 133.3C143.557 132.43 148.509 131.909 153.48 131.74C159.9 131.74 167.28 132.41 167.28 132.41C167.28 132.41 168.28 132.66 168.99 139.47C169.58 145.82 170.17 158.6 168.85 181.85Z" fill="#2E353A"/>
<path opacity="0.2" d="M150.83 123C150.61 124.367 150.483 125.746 150.45 127.13C143.84 127.13 141.04 121.13 141.04 121.13L150.83 123Z" fill="black"/>
<path d="M130.892 155.164C130.405 153.451 129.864 151.633 129.259 149.69C128.579 147.51 128.84 142.98 128 140.5C127.37 138.59 128 140.5 124.5 136.5L121.5 143L130.892 155.164Z" fill="#2E353A"/>
<path fill-rule="evenodd" clip-rule="evenodd" d="M135.689 189.52L168.689 186.8C169.511 172.21 169.652 159.794 169.49 151C169.393 145.78 169.19 141.835 168.959 139.47C168.342 133.553 167.507 132.588 167.298 132.437C167.266 132.414 167.249 132.41 167.249 132.41C167.249 132.41 159.869 131.74 153.449 131.74C148.479 131.909 143.526 132.43 138.629 133.3C133.989 134.073 128.981 135.069 124.5 136.5L129.259 149.69L130.938 155.327L130.892 155.164C131.427 157.048 131.895 158.805 132.309 160.46C134.478 169.047 135.043 178.635 135.501 186.397C135.564 187.476 135.626 188.519 135.689 189.52Z" fill="#2E353A"/>
<path d="M167.298 132.437C167.507 132.588 168.342 133.553 168.959 139.47C169.19 141.835 169.393 145.78 169.49 151L171 134.5L167.298 132.437Z" fill="#2E353A"/>
<path d="M168.69 186.8L189.5 309C189.5 309 139.15 315 122.09 311.5C122.09 311.5 117.9 224.02 135.71 189.5L168.69 186.8Z" fill="#EBD06E"/>
<path d="M168.69 186.8L189.5 309C189.5 309 139.15 315 122.09 311.5C122.09 311.5 117.9 224.02 135.71 189.5L168.69 186.8Z" fill="#FF5F49"/>
<path d="M192.91 360.75C192.91 360.02 201.84 360.75 201.84 360.75C201.84 360.75 207.2 366.44 212.49 367.8C217.78 369.16 214.75 372.3 208.8 372.17L194.09 371.86C189.86 371.8 192.58 368.26 192.91 360.75Z" fill="#263238"/>
<path d="M146.33 360.75C146.33 360.02 155.26 360.75 155.26 360.75C155.26 360.75 160.62 366.44 165.91 367.8C171.2 369.16 168.17 372.3 162.22 372.17L147.51 371.86C143.28 371.8 146 368.26 146.33 360.75Z" fill="#263238"/>
<path d="M141.04 132.37L149.87 134.82L153.01 131.07L141.04 132.37Z" fill="#FFB899"/>
<path d="M149.87 134.82L145.03 140.97L136.9 133.89L141.04 129.05L149.87 134.82Z" fill="#FE5F49"/>
<path d="M149.87 134.82L155.52 139L154.34 131.62L151.07 127.88L149.87 134.82Z" fill="#FC5E48"/>
<path opacity="0.1" d="M129.2 196.44L136.9 217.28L135.33 218.66L136.18 220.55C136.18 220.55 142.45 232.33 141.04 234.05C139.63 235.77 130.11 232.72 130.11 232.72L126.38 209L129.2 196.44Z" fill="black"/>
<path d="M120.58 204.92L128.08 220.76C127.781 223.211 127.781 225.689 128.08 228.14C128.58 232.14 128.58 233.03 131.75 232.7C134.92 232.37 139.08 233.23 139.58 232.06C140.08 230.89 136.91 222.32 134.58 220.75L129.73 204.92H120.58Z" fill="#FFB899"/>
<path d="M130.08 100.12C130.466 99.2293 131.098 98.4672 131.903 97.9234C132.707 97.3796 133.65 97.0766 134.62 97.05H139.62L135.84 106.93L136.07 119.31L134.39 115.54L133.93 119.31C133.93 119.31 129.93 110.73 129.65 108.2C129.37 105.67 128.85 103.19 130.08 100.12Z" fill="#FFF852"/>
<path d="M145.42 94.77C153.93 94.31 156.92 98.72 158.03 107.45C159.41 118.37 157.4 126.29 146.63 124.53C132 122.15 131.29 95.55 145.42 94.77Z" fill="#FFB899"/>
<path d="M152.5 107.28C153.249 108.514 154.146 109.652 155.17 110.67C154.94 111.035 154.614 111.33 154.228 111.522C153.842 111.715 153.41 111.797 152.98 111.76L152.5 107.28Z" fill="#F3AA9D"/>
<path d="M147.25 106.87C147.3 107.57 146.97 108.16 146.51 108.2C146.05 108.24 145.62 107.7 145.56 107C145.5 106.3 145.84 105.71 146.31 105.67C146.78 105.63 147.2 106.17 147.25 106.87Z" fill="#2E353A"/>
<path d="M146.12 105.72L147.59 105C147.59 105 146.93 106.34 146.12 105.72Z" fill="#2E353A"/>
<path d="M155.92 106C155.97 106.7 155.64 107.3 155.18 107.33C154.72 107.36 154.29 106.83 154.18 106.13C154.07 105.43 154.46 104.84 154.93 104.8C155.4 104.76 155.86 105.34 155.92 106Z" fill="#2E353A"/>
<path d="M154.79 104.89L156.26 104.18C156.26 104.18 155.6 105.52 154.79 104.89Z" fill="#2E353A"/>
<path d="M146.84 101C146.163 100.954 145.484 101.065 144.856 101.323C144.229 101.582 143.669 101.981 143.22 102.49" stroke="#2E353A" stroke-width="0.72468" stroke-linecap="round" stroke-linejoin="round"/>
<path d="M153 100.3C153.573 100.122 154.179 100.076 154.773 100.164C155.367 100.252 155.933 100.473 156.43 100.81" stroke="#2E353A" stroke-width="0.72468" stroke-linecap="round" stroke-linejoin="round"/>
<path d="M151.92 115.17C151.57 116.148 151.293 117.151 151.09 118.17C150.9 118.17 150.72 118.17 150.54 118.17C148.05 118.06 146.93 117.17 146.44 116.25C146.213 115.787 146.104 115.275 146.12 114.76C146.118 114.47 146.155 114.18 146.23 113.9C147.736 114.653 149.387 115.073 151.07 115.13C151.59 115.17 151.92 115.17 151.92 115.17Z" fill="#2E353A"/>
<path d="M151.07 115.12L150.8 116C148.46 115.89 146.8 115.49 146.12 114.75C146.118 114.46 146.155 114.17 146.23 113.89C147.736 114.643 149.387 115.063 151.07 115.12Z" fill="white"/>
<path d="M150.54 118.16C148.05 118.05 146.93 117.16 146.44 116.24C147.389 116.3 148.32 116.527 149.19 116.91C149.758 117.178 150.229 117.615 150.54 118.16Z" fill="#DE5753"/>
<path d="M136.9 109.63C136.9 109.63 140.5 102.42 139.6 97.05C139.6 97.05 156.09 89.24 157.86 106.31C157.86 106.31 158.68 91.02 144.03 91.48C129.38 91.94 130.61 113.35 138.52 119.31C138.52 119.31 134.68 114.14 136.9 109.63Z" fill="#FFF852"/>
<path d="M138.39 111.35C138.256 110.37 137.738 109.484 136.95 108.885C136.163 108.287 135.17 108.026 134.19 108.16C131.57 108.59 130.6 114.07 137.24 115.02C138.19 115.15 138.67 114.2 138.39 111.35Z" fill="#FFB899"/>
<path d="M134.62 97.05C134.62 97.05 133.23 92.59 137.06 90.05C140.89 87.51 147.58 88.58 151.92 90.05C156.26 91.52 160.68 104.22 160.68 104.22C158.525 101.034 155.944 98.1573 153.01 95.67L141.01 95.56L139.61 97.09L134.62 97.05Z" fill="#FFF852"/>
<path d="M128.39 102C120.73 98.08 110.94 105.37 115.05 111.26C115.68 119.94 121.41 120.21 124.82 114.26C129.82 110.26 128.47 106.82 126.53 103.42C126.14 104.75 127 107.02 122.05 108.84L120.92 108.13C124.37 104.05 126.53 105.13 128.8 105.88L128.39 102Z" fill="#FFF852"/>
<path d="M111 116.85C112.43 107.95 115.52 102.05 121.35 101.11L123.64 100.84C117.57 102.14 113.53 107.85 111 116.85Z" fill="#FFF852"/>
<path d="M114.56 116.19C113.41 107.32 116.81 102.3 124.46 100.87L120.53 101.28C114.42 103.6 112.84 108.84 114.56 116.19Z" fill="#FFF852"/>
<path d="M128.33 101.37L128.77 106.07C128.86 106.179 128.976 106.264 129.107 106.318C129.237 106.372 129.379 106.393 129.52 106.38C129.655 106.37 129.785 106.325 129.897 106.25C130.009 106.174 130.1 106.071 130.16 105.95L129.84 101.28C129.783 101.133 129.683 101.006 129.553 100.917C129.422 100.827 129.268 100.78 129.11 100.78C128.94 100.803 128.78 100.87 128.643 100.973C128.506 101.076 128.399 101.213 128.33 101.37Z" fill="#FF6B00"/>
<path d="M247.11 119.23C247.11 121.81 246.92 124.23 245.23 125.15C246.76 126.04 247.12 128.15 247.11 130.7H247.93V119.23H247.11Z" fill="#263238"/>
<path opacity="0.6" d="M247.11 119.23C247.11 121.81 246.92 124.23 245.23 125.15C246.76 126.04 247.12 128.15 247.11 130.7H247.93V119.23H247.11Z" fill="white"/>
<path d="M135.23 112.79C135.23 112.79 137.42 123.63 139.12 125.4C140.82 127.17 146.97 129.46 151.07 127.88C155.17 126.3 158.07 125.41 159.28 122.45C159.601 121.515 159.69 120.515 159.539 119.537C159.387 118.56 159 117.634 158.41 116.84V114.73C158.41 114.73 161.28 119.21 160.27 122.41C159.26 125.61 155.74 127.82 151.08 129.05C146.42 130.28 139.27 128.32 137.84 125.88C136.41 123.44 133.93 113.15 133.93 113.15L135.23 112.79Z" fill="#263238"/>
<path opacity="0.5" d="M135.23 112.79C135.23 112.79 137.42 123.63 139.12 125.4C140.82 127.17 146.97 129.46 151.07 127.88C155.17 126.3 158.07 125.41 159.28 122.45C159.601 121.515 159.69 120.515 159.539 119.537C159.387 118.56 159 117.634 158.41 116.84V114.73C158.41 114.73 161.28 119.21 160.27 122.41C159.26 125.61 155.74 127.82 151.08 129.05C146.42 130.28 139.27 128.32 137.84 125.88C136.41 123.44 133.93 113.15 133.93 113.15L135.23 112.79Z" fill="white"/>
<path d="M200.19 195.52C184.59 195.52 171.79 188.23 163.32 181.52C150.9 171.68 150.58 130.79 150.57 129.06H151.57C151.57 129.48 151.9 171.21 163.95 180.74C173.75 188.51 189.46 197.09 208.55 193.82C224.89 191.02 226.55 188.44 233.39 177.59L234.09 176.49C239.4 168.12 238.69 149.73 238.27 138.74C238.09 134.05 237.96 130.66 238.27 129.32C239.48 124.56 245.47 124.51 245.73 124.51V125.51C245.73 125.51 240.25 125.57 239.24 129.57C238.93 130.77 239.07 134.27 239.24 138.7C239.67 149.81 240.38 168.39 234.9 177.03L234.21 178.12C227.15 189.28 225.47 191.93 208.69 194.8C205.882 195.279 203.039 195.52 200.19 195.52Z" fill="#263238"/>
<g opacity="0.3">
<path d="M200.19 195.52C184.59 195.52 171.79 188.23 163.32 181.52C150.9 171.68 150.58 130.79 150.57 129.06H151.57C151.57 129.48 151.9 171.21 163.95 180.74C173.75 188.51 189.46 197.09 208.55 193.82C224.89 191.02 226.55 188.44 233.39 177.59L234.09 176.49C239.4 168.12 238.69 149.73 238.27 138.74C238.09 134.05 237.96 130.66 238.27 129.32C239.48 124.56 245.47 124.51 245.73 124.51V125.51C245.73 125.51 240.25 125.57 239.24 129.57C238.93 130.77 239.07 134.27 239.24 138.7C239.67 149.81 240.38 168.39 234.9 177.03L234.21 178.12C227.15 189.28 225.47 191.93 208.69 194.8C205.882 195.279 203.039 195.52 200.19 195.52Z" fill="white"/>
</g>
<defs>
<linearGradient id="paint0_linear_40_17" x1="283.032" y1="57.0288" x2="176.076" y2="348.276" gradientUnits="userSpaceOnUse">
<stop/>
<stop offset="1" stop-opacity="0.02"/>
</linearGradient>
<linearGradient id="paint1_linear_40_17" x1="250.001" y1="340" x2="250.001" y2="398" gradientUnits="userSpaceOnUse">
<stop stop-color="#1E0031" stop-opacity="0.53"/>
<stop offset="1" stop-opacity="0"/>
</linearGradient>
</defs>
</svg>
