<svg width="29" height="29" viewBox="0 0 29 29" fill="none" xmlns="http://www.w3.org/2000/svg">
<path d="M10.039 23.9598C19.096 23.9598 24.0505 16.4553 24.0505 9.95878C24.0505 9.74878 24.0505 9.53578 24.0415 9.32578C25.0061 8.62751 25.8386 7.76301 26.5 6.77278C25.599 7.17006 24.6441 7.43189 23.6665 7.54978C24.6963 6.93424 25.4676 5.96573 25.837 4.82428C24.8695 5.39747 23.8105 5.79984 22.7065 6.01378C21.9643 5.22332 20.9821 4.69966 19.9121 4.52392C18.8421 4.34818 17.7441 4.53016 16.788 5.04169C15.8319 5.55321 15.0712 6.36572 14.6237 7.35337C14.1761 8.34102 14.0668 9.44868 14.3125 10.5048C12.3546 10.4066 10.4392 9.89798 8.69056 9.01189C6.9419 8.12581 5.39903 6.88205 4.162 5.36128C3.53401 6.4459 3.34236 7.72888 3.62597 8.94968C3.90958 10.1705 4.64718 11.2376 5.689 11.9343C4.90831 11.9078 4.14478 11.6981 3.46 11.3223V11.3898C3.46135 12.526 3.85496 13.6269 4.57431 14.5064C5.29366 15.3859 6.29462 15.9901 7.408 16.2168C6.98539 16.3332 6.54884 16.3912 6.1105 16.3893C5.80148 16.3902 5.49307 16.3616 5.1895 16.3038C5.50418 17.2819 6.11691 18.137 6.94187 18.7495C7.76683 19.362 8.7627 19.7011 9.79 19.7193C8.04483 21.09 5.8891 21.8334 3.67 21.8298C3.27898 21.8314 2.88823 21.8089 2.5 21.7623C4.75227 23.1982 7.36795 23.9606 10.039 23.9598Z" fill="#C4B5FD"/>
</svg>
