<svg width="24" height="23" viewBox="0 0 24 23" fill="none" xmlns="http://www.w3.org/2000/svg">
<path d="M19 3.99951H16.9C16.6679 2.87092 16.0538 1.85686 15.1613 1.12823C14.2687 0.399602 13.1522 0.000966243 12 -0.000488281H5C3.67441 0.00109958 2.40356 0.528394 1.46622 1.46573C0.528882 2.40307 0.00158786 3.67392 0 4.99951L0 13.9995C0.0025138 14.8951 0.305538 15.764 0.860536 16.467C1.41553 17.1699 2.19039 17.6663 3.061 17.8765C2.96676 18.377 2.98287 18.8919 3.10819 19.3855C3.23351 19.8791 3.46503 20.3394 3.7866 20.7343C4.10816 21.1292 4.51202 21.4491 4.96999 21.6718C5.42796 21.8945 5.92901 22.0146 6.43817 22.0236C6.94733 22.0327 7.45234 21.9306 7.91796 21.7243C8.38357 21.5181 8.79858 21.2128 9.13401 20.8296C9.46944 20.4464 9.71722 19.9947 9.86006 19.5059C10.0029 19.0171 10.0373 18.503 9.961 17.9995H14.043C14.0173 18.165 14.0036 18.3321 14.002 18.4995C14.002 19.4278 14.3707 20.318 15.0271 20.9744C15.6835 21.6308 16.5737 21.9995 17.502 21.9995C18.4303 21.9995 19.3205 21.6308 19.9769 20.9744C20.6333 20.318 21.002 19.4278 21.002 18.4995C21.0009 18.2904 20.9804 18.0819 20.941 17.8765C21.8112 17.6659 22.5856 17.1694 23.1403 16.4665C23.6949 15.7635 23.9976 14.8949 24 13.9995V8.99951C23.9984 7.67392 23.4711 6.40307 22.5338 5.46573C21.5964 4.52839 20.3256 4.0011 19 3.99951ZM22 8.99951V9.99951H17V5.99951H19C19.7956 5.99951 20.5587 6.31558 21.1213 6.87819C21.6839 7.4408 22 8.20386 22 8.99951ZM2 13.9995V4.99951C2 4.20386 2.31607 3.4408 2.87868 2.87819C3.44129 2.31558 4.20435 1.99951 5 1.99951H12C12.7956 1.99951 13.5587 2.31558 14.1213 2.87819C14.6839 3.4408 15 4.20386 15 4.99951V15.9995H4C3.46957 15.9995 2.96086 15.7888 2.58579 15.4137C2.21071 15.0387 2 14.5299 2 13.9995ZM8 18.4995C8 18.8973 7.84196 19.2789 7.56066 19.5602C7.27936 19.8415 6.89782 19.9995 6.5 19.9995C6.10218 19.9995 5.72064 19.8415 5.43934 19.5602C5.15804 19.2789 5 18.8973 5 18.4995C5.00061 18.3286 5.03212 18.1592 5.093 17.9995H7.907C7.96788 18.1592 7.99939 18.3286 8 18.4995ZM17.5 19.9995C17.1022 19.9995 16.7206 19.8415 16.4393 19.5602C16.158 19.2789 16 18.8973 16 18.4995C16.0004 18.3286 16.0319 18.1592 16.093 17.9995H18.907C18.9681 18.1592 18.9996 18.3286 19 18.4995C19 18.8973 18.842 19.2789 18.5607 19.5602C18.2794 19.8415 17.8978 19.9995 17.5 19.9995ZM20 15.9995H17V11.9995H22V13.9995C22 14.5299 21.7893 15.0387 21.4142 15.4137C21.0391 15.7888 20.5304 15.9995 20 15.9995Z" fill="#01BF7B"/>
</svg>
