<svg width="103" height="130" viewBox="0 0 103 130" fill="none" xmlns="http://www.w3.org/2000/svg">
<path d="M98.8157 19.6422C102.572 14.4123 101.077 6.98852 95.4692 3.82477C94.0334 3.01479 92.4349 2.54395 90.7491 2.54395C89.0637 2.54395 87.4648 3.01479 86.029 3.82477C80.421 6.98852 78.9269 14.4123 82.6829 19.6422L90.7491 30.8752L98.8157 19.6422Z" fill="#F5007E" stroke="#36005B" stroke-width="4" stroke-linejoin="round"/>
<path d="M94.3594 12.3984C94.3594 14.3925 92.7426 16.0093 90.7485 16.0093C88.7545 16.0093 87.1377 14.3925 87.1377 12.3984C87.1377 10.4044 88.7545 8.7876 90.7485 8.7876C92.7426 8.7876 94.3594 10.4044 94.3594 12.3984Z" fill="#36005B"/>
<path d="M36.0446 107.135C42.839 97.6732 40.1368 84.242 29.991 78.5186C27.3936 77.0532 24.5012 76.2019 21.4518 76.2019C18.4024 76.2019 15.51 77.0532 12.9126 78.5186C2.76679 84.242 0.0645919 97.6732 6.85902 107.135L21.4518 127.456L36.0446 107.135Z" fill="#F5007E" stroke="#36005B" stroke-width="5" stroke-linejoin="round"/>
<path d="M27.9861 94.0297C27.9861 97.6372 25.0611 100.562 21.4529 100.562C17.8454 100.562 14.9209 97.6372 14.9209 94.0297C14.9209 90.4222 17.8454 87.4971 21.4529 87.4971C25.0611 87.4971 27.9861 90.4222 27.9861 94.0297Z" fill="#36005B"/>
<path d="M79.4486 30.6361C79.4486 30.6361 44.9529 26.1561 41.3689 46.3159C35.9307 76.9069 99.1604 55.7238 80.7926 105.451C77.2086 110.827 74.9686 127.851 40.9209 122.475" stroke="#00E0FF" stroke-width="5" stroke-linecap="round" stroke-linejoin="round" stroke-dasharray="20 20"/>
</svg>
