<svg width="77" height="103" viewBox="0 0 77 103" fill="none" xmlns="http://www.w3.org/2000/svg">
<path d="M29.125 91.8843L10.8589 96.0675C10.4832 96.1535 10.125 95.8681 10.125 95.4826L10.125 61.9036C10.125 61.6238 10.3183 61.3812 10.5911 61.3187L29.125 57.0742M29.125 91.8843L48.125 96.2356M29.125 91.8843L29.125 57.0742M48.125 96.2356L66.6589 91.9911C66.9316 91.9286 67.125 91.686 67.125 91.4062L67.125 57.8272C67.125 57.4417 66.7668 57.1563 66.3911 57.2423L48.125 61.4255M48.125 96.2356L48.125 61.4255M48.125 61.4255L29.125 57.0742" stroke="#00E0FF" stroke-width="5" stroke-linecap="round" stroke-linejoin="round"/>
<path d="M58.869 44.4441C67.9201 31.8401 64.3204 13.9478 50.8048 6.32349C47.3448 4.37141 43.4916 3.2373 39.4294 3.2373C35.3672 3.2373 31.5141 4.37141 28.0541 6.32349C14.5384 13.9478 10.9387 31.8401 19.9898 44.4441L39.4294 71.5146L58.869 44.4441Z" fill="#F5007E" stroke="#36005B" stroke-width="5" stroke-linejoin="round"/>
<path d="M45.33 40.5146C44.5128 40.4758 43.7051 40.3233 42.93 40.0616C40.9183 39.3756 38.7359 39.3756 36.7241 40.0616C33.4242 41.2417 30.7002 40.0826 30.8242 36.8836C30.8302 32.1556 35.2882 27.5145 39.8301 27.5145C44.372 27.5145 48.8299 32.1556 48.8299 36.8836C48.8299 38.5396 48.2229 40.5146 45.33 40.5146ZM49.6739 21.5285C48.3099 21.3655 47.0739 22.6565 46.8599 24.9885C46.427 30.4966 51.1669 31.2136 51.8009 25.5775C52.0139 23.2465 51.0379 21.6915 49.6739 21.5285ZM27.8593 25.5775C28.4943 31.2146 33.2302 30.4926 32.8002 24.9885C32.5862 22.6565 31.3502 21.3655 29.9863 21.5285C28.6223 21.6915 27.6463 23.2465 27.8593 25.5775ZM33.8072 20.5775C34.4422 26.2165 39.1811 25.4925 38.7471 19.9885C38.5301 17.6564 37.2981 16.3654 35.9302 16.5284C34.5622 16.6914 33.5932 18.2464 33.8072 20.5775ZM43.674 16.5284C42.31 16.3654 41.0741 17.6564 40.8601 19.9885C40.4271 25.4965 45.167 26.2135 45.801 20.5775C46.014 18.2464 45.038 16.6914 43.674 16.5284Z" fill="#1E0031"/>
</svg>
