<svg width="77" height="74" viewBox="0 0 77 74" fill="none" xmlns="http://www.w3.org/2000/svg">
<path d="M34.09 63.1317L34.0901 63.1323L34.0902 63.1329L34.0905 63.1339L34.0908 63.1355L34.0911 63.1368L35.143 68.0204L38.9606 64.7902L52.5515 53.2902L52.5663 53.2776L52.5809 53.2649L67.6491 40.1772L67.7571 40.0834L67.8557 39.9797C76.0481 31.3653 76.0481 17.9154 67.8557 9.30101L67.7897 9.23157L67.7193 9.16648C63.7418 5.48601 58.6117 3 52.9773 3C49.6154 3 46.5948 4.72421 44.2206 6.52587C42.0963 8.13789 40.1189 10.1075 38.5017 11.7414C38.4593 11.6982 38.4167 11.6547 38.3738 11.611C36.8213 10.0272 34.9379 8.10596 32.9095 6.54066C30.5309 4.70506 27.5158 3 24.0227 3C18.37 3 13.2013 5.50299 9.18691 9.55534L9.16538 9.57708L9.14429 9.59926C0.97566 18.1886 0.951974 31.5856 9.07323 40.2029C9.11584 40.2538 9.17642 40.3258 9.25372 40.4164C9.40866 40.598 9.63126 40.8552 9.91136 41.1692C10.4703 41.7956 11.2649 42.6551 12.2133 43.5939C14.0551 45.4169 16.6881 47.7524 19.4132 49.1377C21.7105 50.3056 23.2474 51.014 24.4127 51.5511C26.6687 52.5909 27.5313 52.9885 29.8213 54.8352C31.1248 55.8865 32.2194 57.7975 33.0166 59.7783C33.3946 60.7173 33.6681 61.576 33.8462 62.1978C33.9348 62.5071 33.9985 62.7534 34.0389 62.9166C34.059 62.9981 34.0732 63.0585 34.0817 63.0953L34.09 63.1317ZM53.0234 32.7311C53.0235 32.7311 53.0243 32.731 53.026 32.7311C53.0243 32.7312 53.0234 32.7311 53.0234 32.7311ZM47.2239 23.7585L47.2241 23.7588L47.2239 23.7585Z" fill="#FF0083" stroke="#36005B" stroke-width="6"/>
<path d="M27.8204 29.4286H23.0078C21.2031 29.4286 20 30.6857 20 32.5714C20 34.4571 21.2031 35.7143 23.0078 35.7143H29.0235C29.9258 35.7143 30.5274 35.4 31.129 34.4571L34.1368 31.3143L38.3478 40.1143C38.9493 41.3714 39.8517 42 41.0548 42C42.258 42 43.4611 41.0571 43.7619 39.8L47.6721 29.7429L50.3791 34.1429C51.2815 35.7143 53.0862 36.0286 54.5901 35.0857C56.094 34.1429 56.3948 32.2571 55.4924 30.6857L49.4768 21.2571C48.8752 20.3143 47.9728 20 46.7697 20C45.5666 20 44.6642 20.9429 44.3634 21.8857L40.754 31L37.7462 24.7143C37.4454 24.0857 36.5431 23.4571 35.6407 23.1429C34.4376 23.1429 33.5352 23.4571 32.9337 24.0857L27.8204 29.4286Z" fill="#00E0FF"/>
</svg>
