<svg width="88" height="88" viewBox="0 0 88 88" fill="none" xmlns="http://www.w3.org/2000/svg">
<path d="M54.8395 18.5355C56.7921 16.5829 59.9579 16.5829 61.9105 18.5355L64.1605 20.7855C65.0982 21.7232 65.625 22.995 65.625 24.3211V68C65.625 70.7614 63.3864 73 60.625 73H56.125C53.3636 73 51.125 70.7614 51.125 68V24.3211C51.125 22.995 51.6518 21.7232 52.5895 20.7855L54.8395 18.5355ZM35.1605 20.7855C36.0982 21.7232 36.625 22.995 36.625 24.3211V68C36.625 70.7614 34.3864 73 31.625 73H27.125C24.3636 73 22.125 70.7614 22.125 68V24.3211C22.125 22.995 22.6518 21.7232 23.5895 20.7855L25.8395 18.5355C27.7921 16.5829 30.9579 16.5829 32.9105 18.5355L35.1605 20.7855Z" fill="#F5007E" stroke="#36005B" stroke-width="6" stroke-linecap="round" stroke-linejoin="round"/>
<path d="M72.875 44H14.875M72.875 58.5H14.875" stroke="#00E0FF" stroke-width="6" stroke-linecap="round" stroke-linejoin="round"/>
</svg>
