<svg width="85" height="76" viewBox="0 0 85 76" fill="none" xmlns="http://www.w3.org/2000/svg">
<path d="M31.501 8C31.501 5.23858 33.7396 3 36.501 3H47.751C50.5124 3 52.751 5.23858 52.751 8V40C52.751 42.7614 50.5124 45 47.751 45H36.501C33.7396 45 31.501 42.7614 31.501 40V8Z" fill="#FF0083" stroke="#36005B" stroke-width="6"/>
<path d="M17.3337 6.5V13.5M3.16699 3V17M66.917 6.5V13.5M81.0837 3V17" stroke="#00E0FF" stroke-width="6" stroke-linecap="round" stroke-linejoin="round"/>
<path d="M17.335 31V39C17.335 50.0457 26.2893 59 37.335 59H42.1266H46.9183C57.964 59 66.9183 50.0457 66.9183 39V31" stroke="#36005B" stroke-width="6" stroke-linecap="round" stroke-linejoin="round"/>
<path d="M42.126 59V73M42.126 73H31.501M42.126 73H52.751" stroke="#36005B" stroke-width="6" stroke-linecap="round" stroke-linejoin="round"/>
</svg>
