<svg width="96" height="127" viewBox="0 0 96 127" fill="none" xmlns="http://www.w3.org/2000/svg">
<path d="M72.7423 63.4569C67.8462 65.0408 65.1749 70.3367 66.7759 75.2854C65.1749 70.3367 59.9079 67.6089 55.0118 69.1928C50.1157 70.7768 47.4444 76.0727 49.0454 81.0214C47.4444 76.0727 42.1774 73.3449 37.2813 74.9288C32.3852 76.5128 29.7139 81.8086 31.3148 86.7574C29.7139 81.8086 24.4469 79.0809 19.5507 80.6648C14.6546 82.2487 11.9834 87.5446 13.5843 92.4934C7.1804 72.6982 17.8654 51.5149 37.45 45.1791C57.0346 38.8433 78.1025 49.7543 84.5064 69.5495C82.9054 64.6007 77.6385 61.8729 72.7423 63.4569Z" fill="#FF0083"/>
<path d="M49.0454 81.0214C47.4444 76.0727 50.1157 70.7768 55.0118 69.1928C59.9079 67.6089 65.1749 70.3367 66.7759 75.2854C65.1749 70.3367 67.8462 65.0408 72.7423 63.4569C77.6385 61.8729 82.9054 64.6007 84.5064 69.5494C78.1025 49.7543 57.0346 38.8433 37.45 45.1791M49.0454 81.0214C47.4444 76.0727 42.1774 73.3449 37.2813 74.9288C32.3852 76.5128 29.7139 81.8086 31.3148 86.7574C29.7139 81.8086 24.4469 79.0809 19.5507 80.6648C14.6546 82.2487 11.9834 87.5446 13.5843 92.4934C7.1804 72.6982 17.8654 51.5149 37.45 45.1791M49.0454 81.0214L57.0704 105.804C60.0068 117.965 76.7731 113.327 71.5565 101.116M37.45 45.1791L35.9693 40.6036" stroke="#36005B" stroke-width="6" stroke-linecap="round" stroke-linejoin="round"/>
<path d="M44.001 14.6284C44.001 17.3473 41.7624 19.5515 39.001 19.5515C36.2396 19.5515 34.001 17.3473 34.001 14.6284C34.001 11.9095 39.001 3.55151 39.001 3.55151C39.001 3.55151 44.001 11.9095 44.001 14.6284Z" fill="#00E0FF" stroke="#03E0FF" stroke-width="6" stroke-linecap="round" stroke-linejoin="round"/>
<path d="M68.001 30.5771C68.001 32.2764 66.6578 33.6541 65.001 33.6541C63.3442 33.6541 62.001 32.2764 62.001 30.5771C62.001 28.8778 65.001 23.6541 65.001 23.6541C65.001 23.6541 68.001 28.8778 68.001 30.5771Z" fill="#00E0FF" stroke="#03E0FF" stroke-width="6" stroke-linecap="round" stroke-linejoin="round"/>
<path d="M18.001 40.7695C18.001 43.6583 15.7624 46.0002 13.001 46.0002C10.2396 46.0002 8.00098 43.6583 8.00098 40.7695C8.00098 37.8807 13.001 29.0002 13.001 29.0002C13.001 29.0002 18.001 37.8807 18.001 40.7695Z" fill="#00E0FF" stroke="#03E0FF" stroke-width="6" stroke-linecap="round" stroke-linejoin="round"/>
</svg>
