<svg width="191" height="53" viewBox="0 0 191 53" fill="none" xmlns="http://www.w3.org/2000/svg">
<path fill-rule="evenodd" clip-rule="evenodd" d="M13.3069 7.29733C14.0978 10.1786 16.9769 11.9041 19.7377 11.1513C22.4984 10.3986 24.0954 7.45268 23.3045 4.57144C22.5136 1.69019 19.6345 -0.0353043 16.8737 0.717431C14.113 1.47017 12.5161 4.41609 13.3069 7.29733ZM26.625 6.84685C26.0724 9.84777 27.9118 12.6989 30.7335 13.2151C33.5552 13.7312 36.2906 11.7169 36.8432 8.71599C37.3959 5.71507 35.5564 2.86392 32.7347 2.34777C29.913 1.83162 27.1776 3.84592 26.625 6.84685ZM40.8739 17.892C39.2861 16.721 39.0165 14.4013 40.2717 12.7107C41.5268 11.0201 43.8315 10.5988 45.4193 11.7698C47.0071 12.9408 47.2767 15.2606 46.0216 16.9512C44.7664 18.6418 42.4617 19.063 40.8739 17.892ZM3.35679 11.0151C4.72667 12.6951 7.0812 13.0494 8.61578 11.8064C10.1504 10.5635 10.2839 8.19393 8.914 6.51392C7.54412 4.83391 5.18959 4.47961 3.65501 5.72257C2.12043 6.96553 1.98691 9.33506 3.35679 11.0151ZM19.8263 47.473C18.9136 46.9561 17.9517 46.3163 16.9407 45.5537C14.2467 43.5173 11.8762 41.237 9.82928 38.713C7.69373 36.0836 6.19557 33.2962 5.3348 30.3509C4.80525 28.5407 4.65986 26.9676 4.89864 25.6314C5.20097 23.9227 6.0136 22.4803 7.33652 21.3041C9.15819 19.6851 11.2023 19.0443 13.4688 19.3818C15.0074 19.61 16.3563 20.2069 17.5155 21.1724C18.7691 22.216 19.5827 23.5463 19.9563 25.1633C20.4185 27.1607 20.2442 28.9591 19.4335 30.5586C18.2415 32.911 16.2783 34.4237 13.5439 35.0966C12.3808 35.3834 11.2504 35.5618 10.1528 35.632C10.1198 35.6344 10.088 35.6452 10.0604 35.6635C10.0327 35.6818 10.0102 35.7069 9.99482 35.7365C9.97947 35.7661 9.97187 35.7992 9.97272 35.8327C9.97358 35.8661 9.98286 35.8988 9.9997 35.9276C10.743 37.1818 11.624 38.2692 12.6427 39.1899C12.9354 39.4552 13.2762 39.5625 13.6652 39.5117C16.7 39.1138 19.2101 37.9015 21.1955 35.8749C22.4279 34.6168 23.3551 33.1587 23.9771 31.5007C24.6164 29.7998 24.8667 28.0404 24.7281 26.2225C24.5798 24.2875 23.9934 22.4491 22.969 20.7072C21.4034 18.0447 19.1494 16.2453 16.207 15.309C14.3257 14.7121 12.4251 14.5639 10.5052 14.8643C7.2489 15.3753 4.59246 17.0226 2.53586 19.8061C1.30152 21.4757 0.54955 23.3776 0.279958 25.5115C0.149014 26.5628 0.158642 27.6942 0.308843 28.9055C0.457119 30.0836 0.705528 31.1955 1.05407 32.241C2.51949 36.622 4.88709 40.5134 8.15685 43.9152C11.3091 47.196 14.8398 49.9854 18.7489 52.2831C19.0416 52.4548 19.3507 52.5006 19.6761 52.4207C24.6058 51.2211 29.1773 49.1827 33.3906 46.3056C35.944 44.5618 38.302 42.2689 40.4645 39.4269C42.5173 36.7292 43.5282 33.8521 43.4974 30.7956C43.4685 27.9809 42.7406 25.5729 41.3137 23.5716C38.5986 19.77 34.8252 18.3256 29.9938 19.2384C28.6323 19.4959 27.0908 20.1357 25.3693 21.1578C25.3341 21.1784 25.3072 21.211 25.2929 21.2499C25.2787 21.2888 25.2782 21.3317 25.2913 21.3714C25.713 22.6783 26.0741 24.1471 26.3745 25.7777C26.3798 25.8055 26.3919 25.8314 26.4097 25.8531C26.4276 25.8748 26.4505 25.8915 26.4765 25.9018C26.5025 25.912 26.5306 25.9154 26.5583 25.9116C26.5859 25.9078 26.6121 25.897 26.6345 25.8801C27.7071 25.098 28.8249 24.505 29.988 24.1012C31.3013 23.6409 32.527 23.5073 33.665 23.7004C34.9783 23.9227 36.0788 24.5225 36.9666 25.4998C37.7349 26.3424 38.2962 27.4104 38.6506 28.7036C39.1705 30.6054 39.0232 32.4429 38.2086 34.2159C36.8838 37.095 34.753 39.5937 31.8164 41.712C28.0286 44.4448 24.1215 46.3768 20.0949 47.5081C20.0063 47.5325 19.9099 47.5199 19.8263 47.473Z" fill="#00E0FF"/>
<path d="M60.6479 43.6305C59.4707 43.6305 58.8115 42.9335 58.8115 41.7719V15.2405C58.8115 14.0789 59.5178 13.4284 60.6949 13.4284H71.5717C79.0583 13.4284 83.1548 17.0991 83.1548 23.1395C83.1548 29.1335 79.1054 32.8042 71.5717 32.8042H65.1681V41.7719C65.1681 42.9335 64.556 43.6305 63.3788 43.6305H60.6479ZM65.1681 27.8789H71.8542C74.7735 27.8789 76.657 26.2527 76.657 23.2789C76.657 20.2587 74.7735 18.6325 71.8542 18.6325H65.1681V27.8789Z" fill="white"/>
<path d="M105.9 20.1658C107.03 20.1658 107.69 20.8163 107.69 21.9314V41.8183C107.69 42.9335 107.03 43.6305 105.9 43.6305H104.205C103.075 43.6305 102.416 42.9335 102.416 41.8183V40.5638C100.956 42.7476 98.6022 44.2345 95.212 44.2345C89.4676 44.2345 85.6536 40.3779 85.6536 34.6628V21.9314C85.6536 20.8163 86.2657 20.1658 87.3958 20.1658H90.1268C91.2568 20.1658 91.916 20.8163 91.916 21.9314V33.9658C91.916 36.8931 93.7053 38.8911 96.5775 38.8911C99.5439 38.8911 101.427 36.8931 101.427 33.8264V21.9314C101.427 20.8163 102.039 20.1658 103.169 20.1658H105.9Z" fill="white"/>
<path d="M133.998 10.5011C135.269 10.2688 135.881 11.0122 135.881 12.2203V41.8183C135.881 42.9335 135.222 43.6305 134.092 43.6305H132.208C131.078 43.6305 130.466 42.9335 130.466 41.8183V40.8426C128.583 42.887 125.899 44.2345 122.603 44.2345C115.681 44.2345 110.737 38.8446 110.737 32.0143C110.737 25.1375 115.681 19.7941 122.603 19.7941C125.287 19.7941 127.688 20.6769 129.619 22.0708V12.7779C129.619 11.7092 130.231 11.2446 131.361 10.9658L133.998 10.5011ZM123.498 38.8446C127.076 38.8446 129.995 36.382 129.995 32.0143C129.995 27.6001 127.076 25.1375 123.498 25.1375C119.542 25.1375 116.953 28.2042 116.953 32.0143C116.953 35.8244 119.542 38.8446 123.498 38.8446Z" fill="white"/>
<path d="M162.422 10.5011C163.693 10.2688 164.305 11.0122 164.305 12.2203V41.8183C164.305 42.9335 163.646 43.6305 162.516 43.6305H160.633C159.503 43.6305 158.89 42.9335 158.89 41.8183V40.8426C157.007 42.887 154.323 44.2345 151.027 44.2345C144.106 44.2345 139.162 38.8446 139.162 32.0143C139.162 25.1375 144.106 19.7941 151.027 19.7941C153.711 19.7941 156.112 20.6769 158.043 22.0708V12.7779C158.043 11.7092 158.655 11.2446 159.785 10.9658L162.422 10.5011ZM151.922 38.8446C155.5 38.8446 158.42 36.382 158.42 32.0143C158.42 27.6001 155.5 25.1375 151.922 25.1375C147.967 25.1375 145.377 28.2042 145.377 32.0143C145.377 35.8244 147.967 38.8446 151.922 38.8446Z" fill="white"/>
<path d="M189.339 20.1658C190.469 20.1658 191.129 20.9092 190.658 21.9314L179.828 46.5113C177.803 51.1577 175.072 52.4587 171.824 52.4587C170.458 52.4587 169.187 52.18 168.245 51.7153C167.633 51.3901 166.974 50.9254 167.303 49.9032L167.821 48.0911C168.104 47.2082 168.716 46.883 169.893 47.3012C170.364 47.487 170.976 47.6264 171.541 47.6264C172.624 47.6264 173.613 47.3012 174.46 45.4426L176.061 41.9577L166.927 21.9314C166.456 20.9092 167.115 20.1658 168.245 20.1658H171.306C172.483 20.1658 173.095 20.8163 173.519 21.9314L179.122 35.9173L184.725 21.9314C185.149 20.8163 185.761 20.1658 186.891 20.1658H189.339Z" fill="white"/>
</svg>
