<svg width="138" height="42" viewBox="0 0 138 42" fill="none" xmlns="http://www.w3.org/2000/svg">
<path fill-rule="evenodd" clip-rule="evenodd" d="M10.2865 5.94281C10.9066 8.20206 13.1642 9.55507 15.329 8.96483C17.4938 8.37459 18.746 6.06462 18.1258 3.80537C17.5057 1.54612 15.2481 0.193113 13.0833 0.783351C10.9185 1.37359 9.66637 3.68356 10.2865 5.94281ZM20.7295 5.58957C20.2962 7.94267 21.7385 10.1783 23.9511 10.583C26.1637 10.9878 28.3086 9.40831 28.7419 7.05521C29.1752 4.70212 27.7328 2.46646 25.5203 2.06174C23.3077 1.65701 21.1628 3.23648 20.7295 5.58957ZM31.9024 14.2504C30.6574 13.3322 30.446 11.5132 31.4302 10.1875C32.4144 8.8619 34.2215 8.53161 35.4666 9.4498C36.7116 10.368 36.923 12.187 35.9388 13.5126C34.9546 14.8383 33.1475 15.1686 31.9024 14.2504ZM2.48435 8.85798C3.55851 10.1753 5.40475 10.4531 6.60805 9.47849C7.81135 8.50386 7.91605 6.64585 6.84189 5.32852C5.76774 4.01118 3.92149 3.73336 2.71819 4.708C1.51489 5.68263 1.4102 7.54064 2.48435 8.85798ZM15.3985 37.4455C14.6828 37.0402 13.9286 36.5385 13.1358 35.9405C11.0234 34.3437 9.16466 32.5557 7.55958 30.5766C5.88505 28.5148 4.71031 26.3292 4.03536 24.0196C3.62012 22.6003 3.50612 21.3667 3.69335 20.319C3.93041 18.9792 4.56762 17.8481 5.60495 16.9258C7.03337 15.6564 8.63618 15.1539 10.4134 15.4185C11.6198 15.5975 12.6776 16.0655 13.5866 16.8226C14.5695 17.6409 15.2075 18.684 15.5004 19.9519C15.8628 21.5181 15.7262 22.9283 15.0905 24.1825C14.1558 26.0271 12.6164 27.2132 10.4723 27.7409C9.56027 27.9657 8.67393 28.1057 7.81326 28.1607C7.78742 28.1626 7.76248 28.171 7.7408 28.1854C7.71912 28.1997 7.70142 28.2194 7.68939 28.2427C7.67735 28.2659 7.67139 28.2918 7.67206 28.3181C7.67273 28.3443 7.68001 28.3699 7.69321 28.3925C8.27606 29.3759 8.96686 30.2286 9.76562 30.9505C9.99514 31.1585 10.2624 31.2427 10.5674 31.2029C12.9471 30.8909 14.9153 29.9403 16.4721 28.3512C17.4384 27.3646 18.1655 26.2213 18.6532 24.9213C19.1545 23.5876 19.3508 22.2079 19.2421 20.7825C19.1258 19.2652 18.666 17.8237 17.8627 16.4578C16.6352 14.3701 14.8678 12.9591 12.5605 12.2249C11.0853 11.7569 9.595 11.6407 8.08958 11.8762C5.53625 12.2769 3.45327 13.5686 1.84064 15.7512C0.872763 17.0604 0.283126 18.5517 0.071733 20.225C-0.0309437 21.0494 -0.0233939 21.9365 0.0943824 22.8863C0.210649 23.8101 0.405432 24.6819 0.678734 25.5017C1.82781 28.937 3.68429 31.9883 6.24819 34.6557C8.71998 37.2283 11.4885 39.4155 14.5537 41.2173C14.7832 41.3518 15.0255 41.3878 15.2807 41.3251C19.1462 40.3844 22.7308 38.7861 26.0346 36.5301C28.0368 35.1628 29.8857 33.3648 31.5814 31.1364C33.191 29.0211 33.9837 26.7651 33.9596 24.3684C33.9369 22.1613 33.3662 20.2731 32.2473 18.7039C30.1183 15.7229 27.1595 14.5903 23.371 15.3061C22.3035 15.508 21.0948 16.0097 19.7449 16.8111C19.7173 16.8273 19.6962 16.8528 19.685 16.8833C19.6739 16.9139 19.6734 16.9475 19.6837 16.9786C20.0144 18.0034 20.2975 19.1551 20.5331 20.4337C20.5372 20.4555 20.5467 20.4758 20.5607 20.4928C20.5747 20.5098 20.5927 20.523 20.6131 20.531C20.6335 20.539 20.6555 20.5417 20.6772 20.5387C20.6988 20.5357 20.7194 20.5272 20.7369 20.514C21.578 19.9007 22.4545 19.4357 23.3665 19.1191C24.3963 18.7582 25.3574 18.6534 26.2498 18.8048C27.2796 18.9792 28.1425 19.4495 28.8386 20.2158C29.4411 20.8765 29.8812 21.7139 30.159 22.728C30.5667 24.2192 30.4512 25.66 29.8125 27.0503C28.7737 29.3079 27.1029 31.2671 24.8002 32.9282C21.8301 35.071 18.7664 36.5859 15.6091 37.4731C15.5396 37.4922 15.464 37.4823 15.3985 37.4455Z" fill="#00E0FF"/>
<path d="M43.8802 35.0491C43.033 35.0491 42.5586 34.5512 42.5586 33.7215V14.7705C42.5586 13.9408 43.0669 13.4762 43.9141 13.4762H51.7421C57.1302 13.4762 60.0784 16.0981 60.0784 20.4127C60.0784 24.6941 57.164 27.316 51.7421 27.316H47.1334V33.7215C47.1334 34.5512 46.6929 35.0491 45.8457 35.0491H43.8802ZM47.1334 23.798H51.9454C54.0464 23.798 55.4019 22.6364 55.4019 20.5123C55.4019 18.355 54.0464 17.1933 51.9454 17.1933H47.1334V23.798Z" fill="white"/>
<path d="M76.4483 18.2886C77.2616 18.2886 77.7361 18.7532 77.7361 19.5498V33.7547C77.7361 34.5512 77.2616 35.0491 76.4483 35.0491H75.2284C74.4151 35.0491 73.9407 34.5512 73.9407 33.7547V32.8586C72.8902 34.4185 71.1958 35.4805 68.7559 35.4805C64.6216 35.4805 61.8768 32.7258 61.8768 28.6436V19.5498C61.8768 18.7532 62.3173 18.2886 63.1306 18.2886H65.0961C65.9094 18.2886 66.3838 18.7532 66.3838 19.5498V28.1457C66.3838 30.2366 67.6715 31.6638 69.7386 31.6638C71.8735 31.6638 73.229 30.2366 73.229 28.0462V19.5498C73.229 18.7532 73.6696 18.2886 74.4829 18.2886H76.4483Z" fill="white"/>
<path d="M96.6698 11.3853C97.5848 11.2193 98.0253 11.7503 98.0253 12.6133V33.7547C98.0253 34.5512 97.5509 35.0491 96.7376 35.0491H95.3821C94.5688 35.0491 94.1283 34.5512 94.1283 33.7547V33.0577C92.7728 34.518 90.8412 35.4805 88.4691 35.4805C83.4876 35.4805 79.9295 31.6306 79.9295 26.7518C79.9295 21.8398 83.4876 18.0231 88.4691 18.0231C90.4007 18.0231 92.1289 18.6537 93.5183 19.6493V13.0115C93.5183 12.2482 93.9588 11.9163 94.7721 11.7172L96.6698 11.3853ZM89.1129 31.6306C91.6884 31.6306 93.7894 29.8716 93.7894 26.7518C93.7894 23.5988 91.6884 21.8398 89.1129 21.8398C86.2664 21.8398 84.4026 24.0303 84.4026 26.7518C84.4026 29.4733 86.2664 31.6306 89.1129 31.6306Z" fill="white"/>
<path d="M117.127 11.3853C118.042 11.2193 118.482 11.7503 118.482 12.6133V33.7547C118.482 34.5512 118.008 35.0491 117.194 35.0491H115.839C115.026 35.0491 114.585 34.5512 114.585 33.7547V33.0577C113.23 34.518 111.298 35.4805 108.926 35.4805C103.944 35.4805 100.386 31.6306 100.386 26.7518C100.386 21.8398 103.944 18.0231 108.926 18.0231C110.858 18.0231 112.586 18.6537 113.975 19.6493V13.0115C113.975 12.2482 114.416 11.9163 115.229 11.7172L117.127 11.3853ZM109.57 31.6306C112.145 31.6306 114.246 29.8716 114.246 26.7518C114.246 23.5988 112.145 21.8398 109.57 21.8398C106.723 21.8398 104.859 24.0303 104.859 26.7518C104.859 29.4733 106.723 31.6306 109.57 31.6306Z" fill="white"/>
<path d="M136.499 18.2886C137.312 18.2886 137.787 18.8196 137.448 19.5498L129.654 37.1068C128.197 40.4257 126.231 41.355 123.893 41.355C122.91 41.355 121.995 41.1558 121.318 40.824C120.877 40.5916 120.403 40.2597 120.64 39.5296L121.013 38.2352C121.216 37.6046 121.656 37.3723 122.504 37.671C122.843 37.8038 123.283 37.9033 123.69 37.9033C124.469 37.9033 125.181 37.671 125.791 36.3434L126.943 33.8543L120.369 19.5498C120.03 18.8196 120.504 18.2886 121.318 18.2886H123.52C124.367 18.2886 124.808 18.7532 125.113 19.5498L129.146 29.5397L133.178 19.5498C133.483 18.7532 133.924 18.2886 134.737 18.2886H136.499Z" fill="white"/>
</svg>
