<svg width="29" height="29" viewBox="0 0 29 29" fill="none" xmlns="http://www.w3.org/2000/svg">
<path d="M14.4997 2.79199C17.6695 2.79199 18.065 2.80366 19.3087 2.86199C20.5512 2.92033 21.397 3.11516 22.1413 3.40449C22.9113 3.70083 23.56 4.10216 24.2087 4.74966C24.8019 5.33287 25.261 6.03835 25.5538 6.81699C25.842 7.56016 26.038 8.40716 26.0963 9.64966C26.1512 10.8933 26.1663 11.2888 26.1663 14.4587C26.1663 17.6285 26.1547 18.024 26.0963 19.2677C26.038 20.5102 25.842 21.356 25.5538 22.1003C25.2618 22.8794 24.8027 23.585 24.2087 24.1677C23.6253 24.7607 22.9199 25.2197 22.1413 25.5128C21.3982 25.801 20.5512 25.997 19.3087 26.0553C18.065 26.1102 17.6695 26.1253 14.4997 26.1253C11.3298 26.1253 10.9343 26.1137 9.69067 26.0553C8.44817 25.997 7.60234 25.801 6.85801 25.5128C6.07906 25.2205 5.37346 24.7614 4.79067 24.1677C4.19732 23.5845 3.73826 22.879 3.44551 22.1003C3.15617 21.3572 2.96134 20.5102 2.90301 19.2677C2.84817 18.024 2.83301 17.6285 2.83301 14.4587C2.83301 11.2888 2.84467 10.8933 2.90301 9.64966C2.96134 8.40599 3.15617 7.56133 3.44551 6.81699C3.73745 6.03787 4.19661 5.3322 4.79067 4.74966C5.37362 4.1561 6.07917 3.69701 6.85801 3.40449C7.60234 3.11516 8.44701 2.92033 9.69067 2.86199C10.9343 2.80716 11.3298 2.79199 14.4997 2.79199ZM14.4997 8.62533C12.9526 8.62533 11.4688 9.23991 10.3749 10.3339C9.28092 11.4278 8.66634 12.9116 8.66634 14.4587C8.66634 16.0058 9.28092 17.4895 10.3749 18.5834C11.4688 19.6774 12.9526 20.292 14.4997 20.292C16.0468 20.292 17.5305 19.6774 18.6245 18.5834C19.7184 17.4895 20.333 16.0058 20.333 14.4587C20.333 12.9116 19.7184 11.4278 18.6245 10.3339C17.5305 9.23991 16.0468 8.62533 14.4997 8.62533ZM22.083 8.33366C22.083 7.94689 21.9294 7.57595 21.6559 7.30246C21.3824 7.02897 21.0114 6.87533 20.6247 6.87533C20.2379 6.87533 19.867 7.02897 19.5935 7.30246C19.32 7.57595 19.1663 7.94689 19.1663 8.33366C19.1663 8.72043 19.32 9.09137 19.5935 9.36486C19.867 9.63835 20.2379 9.79199 20.6247 9.79199C21.0114 9.79199 21.3824 9.63835 21.6559 9.36486C21.9294 9.09137 22.083 8.72043 22.083 8.33366ZM14.4997 10.9587C15.4279 10.9587 16.3182 11.3274 16.9745 11.9838C17.6309 12.6402 17.9997 13.5304 17.9997 14.4587C17.9997 15.3869 17.6309 16.2772 16.9745 16.9335C16.3182 17.5899 15.4279 17.9587 14.4997 17.9587C13.5714 17.9587 12.6812 17.5899 12.0248 16.9335C11.3684 16.2772 10.9997 15.3869 10.9997 14.4587C10.9997 13.5304 11.3684 12.6402 12.0248 11.9838C12.6812 11.3274 13.5714 10.9587 14.4997 10.9587Z" fill="#C4B5FD"/>
</svg>
