<svg width="46" height="46" viewBox="0 0 46 46" fill="none" xmlns="http://www.w3.org/2000/svg">
    <path d="M2.89156 9.2227C3.3691 9.24736 3.84978 9.25984 4.33333 9.25984C11.5047 9.25984 18.0464 6.51465 23.0002 2C27.9539 6.51448 34.4954 9.25955 41.6667 9.25955C42.1502 9.25955 42.6309 9.24707 43.1084 9.22241C43.6904 11.5118 44 13.9129 44 16.3876C44 29.6724 35.0766 40.835 23 44C10.9234 40.835 2 29.6724 2 16.3876C2 13.913 2.30962 11.512 2.89156 9.2227Z" stroke="#7C3AED" stroke-width="4" stroke-linecap="round" stroke-linejoin="round"/>
    <path d="M18.3547 33.1026C19.0316 33.0699 19.7006 32.9413 20.3426 32.7206C22.0089 32.142 23.8165 32.142 25.4828 32.7206C28.2161 33.7158 30.4723 32.7383 30.3696 30.0403C30.3646 26.0527 26.6722 22.1385 22.9102 22.1385C19.1482 22.1385 15.4558 26.0527 15.4558 30.0403C15.4558 31.4369 15.9586 33.1026 18.3547 33.1026ZM14.7568 17.0899C15.8865 16.9525 16.9102 18.0413 17.0875 20.0081C17.4461 24.6535 13.5201 25.2582 12.995 20.5048C12.8186 18.5389 13.627 17.2274 14.7568 17.0899ZM32.8254 20.5048C32.2995 25.2591 28.3768 24.6501 28.7329 20.0081C28.9102 18.0413 29.9339 16.9525 31.0637 17.0899C32.1934 17.2274 33.0018 18.5389 32.8254 20.5048ZM27.8989 16.2879C27.3729 21.0438 23.4478 20.4331 23.8072 15.7911C23.987 13.8243 25.0074 12.7355 26.1405 12.8729C27.2735 13.0104 28.0761 14.3219 27.8989 16.2879ZM19.7264 12.8729C20.8561 12.7355 21.8799 13.8243 22.0571 15.7911C22.4157 20.4365 18.4898 21.0412 17.9646 16.2879C17.7882 14.3219 18.5966 13.0104 19.7264 12.8729Z" fill="#7C3AED"/>
</svg>
